<?xml version="1.0" encoding="utf-8" ?>	<!-- Generator: Assembly 2.4 - http://assemblyapp.co -->	<svg version="1.1" xmlns="http://www.w3.org/2000/svg" xmlns:xlink="http://www.w3.org/1999/xlink" width="4096.00" height="4096.00" viewBox="0 0 4096.0 4096.0">		<g id="document" transform="scale(1.0 1.0) translate(2048.0 2048.0)">			<path d="M1034.18,-1232.83 L950.609,-939.713 L879.314,-589.332 L836.379,-271.175 L830.242,-130.1 L859.381,-83.3334 L929.15,-80.2647 C929.15,-80.2647 1107.01,-120.136 1145.35,-134.706 C1183.68,-149.265 1320.91,-189.905 1340.08,-209.844 C1359.24,-229.761 1371.51,-258.132 1371.51,-266.564 C1371.51,-275.001 1373.81,-290.34 1360.01,-304.141 C1346.21,-317.936 1330.11,-368.541 1317.07,-447.499 C1304.04,-526.469 1279.51,-597.764 1255.74,-735.001 C1231.98,-872.239 1201.31,-980.337 1169.87,-1077.7 C1138.45,-1175.07 1080.18,-1228.74 1080.18,-1228.74 L1034.18,-1232.83 Z " fill="#636363" fill-opacity="1.00" />			<path d="M1034.18,-1232.83 L1033.91,-1229.77 L1079.91,-1225.69 L1080.18,-1228.74 L1078.11,-1226.48 L1078.14,-1226.46 C1079.68,-1225.03 1136.26,-1171.88 1166.96,-1076.77 C1198.37,-979.472 1228.98,-871.54 1252.72,-734.48 C1264.63,-665.77 1276.72,-613.559 1287.45,-568.695 C1298.2,-523.814 1307.57,-486.323 1314.06,-447.005 C1320.58,-407.424 1327.89,-374.925 1335.33,-350.488 C1339.05,-338.273 1342.8,-328.067 1346.53,-319.973 C1350.28,-311.869 1353.96,-305.871 1357.84,-301.964 C1362.67,-297.138 1365.29,-292.237 1366.79,-287.491 C1368.28,-282.762 1368.58,-278.162 1368.58,-274.05 C1368.58,-271.315 1368.45,-268.81 1368.45,-266.564 C1368.45,-265.876 1368.29,-264.694 1367.96,-263.21 C1367.36,-260.62 1366.2,-257.127 1364.55,-253.139 C1359.59,-241.144 1350.09,-224.661 1337.87,-211.961 C1336.9,-210.94 1335.39,-209.715 1333.45,-208.409 C1329.77,-205.931 1324.57,-203.115 1318.26,-200.127 C1307.19,-194.887 1292.74,-189.094 1276.8,-183.177 C1252.91,-174.288 1225.71,-165.141 1201.52,-157.09 C1177.32,-149.045 1156.19,-142.096 1144.25,-137.571 C1139.61,-135.808 1132.68,-133.594 1124.2,-131.132 C1094.45,-122.464 1045.49,-110.479 1003.99,-100.682 C983.247,-95.7856 964.367,-91.4271 950.668,-88.2993 C943.827,-86.7354 938.27,-85.467 934.433,-84.6018 C930.595,-83.7365 928.473,-83.269 928.473,-83.269 L929.15,-80.2647 L929.284,-83.3335 L861.128,-86.3323 L833.348,-130.923 L839.432,-270.901 L882.329,-588.81 L953.597,-938.982 L1037.12,-1231.99 L1034.18,-1232.83 L1033.91,-1229.77 L1034.18,-1232.83 L1031.23,-1233.66 L947.626,-940.428 L876.288,-589.853 L833.321,-271.438 L827.146,-129.289 L857.634,-80.3507 L929.408,-77.1853 L929.822,-77.282 C929.822,-77.282 974.304,-87.2406 1023.59,-99.0478 C1048.23,-104.938 1074.08,-111.29 1096.17,-117.084 C1107.22,-119.986 1117.33,-122.738 1125.9,-125.242 C1134.49,-127.73 1141.49,-129.961 1146.43,-131.831 C1155.91,-135.437 1171.67,-140.709 1190.22,-146.868 C1218.05,-156.128 1252.19,-167.409 1281.22,-178.265 C1295.74,-183.703 1308.98,-189.024 1319.57,-193.963 C1324.87,-196.44 1329.5,-198.821 1333.32,-201.089 C1337.15,-203.362 1340.16,-205.507 1342.29,-207.71 C1352.14,-217.97 1360.13,-230.261 1365.71,-241.111 C1368.5,-246.55 1370.69,-251.623 1372.19,-255.944 C1372.95,-258.105 1373.54,-260.072 1373.94,-261.845 C1374.33,-263.608 1374.58,-265.15 1374.58,-266.564 C1374.58,-268.547 1374.72,-271.121 1374.72,-274.05 C1374.72,-278.468 1374.39,-283.735 1372.64,-289.324 C1370.89,-294.908 1367.7,-300.782 1362.19,-306.301 C1359.16,-309.3 1355.65,-314.803 1352.1,-322.532 C1346.74,-334.145 1341.15,-350.768 1335.71,-371.846 C1330.28,-392.918 1324.98,-418.457 1320.1,-448.01 C1313.57,-487.645 1304.16,-525.287 1293.42,-570.113 C1282.69,-614.951 1270.64,-666.995 1258.76,-735.528 C1234.98,-872.927 1204.25,-981.202 1172.79,-1078.64 C1141.11,-1176.76 1082.48,-1230.78 1082.26,-1231 L1081.49,-1231.7 L1031.92,-1236.1 L1031.23,-1233.66 L1034.18,-1232.83 Z " fill="#000000" fill-opacity="1.00" />			<path d="M1359.75,-236.162 C1337.78,-212.649 1221.25,-178.404 1098.07,-142.112 C974.896,-105.83 859.381,-83.3334 859.381,-83.3334 L892.083,-3.60613 C892.083,-3.60613 967.216,-22.0023 1079.66,-51.6521 C1192.11,-81.2858 1357.2,-135.974 1357.2,-135.974 L1359.75,-236.162 Z " fill="#5e5e5e" fill-opacity="1.00" />			<path d="M1359.75,-236.162 L1356.69,-236.242 L1354.14,-136.055 L1357.2,-135.974 L1356.24,-138.893 C1356.23,-138.893 1355.59,-138.683 1354.36,-138.269 C1335.84,-132.164 1184.15,-82.3607 1078.89,-54.608 C1022.68,-39.7911 975.787,-27.7796 942.962,-19.4817 C926.548,-15.3274 913.645,-12.1082 904.852,-9.9209 C900.451,-8.81918 897.076,-7.99692 894.808,-7.43262 C892.524,-6.86832 891.369,-6.57811 891.352,-6.57811 L892.083,-3.60614 L894.932,-4.7616 L862.213,-84.505 L859.381,-83.3334 L859.956,-80.3239 C860.015,-80.3346 975.594,-102.831 1098.94,-139.167 C1160.52,-157.31 1220.48,-174.949 1267.85,-191.018 C1291.54,-199.052 1312.08,-206.705 1328.16,-213.842 C1336.21,-217.421 1343.13,-220.877 1348.81,-224.22 C1354.48,-227.563 1358.91,-230.782 1361.99,-234.071 L1359.75,-236.162 L1356.69,-236.242 L1359.75,-236.162 L1357.52,-238.252 C1355.1,-235.667 1351.08,-232.668 1345.7,-229.503 C1336.27,-223.946 1322.7,-217.819 1306.03,-211.311 C1255.99,-191.802 1178.03,-168.87 1097.2,-145.052 C1035.69,-126.935 976.078,-112.252 931.842,-102.1 C909.738,-97.0271 891.465,-93.0877 878.723,-90.4221 C872.354,-89.0839 867.362,-88.0682 863.976,-87.3803 C862.283,-87.0363 860.977,-86.773 860.112,-86.6117 C859.241,-86.429 858.79,-86.3484 858.79,-86.3484 L855.114,-85.6336 L890.256,1.06581e-13 L892.814,-0.623416 C892.825,-0.623416 967.989,-19.0303 1080.45,-48.6801 C1193.06,-78.3676 1358.14,-133.056 1358.17,-133.072 L1360.22,-133.744 L1363.03,-244.153 L1357.52,-238.252 L1359.75,-236.162 Z " fill="#000000" fill-opacity="1.00" />			<path d="M-1019.13,-1234.55 L-1065.13,-1230.46 C-1065.13,-1230.46 -1123.4,-1176.79 -1154.84,-1079.42 C-1186.26,-982.057 -1216.93,-873.959 -1240.7,-736.721 C-1264.46,-599.484 -1288.99,-528.189 -1302.04,-449.219 C-1315.07,-370.26 -1331.16,-319.656 -1344.96,-305.86 C-1358.76,-292.059 -1356.46,-276.721 -1356.46,-268.284 C-1356.46,-259.851 -1344.2,-231.481 -1325.04,-211.564 C-1305.86,-191.625 -1168.64,-150.985 -1130.29,-136.426 C-1091.96,-121.856 -914.096,-81.9845 -914.096,-81.9845 L-844.333,-85.0532 L-815.204,-131.82 L-821.326,-272.895 L-864.266,-591.052 L-935.561,-941.432 L-1019.13,-1234.55 Z " fill="#636363" fill-opacity="1.00" />			<path d="M-1019.13,-1234.55 L-1019.41,-1237.6 L-1066.44,-1233.42 L-1067.21,-1232.72 C-1067.43,-1232.5 -1126.07,-1178.48 -1157.75,-1080.36 C-1189.21,-982.922 -1219.93,-874.646 -1243.72,-737.248 C-1255.59,-668.715 -1267.64,-616.671 -1278.37,-571.833 C-1289.1,-527.006 -1298.51,-489.365 -1305.06,-449.73 C-1311.56,-410.336 -1318.82,-378.048 -1326.14,-353.998 C-1329.8,-341.976 -1333.49,-332.001 -1337.05,-324.251 C-1340.61,-316.523 -1344.12,-311.02 -1347.13,-308.021 C-1352.66,-302.502 -1355.86,-296.627 -1357.59,-291.044 C-1359.35,-285.454 -1359.68,-280.188 -1359.68,-275.77 C-1359.68,-272.841 -1359.53,-270.267 -1359.53,-268.284 C-1359.53,-266.87 -1359.3,-265.328 -1358.89,-263.565 C-1358.18,-260.486 -1356.91,-256.729 -1355.17,-252.505 C-1349.9,-239.832 -1340.17,-222.898 -1327.24,-209.43 C-1325.82,-207.957 -1324.01,-206.528 -1321.82,-205.039 C-1317.74,-202.288 -1312.31,-199.369 -1305.83,-196.301 C-1294.5,-190.937 -1279.93,-185.09 -1263.9,-179.146 C-1239.86,-170.219 -1212.61,-161.056 -1188.41,-152.995 C-1164.21,-144.944 -1143.05,-137.984 -1131.39,-133.551 C-1126.46,-131.68 -1119.44,-129.45 -1110.86,-126.962 C-1080.88,-118.223 -1031.89,-106.255 -990.357,-96.4305 C-948.836,-86.6386 -914.773,-79.0018 -914.773,-79.0018 L-914.37,-78.905 L-842.581,-82.0705 L-812.093,-131.009 L-818.273,-273.158 L-861.24,-591.573 L-932.589,-942.147 L-1016.88,-1237.82 L-1019.41,-1237.6 L-1019.13,-1234.55 L-1022.09,-1233.71 L-938.544,-940.702 L-867.292,-590.541 L-824.394,-272.621 L-818.3,-132.642 L-846.079,-88.052 L-914.236,-85.0532 L-914.096,-81.9845 L-913.425,-84.9887 C-913.435,-84.9887 -914.123,-85.1392 -915.434,-85.424 C-925.269,-87.6436 -969.817,-97.7257 -1016.39,-108.953 C-1039.67,-114.569 -1063.46,-120.47 -1083.65,-125.822 C-1093.75,-128.488 -1102.94,-131.019 -1110.71,-133.303 C-1118.49,-135.587 -1124.86,-137.64 -1129.21,-139.29 C-1138.91,-142.977 -1154.67,-148.244 -1173.23,-154.408 C-1201.07,-163.668 -1235.16,-174.938 -1264.02,-185.735 C-1278.46,-191.131 -1291.6,-196.413 -1301.94,-201.245 C-1307.1,-203.663 -1311.57,-205.964 -1315.15,-208.081 C-1318.71,-210.188 -1321.36,-212.155 -1322.83,-213.681 C-1332.14,-223.349 -1339.87,-235.226 -1345.21,-245.642 C-1347.88,-250.839 -1349.97,-255.681 -1351.36,-259.674 C-1352.05,-261.668 -1352.57,-263.457 -1352.91,-264.93 C-1353.25,-266.413 -1353.41,-267.596 -1353.39,-268.284 C-1353.41,-270.53 -1353.55,-273.034 -1353.55,-275.77 C-1353.55,-279.881 -1353.23,-284.482 -1351.74,-289.211 C-1350.26,-293.956 -1347.62,-298.858 -1342.8,-303.684 C-1338.92,-307.591 -1335.23,-313.589 -1331.48,-321.693 C-1325.88,-333.828 -1320.24,-350.725 -1314.73,-372.034 C-1309.24,-393.332 -1303.91,-419.032 -1299.01,-448.725 C-1292.51,-488.043 -1283.15,-525.534 -1272.42,-570.414 C-1261.67,-615.279 -1249.57,-667.49 -1237.68,-736.2 C-1213.94,-873.26 -1183.31,-981.191 -1151.92,-1078.49 C-1136.32,-1126.79 -1114.06,-1164.27 -1095.7,-1189.65 C-1086.54,-1202.35 -1078.34,-1212.01 -1072.45,-1218.49 C-1069.51,-1221.72 -1067.16,-1224.17 -1065.53,-1225.8 C-1064.72,-1226.61 -1064.09,-1227.21 -1063.68,-1227.61 C-1063.46,-1227.82 -1063.3,-1227.97 -1063.19,-1228.07 L-1063.09,-1228.18 L-1063.05,-1228.2 L-1065.13,-1230.46 L-1064.86,-1227.41 L-1018.87,-1231.49 L-1019.13,-1234.55 L-1022.09,-1233.71 L-1019.13,-1234.55 Z " fill="#000000" fill-opacity="1.00" />			<path d="M-1344.72,-237.881 L-1342.16,-137.694 C-1342.16,-137.694 -1177.07,-83.0056 -1064.62,-53.3719 C-952.178,-23.722 -877.046,-5.32589 -877.046,-5.32589 L-844.333,-85.0532 C-844.333,-85.0532 -959.842,-107.55 -1083.02,-143.832 C-1206.2,-180.124 -1322.73,-214.369 -1344.72,-237.881 Z " fill="#5e5e5e" fill-opacity="1.00" />			<path d="M-1344.72,-237.881 L-1347.78,-237.795 L-1345.17,-135.464 L-1343.12,-134.792 C-1343.09,-134.776 -1178.01,-80.0874 -1065.41,-50.3999 C-952.936,-20.7501 -877.788,-2.34318 -877.777,-2.34318 L-875.203,-1.71977 L-840.076,-87.3534 L-843.752,-88.0682 C-843.752,-88.0682 -844.193,-88.1488 -845.058,-88.3315 C-858.155,-90.9165 -966.834,-112.806 -1082.16,-146.771 C-1143.75,-164.92 -1203.65,-182.542 -1250.83,-198.547 C-1274.43,-206.555 -1294.83,-214.149 -1310.62,-221.162 C-1318.52,-224.671 -1325.27,-228.041 -1330.65,-231.223 C-1336.03,-234.388 -1340.06,-237.387 -1342.47,-239.972 L-1347.99,-245.873 L-1347.78,-237.795 L-1344.72,-237.881 L-1346.96,-235.791 C-1343.88,-232.502 -1339.44,-229.283 -1333.76,-225.94 C-1323.84,-220.093 -1310.06,-213.885 -1293.22,-207.323 C-1242.72,-187.637 -1164.73,-164.716 -1083.89,-140.887 C-960.546,-104.551 -844.978,-82.0544 -844.924,-82.0436 L-844.333,-85.0532 L-847.165,-86.2248 L-879.884,-6.48137 L-877.046,-5.3259 L-876.321,-8.29787 C-876.321,-8.29787 -877.487,-8.58808 -879.76,-9.15238 C-895.663,-13.0702 -965.469,-30.3915 -1063.84,-56.3277 C-1119.97,-71.1338 -1189.33,-92.2117 -1244.64,-109.571 C-1272.29,-118.266 -1296.44,-126.027 -1313.66,-131.611 C-1322.27,-134.405 -1329.15,-136.646 -1333.89,-138.205 C-1336.25,-138.989 -1338.08,-139.581 -1339.32,-139.989 C-1340.54,-140.403 -1341.19,-140.612 -1341.19,-140.612 L-1342.16,-137.694 L-1339.09,-137.775 L-1341.65,-237.962 L-1344.72,-237.881 L-1346.96,-235.791 L-1344.72,-237.881 Z " fill="#000000" fill-opacity="1.00" />			<path d="M-422.356,-1565.05 C-422.356,-1565.05 -564.946,-1491.44 -748.945,-1404.8 C-917.622,-1325.07 -1041.06,-1267.56 -1067.89,-1227.71 C-1042.58,-1156.4 -871.613,-747.26 -826.635,-109.393 C-791.885,508.03 -785.748,745.18 -785.748,912.836 C-785.748,1080.48 -791.885,1248.12 -785.748,1333.99 C-779.611,1419.85 -810.282,1478.62 -807.981,1574.46 C-805.681,1670.3 -804.155,1686.4 -804.155,1686.4 C-804.155,1686.4 -702.952,1746.97 -587.437,1771.49 C-471.923,1796.03 -381.974,1807.28 -100.856,1804.21 C180.25,1801.14 364.255,1816.47 525.762,1790.92 C681.143,1765.36 772.113,1712.21 808.916,1683.58 C811.985,1591.6 817.101,1521.06 803.811,1451.54 C790.52,1382.03 791.541,1226.66 791.541,1096.83 C791.541,967.003 776.214,880.117 784.383,763.587 C792.557,647.057 808.916,421.133 813.001,277.006 C817.101,132.873 837.545,-86.8966 836.513,-175.83 C835.498,-264.78 865.147,-445.71 897.85,-616.424 C930.563,-787.132 1046.08,-1141.84 1075.71,-1227.71 C1049.15,-1256.33 956.112,-1319.71 875.616,-1354.2 C795.115,-1388.71 466.215,-1538.2 435.55,-1557.37 C404.879,-1576.53 381.119,-1578.84 381.119,-1578.84 L-187.753,-1561.98 L-422.356,-1565.05 Z " fill="#636363" fill-opacity="1.00" />			<path d="M-422.356,-1565.05 L-423.759,-1567.77 C-423.759,-1567.77 -424.307,-1567.48 -425.398,-1566.92 C-441.714,-1558.52 -577.807,-1488.77 -750.251,-1407.58 L-750.267,-1407.58 C-834.589,-1367.71 -907.631,-1333.4 -963.051,-1304.01 C-990.744,-1289.32 -1014.04,-1275.86 -1032.17,-1263.52 C-1041.24,-1257.34 -1049.02,-1251.44 -1055.42,-1245.79 C-1061.83,-1240.13 -1066.87,-1234.71 -1070.43,-1229.41 L-1071.3,-1228.13 L-1070.78,-1226.68 C-1064.4,-1208.74 -1049.01,-1169.9 -1028.75,-1111.58 C-967.936,-936.709 -863.412,-587.241 -829.704,-109.173 L-826.635,-109.393 L-829.704,-109.216 C-794.954,508.18 -788.817,745.277 -788.817,912.836 C-788.817,1024.55 -791.541,1136.3 -791.541,1223.89 C-791.541,1267.69 -790.864,1305.44 -788.817,1334.21 C-788.252,1341.97 -788.005,1349.49 -788.005,1356.85 C-788.005,1392.06 -793.74,1423.33 -799.549,1456.13 C-805.337,1488.91 -811.174,1523.21 -811.174,1564.18 C-811.174,1567.58 -811.131,1571.04 -811.05,1574.53 C-808.75,1670.41 -807.224,1686.5 -807.213,1686.69 L-807.057,1688.23 L-805.724,1689.03 C-805.654,1689.07 -780.261,1704.26 -740.389,1722.53 C-700.517,1740.8 -646.157,1762.17 -588.072,1774.49 C-536.479,1785.46 -489.851,1793.78 -429.095,1799.37 C-368.339,1804.94 -293.47,1807.78 -185.205,1807.78 C-159.108,1807.78 -131.065,1807.61 -100.829,1807.28 C-72.953,1806.97 -46.044,1806.85 -20.0111,1806.85 C90.8386,1806.85 185.727,1809.08 270.296,1809.08 C366.109,1809.08 448.701,1806.22 526.24,1793.95 L526.257,1793.95 C604.194,1781.12 666.025,1761.39 713.023,1741.23 C760.021,1721.06 792.159,1700.51 810.803,1686 L811.931,1685.12 L811.985,1683.69 C813.511,1637.72 815.559,1597.07 815.559,1559.12 C815.559,1521.19 813.511,1485.99 806.826,1450.97 C803.977,1436.09 801.774,1417.09 800.081,1395.17 C795.019,1329.39 794.578,1237.36 794.578,1149.85 C794.578,1131.91 794.605,1114.15 794.605,1096.83 C794.605,994.133 785.044,918.355 785.044,833.92 C785.044,811.397 785.732,788.255 787.441,763.797 C795.626,647.261 811.985,421.354 816.07,277.103 C818.063,206.877 823.954,118.578 829.333,36.2387 C834.724,-46.122 839.625,-122.49 839.625,-169.118 C839.625,-171.445 839.609,-173.696 839.582,-175.873 C839.571,-177.356 839.555,-178.856 839.555,-180.398 C839.555,-225.322 846.832,-292.296 858.145,-368.938 C869.452,-445.586 884.79,-531.945 900.859,-615.843 C917.165,-700.95 954.215,-832.286 990.868,-952.987 C1027.53,-1073.69 1063.81,-1183.83 1078.62,-1226.7 L1079.22,-1228.44 L1077.97,-1229.79 C1071.11,-1237.17 1060.22,-1246.56 1046.42,-1257.12 C1005.05,-1288.81 937.539,-1330.99 876.826,-1357.02 C836.637,-1374.25 734.279,-1420.25 638.176,-1464.32 C590.119,-1486.36 543.632,-1507.92 507.242,-1525.16 C489.051,-1533.78 473.385,-1541.32 461.33,-1547.3 C455.289,-1550.29 450.173,-1552.88 446.089,-1555.03 C442.015,-1557.16 438.957,-1558.86 437.173,-1559.97 C405.997,-1579.47 381.753,-1581.86 381.409,-1581.9 L381.216,-1581.91 L-187.78,-1565.05 L-423.081,-1568.12 L-423.759,-1567.77 L-422.356,-1565.05 L-422.393,-1561.98 L-187.726,-1558.91 L381.205,-1575.77 L381.119,-1578.84 L380.818,-1575.79 C381.216,-1575.75 404.25,-1573.33 433.927,-1554.77 C435.974,-1553.49 439.086,-1551.77 443.24,-1549.6 C458.772,-1541.45 488.696,-1527.06 526.117,-1509.49 C638.359,-1456.78 817.736,-1375.68 874.402,-1351.38 C914.43,-1334.24 957.708,-1309.83 994.227,-1286.18 C1012.48,-1274.35 1029.06,-1262.71 1042.69,-1252.25 C1056.33,-1241.83 1067.05,-1232.55 1073.47,-1225.62 L1075.71,-1227.71 L1072.83,-1228.71 C1057.98,-1185.72 1021.68,-1075.57 984.994,-954.777 C948.314,-833.963 911.248,-702.589 894.835,-616.998 C878.75,-533.047 863.411,-446.618 852.077,-369.836 C840.754,-293.037 833.434,-225.94 833.418,-180.398 C833.418,-178.845 833.434,-177.303 833.445,-175.803 C833.471,-173.659 833.487,-171.412 833.487,-169.118 C833.487,-122.877 828.602,-46.4928 823.212,35.8357 C817.832,118.18 811.942,206.506 809.948,276.92 C805.864,420.929 789.505,646.837 781.33,763.367 C779.6,787.981 778.912,811.273 778.923,833.92 C778.923,918.85 788.473,994.546 788.473,1096.83 C788.473,1114.13 788.457,1131.89 788.457,1149.85 C788.457,1208.21 788.65,1268.6 790.273,1321.96 C791.101,1348.65 792.267,1373.58 793.976,1395.64 C795.669,1417.69 797.883,1436.87 800.796,1452.11 C807.39,1486.6 809.427,1521.41 809.427,1559.12 C809.427,1596.84 807.39,1637.45 805.848,1683.48 L808.916,1683.58 L807.03,1681.17 C788.87,1695.3 757.13,1715.62 710.599,1735.59 C664.058,1755.55 602.711,1775.15 525.262,1787.9 L525.279,1787.9 C448.26,1800.09 365.985,1802.94 270.296,1802.94 C185.839,1802.94 90.9192,1800.72 -20.0111,1800.72 C-46.071,1800.72 -72.9961,1800.84 -100.894,1801.14 C-131.124,1801.47 -159.135,1801.64 -185.205,1801.64 C-293.357,1801.64 -368.049,1798.81 -428.547,1793.26 C-489.029,1787.7 -535.307,1779.43 -586.803,1768.5 C-644.233,1756.31 -698.233,1735.1 -737.831,1716.96 C-757.641,1707.89 -773.833,1699.58 -785.087,1693.54 C-790.703,1690.53 -795.088,1688.08 -798.06,1686.39 C-799.549,1685.53 -800.678,1684.87 -801.446,1684.44 C-801.817,1684.22 -802.107,1684.05 -802.301,1683.94 C-802.494,1683.81 -802.575,1683.78 -802.575,1683.78 L-804.155,1686.4 L-801.102,1686.11 L-801.102,1686.07 C-801.183,1685.2 -802.698,1667.2 -804.913,1574.4 C-804.993,1570.94 -805.036,1567.53 -805.036,1564.18 C-805.036,1523.79 -799.302,1489.96 -793.508,1457.21 C-787.715,1424.45 -781.868,1392.73 -781.868,1356.85 C-781.868,1349.36 -782.131,1341.68 -782.695,1333.77 C-784.732,1305.29 -785.404,1267.62 -785.404,1223.89 C-785.404,1136.42 -782.679,1024.64 -782.679,912.836 C-782.679,745.1 -788.817,507.879 -823.583,-109.571 L-823.583,-109.614 C-846.09,-428.775 -900.107,-690.717 -951.684,-881.816 C-977.47,-977.354 -1002.63,-1055.2 -1022.95,-1113.6 C-1043.25,-1171.99 -1058.71,-1211.02 -1065,-1228.72 L-1067.89,-1227.71 L-1065.34,-1225.99 C-1062.21,-1230.67 -1057.51,-1235.77 -1051.36,-1241.19 C-1040.62,-1250.7 -1025.46,-1261.2 -1006.47,-1272.63 C-949.523,-1306.96 -858.322,-1349.72 -747.639,-1402.04 C-563.597,-1488.69 -420.964,-1562.31 -420.937,-1562.32 L-422.356,-1565.05 L-422.393,-1561.98 L-422.356,-1565.05 Z " fill="#000000" fill-opacity="1.00" />			<path d="M-804.155,1609.6 C-804.155,1609.6 -647.753,1694.7 -517.932,1707.99 C-388.111,1721.28 -300.199,1733.54 -72.2382,1726.38 C133.226,1722.3 385.714,1742.74 520.657,1715.14 C655.583,1687.54 757.802,1651.76 808.916,1606.78 L-804.155,1609.6 Z " fill="#636363" fill-opacity="1.00" />			<path d="M-805.617,1612.29 C-805.59,1612.3 -799.99,1615.36 -790.053,1620.37 L-787.29,1614.9 C-792.229,1612.41 -796.083,1610.4 -798.695,1609.02 C-800,1608.34 -801.005,1607.8 -801.683,1607.44 C-802.01,1607.26 -802.274,1607.13 -802.435,1607.05 C-802.602,1606.95 -802.682,1606.91 -802.682,1606.91 L-805.617,1612.29 Z M-774.414,1628.11 C-769.625,1630.44 -764.353,1632.95 -758.656,1635.59 L-756.071,1630.03 C-761.725,1627.4 -766.97,1624.9 -771.726,1622.59 L-774.414,1628.11 Z M-742.807,1642.86 C-737.718,1645.14 -732.392,1647.49 -726.862,1649.89 L-724.427,1644.26 C-729.931,1641.88 -735.23,1639.54 -740.292,1637.26 L-742.807,1642.86 Z M-710.809,1656.68 C-705.553,1658.85 -700.173,1661.05 -694.643,1663.23 L-692.386,1657.52 C-697.873,1655.35 -703.242,1653.17 -708.455,1651.01 L-710.809,1656.68 Z M-678.391,1669.52 C-673.028,1671.55 -667.568,1673.56 -662.021,1675.55 L-659.958,1669.77 C-665.461,1667.8 -670.884,1665.8 -676.22,1663.78 L-678.391,1669.52 Z M-645.555,1681.27 C-640.078,1683.11 -634.548,1684.91 -628.959,1686.68 L-627.132,1680.81 C-632.662,1679.08 -638.149,1677.29 -643.598,1675.45 L-645.555,1681.27 Z M-612.288,1691.71 C-606.699,1693.34 -601.088,1694.89 -595.461,1696.38 L-593.903,1690.44 C-599.476,1688.97 -605.033,1687.44 -610.579,1685.82 L-612.288,1691.71 Z M-578.494,1700.61 C-572.814,1701.95 -567.117,1703.2 -561.437,1704.34 L-560.211,1698.33 C-565.838,1697.2 -571.465,1695.96 -577.092,1694.64 L-578.494,1700.61 Z M-544.239,1707.52 C-538.429,1708.48 -532.652,1709.34 -526.918,1710.05 L-526.16,1703.96 C-531.814,1703.26 -537.51,1702.41 -543.234,1701.47 L-544.239,1707.52 Z M-509.596,1711.92 C-503.776,1712.53 -498.026,1713.13 -492.34,1713.73 L-491.711,1707.62 C-497.391,1707.02 -503.142,1706.43 -508.962,1705.83 L-509.596,1711.92 Z M-475.088,1715.53 C-469.295,1716.13 -463.544,1716.72 -457.821,1717.32 L-457.192,1711.22 C-462.915,1710.63 -468.65,1710.04 -474.443,1709.43 L-475.088,1715.53 Z M-440.542,1719.08 C-434.792,1719.65 -429.025,1720.22 -423.264,1720.78 L-422.684,1714.67 C-428.434,1714.12 -434.185,1713.56 -439.935,1712.98 L-440.542,1719.08 Z M-405.98,1722.39 C-400.246,1722.9 -394.479,1723.41 -388.675,1723.89 L-388.154,1717.78 C-393.958,1717.3 -399.709,1716.79 -405.416,1716.28 L-405.98,1722.39 Z M-371.354,1725.28 C-365.641,1725.72 -359.864,1726.14 -354.017,1726.53 L-353.603,1720.41 C-359.439,1720.01 -365.19,1719.6 -370.886,1719.18 L-371.354,1725.28 Z M-336.685,1727.65 C-330.988,1727.98 -325.21,1728.31 -319.32,1728.61 L-319.019,1722.48 C-324.877,1722.19 -330.644,1721.86 -336.314,1721.52 L-336.685,1727.65 Z M-301.972,1729.42 C-296.286,1729.67 -290.498,1729.89 -284.608,1730.1 L-284.388,1723.97 C-290.262,1723.77 -296.039,1723.53 -301.709,1723.3 L-301.972,1729.42 Z M-267.233,1730.63 C-261.547,1730.78 -255.77,1730.92 -249.869,1731.05 L-249.745,1724.91 C-255.635,1724.8 -261.396,1724.66 -267.066,1724.51 L-267.233,1730.63 Z M-232.494,1731.34 C-226.808,1731.4 -221.019,1731.46 -215.113,1731.5 L-215.076,1725.37 C-220.96,1725.32 -226.743,1725.27 -232.408,1725.2 L-232.494,1731.34 Z M-197.738,1731.56 C-197.077,1731.57 -196.416,1731.57 -195.76,1731.57 C-190.709,1731.57 -185.576,1731.56 -180.363,1731.53 L-180.39,1725.39 C-185.603,1725.42 -190.725,1725.43 -195.76,1725.43 C-196.416,1725.43 -197.077,1725.43 -197.738,1725.43 L-197.738,1731.56 Z M-162.988,1731.39 C-157.291,1731.34 -151.514,1731.27 -145.608,1731.18 L-145.704,1725.05 C-151.595,1725.13 -157.372,1725.2 -163.053,1725.27 L-162.988,1731.39 Z M-128.233,1730.88 C-122.552,1730.77 -116.759,1730.65 -110.868,1730.51 L-111.008,1724.39 C-116.898,1724.52 -122.676,1724.64 -128.356,1724.74 L-128.233,1730.88 Z M-93.4934,1730.07 C-87.7967,1729.92 -82.0194,1729.75 -76.1292,1729.57 L-76.3226,1723.44 C-82.1967,1723.61 -87.9794,1723.8 -93.6601,1723.95 L-93.4934,1730.07 Z M-58.824,1729.21 C-53.0735,1729.13 -47.2962,1729.06 -41.4866,1729.01 L-41.5458,1722.89 C-47.3607,1722.93 -53.1542,1723 -58.9208,1723.09 L-58.824,1729.21 Z M-24.1385,1728.91 C-19.7907,1728.9 -15.4321,1728.89 -11.0414,1728.89 C-9.63871,1728.89 -8.21992,1728.89 -6.80647,1728.89 L-6.79037,1722.75 C-8.20916,1722.75 -9.63871,1722.75 -11.0414,1722.75 C-15.4321,1722.75 -19.8068,1722.77 -24.1546,1722.78 L-24.1385,1728.91 Z M10.5471,1728.94 C16.3082,1728.97 22.0856,1729.01 27.8952,1729.06 L27.9489,1722.93 C22.1447,1722.87 16.3513,1722.85 10.574,1722.8 L10.5471,1728.94 Z M45.2434,1729.24 C51.0207,1729.3 56.798,1729.38 62.5915,1729.46 L62.6722,1723.33 C56.884,1723.24 51.0906,1723.17 45.3133,1723.11 L45.2434,1729.24 Z M79.9558,1729.71 C85.7332,1729.81 91.5105,1729.9 97.3039,1730.02 L97.4114,1723.88 C91.6234,1723.77 85.8298,1723.67 80.0525,1723.59 L79.9396,1729.71 L79.9558,1729.71 Z M114.668,1730.32 C120.446,1730.43 126.239,1730.54 132.027,1730.65 L132.14,1724.51 C126.363,1724.4 120.569,1724.29 114.776,1724.18 L114.668,1730.32 Z M149.391,1730.98 C155.185,1731.08 160.978,1731.2 166.756,1731.31 L166.863,1725.18 C161.086,1725.08 155.308,1724.96 149.504,1724.84 L149.391,1730.98 Z M184.12,1731.64 C189.924,1731.75 195.718,1731.84 201.495,1731.94 L201.602,1725.8 C195.825,1725.71 190.032,1725.61 184.227,1725.5 L184.12,1731.64 Z M218.87,1732.23 C224.674,1732.31 230.468,1732.4 236.245,1732.48 L236.331,1726.34 C230.564,1726.26 224.771,1726.18 218.967,1726.09 L218.87,1732.23 Z M253.625,1732.68 C259.446,1732.74 265.234,1732.79 271,1732.84 L271.043,1726.7 C265.293,1726.66 259.499,1726.6 253.695,1726.55 L253.625,1732.68 Z M288.375,1732.92 C292.202,1732.93 296.028,1732.93 299.823,1732.93 C301.806,1732.93 303.783,1732.93 305.756,1732.93 L305.74,1726.8 C303.773,1726.8 301.806,1726.8 299.823,1726.8 C296.028,1726.8 292.218,1726.8 288.392,1726.78 L288.375,1732.92 Z M323.131,1732.85 C328.978,1732.8 334.771,1732.75 340.522,1732.67 L340.436,1726.55 C334.702,1726.61 328.924,1726.68 323.088,1726.73 L323.131,1732.85 Z M357.897,1732.38 C363.76,1732.26 369.548,1732.11 375.288,1731.94 L375.111,1725.8 C369.387,1725.98 363.604,1726.12 357.773,1726.24 L357.897,1732.38 Z M392.679,1731.34 C398.537,1731.12 404.347,1730.85 410.054,1730.55 L409.737,1724.43 C404.057,1724.72 398.279,1724.98 392.432,1725.21 L392.679,1731.34 Z M427.429,1729.56 C433.319,1729.18 439.113,1728.76 444.794,1728.3 L444.31,1722.19 C438.645,1722.64 432.895,1723.05 427.031,1723.44 L427.429,1729.56 Z M462.158,1726.74 C468.059,1726.15 473.836,1725.52 479.479,1724.81 L478.732,1718.73 C473.137,1719.42 467.398,1720.05 461.534,1720.63 L462.158,1726.74 Z M496.774,1722.46 C502.685,1721.57 508.425,1720.6 513.998,1719.57 L512.869,1713.53 C507.377,1714.56 501.696,1715.52 495.849,1716.39 L496.774,1722.46 Z M531.083,1716.11 C536.806,1714.91 542.476,1713.68 548.087,1712.46 L546.77,1706.46 C541.181,1707.7 535.527,1708.91 529.82,1710.1 L531.083,1716.11 Z M565.054,1708.64 C570.777,1707.31 576.415,1705.98 581.988,1704.62 L580.542,1698.66 C574.985,1700.01 569.374,1701.34 563.678,1702.65 L565.054,1708.64 Z M598.869,1700.42 C604.565,1698.96 610.181,1697.49 615.712,1695.99 L614.115,1690.07 C608.612,1691.56 603.023,1693.02 597.358,1694.48 L598.869,1700.42 Z M632.479,1691.34 C638.138,1689.72 643.706,1688.08 649.182,1686.41 L647.409,1680.56 C641.959,1682.21 636.429,1683.83 630.792,1685.44 L632.479,1691.34 Z M665.805,1681.21 C671.432,1679.4 676.935,1677.56 682.342,1675.7 L680.332,1669.89 C674.979,1671.75 669.503,1673.58 663.919,1675.38 L665.805,1681.21 Z M698.755,1669.81 C704.312,1667.74 709.734,1665.65 715.017,1663.52 L712.733,1657.84 C707.504,1659.95 702.124,1662.02 696.61,1664.06 L698.755,1669.81 Z M731.113,1656.78 C736.59,1654.38 741.873,1651.96 747.005,1649.49 L744.334,1643.97 C739.287,1646.39 734.058,1648.8 728.663,1651.15 L731.113,1656.78 Z M762.606,1641.59 C767.905,1638.74 772.979,1635.87 777.837,1632.93 L774.672,1627.68 C769.91,1630.56 764.934,1633.39 759.704,1636.17 L762.606,1641.59 Z M792.573,1623.39 C797.566,1619.92 802.258,1616.39 806.616,1612.76 L802.709,1608.05 C798.485,1611.53 793.933,1614.97 789.075,1618.35 L792.573,1623.39 Z " fill="#000000" fill-opacity="1.00" />			<path d="M-804.155,1590.56 C-804.155,1590.56 -647.753,1675.67 -517.932,1688.96 C-388.111,1702.25 -300.199,1714.51 -72.2382,1707.35 C133.226,1703.27 385.714,1723.71 520.657,1696.11 C655.583,1668.52 757.802,1632.73 808.916,1587.75 L-804.155,1590.56 Z " fill="#636363" fill-opacity="1.00" />			<path d="M-805.617,1593.26 C-805.59,1593.27 -799.99,1596.31 -790.053,1601.35 L-787.29,1595.87 C-792.229,1593.37 -796.083,1591.38 -798.695,1590 C-800,1589.31 -801.005,1588.77 -801.683,1588.41 C-802.01,1588.24 -802.274,1588.1 -802.435,1588 C-802.602,1587.92 -802.682,1587.88 -802.682,1587.88 L-805.617,1593.26 Z M-774.414,1609.08 C-769.625,1611.41 -764.353,1613.91 -758.656,1616.56 L-756.071,1611.01 C-761.725,1608.36 -766.97,1605.88 -771.726,1603.56 L-774.414,1609.08 Z M-742.807,1623.83 C-737.718,1626.11 -732.392,1628.46 -726.862,1630.86 L-724.427,1625.22 C-729.931,1622.84 -735.23,1620.5 -740.292,1618.23 L-742.807,1623.83 Z M-710.809,1637.66 C-705.553,1639.83 -700.173,1642.02 -694.643,1644.2 L-692.386,1638.5 C-697.873,1636.32 -703.242,1634.15 -708.455,1631.99 L-710.809,1637.66 Z M-678.391,1650.49 C-673.028,1652.51 -667.568,1654.54 -662.021,1656.52 L-659.958,1650.74 C-665.461,1648.77 -670.884,1646.76 -676.22,1644.75 L-678.391,1650.49 Z M-645.555,1662.24 C-640.078,1664.08 -634.548,1665.89 -628.959,1667.64 L-627.132,1661.79 C-632.662,1660.05 -638.149,1658.25 -643.598,1656.42 L-645.555,1662.24 Z M-612.288,1672.68 C-606.699,1674.31 -601.088,1675.86 -595.461,1677.35 L-593.903,1671.42 C-599.476,1669.95 -605.033,1668.4 -610.579,1666.8 L-612.288,1672.68 Z M-578.494,1681.59 C-572.814,1682.92 -567.117,1684.16 -561.437,1685.31 L-560.211,1679.3 C-565.838,1678.16 -571.465,1676.93 -577.092,1675.62 L-578.494,1681.59 Z M-544.239,1688.49 C-538.429,1689.46 -532.652,1690.29 -526.918,1691.03 L-526.16,1684.93 C-531.814,1684.23 -537.51,1683.39 -543.234,1682.44 L-544.239,1688.49 Z M-509.596,1692.9 C-503.776,1693.5 -498.026,1694.09 -492.34,1694.7 L-491.711,1688.59 C-497.391,1688 -503.142,1687.39 -508.962,1686.8 L-509.596,1692.9 Z M-475.088,1696.5 C-469.284,1697.1 -463.544,1697.69 -457.821,1698.29 L-457.192,1692.19 C-462.915,1691.6 -468.65,1691 -474.443,1690.39 L-475.088,1696.5 Z M-440.542,1700.05 C-434.792,1700.63 -429.025,1701.19 -423.264,1701.74 L-422.684,1695.65 C-428.434,1695.08 -434.185,1694.52 -439.935,1693.94 L-440.542,1700.05 Z M-405.98,1703.36 C-400.246,1703.87 -394.479,1704.39 -388.675,1704.86 L-388.154,1698.75 C-393.958,1698.27 -399.709,1697.76 -405.416,1697.25 L-405.98,1703.36 Z M-371.354,1706.26 C-365.641,1706.7 -359.864,1707.1 -354.017,1707.51 L-353.603,1701.38 C-359.439,1700.98 -365.19,1700.57 -370.886,1700.13 L-371.354,1706.26 Z M-336.685,1708.6 C-330.988,1708.95 -325.21,1709.28 -319.32,1709.57 L-319.019,1703.44 C-324.877,1703.14 -330.644,1702.83 -336.314,1702.48 L-336.685,1708.6 Z M-301.972,1710.39 C-296.286,1710.64 -290.498,1710.86 -284.608,1711.07 L-284.388,1704.93 C-290.262,1704.73 -296.039,1704.51 -301.709,1704.26 L-301.972,1710.39 Z M-267.233,1711.61 C-261.547,1711.76 -255.77,1711.89 -249.869,1712.02 L-249.745,1705.88 C-255.635,1705.76 -261.396,1705.63 -267.066,1705.47 L-267.233,1711.61 Z M-232.494,1712.3 C-226.808,1712.38 -221.019,1712.43 -215.113,1712.47 L-215.076,1706.34 C-220.96,1706.29 -226.743,1706.24 -232.408,1706.17 L-232.494,1712.3 Z M-197.738,1712.53 C-197.077,1712.53 -196.416,1712.53 -195.76,1712.53 C-190.709,1712.53 -185.576,1712.51 -180.363,1712.5 L-180.39,1706.36 C-185.603,1706.39 -190.725,1706.41 -195.76,1706.41 C-196.416,1706.41 -197.077,1706.41 -197.738,1706.39 L-197.738,1712.53 Z M-162.988,1712.36 C-157.291,1712.31 -151.514,1712.24 -145.608,1712.14 L-145.704,1706.02 C-151.595,1706.11 -157.372,1706.17 -163.053,1706.23 L-162.988,1712.36 Z M-128.233,1711.86 C-122.552,1711.74 -116.759,1711.62 -110.868,1711.48 L-111.008,1705.35 C-116.898,1705.48 -122.676,1705.61 -128.356,1705.72 L-128.233,1711.86 Z M-93.4934,1711.04 C-87.7967,1710.89 -82.0194,1710.73 -76.1292,1710.54 L-76.3226,1704.41 C-82.1967,1704.59 -87.9794,1704.76 -93.6601,1704.92 L-93.4934,1711.04 Z M-58.824,1710.19 C-53.0735,1710.1 -47.2962,1710.04 -41.4866,1709.98 L-41.5458,1703.86 C-47.3607,1703.9 -53.1542,1703.97 -58.9208,1704.05 L-58.824,1710.19 Z M-24.1385,1709.89 C-19.7907,1709.86 -15.4321,1709.86 -11.0414,1709.86 C-9.63871,1709.86 -8.21992,1709.86 -6.80647,1709.86 L-6.79037,1703.72 C-8.20916,1703.72 -9.63871,1703.72 -11.0414,1703.72 C-15.4321,1703.72 -19.8068,1703.74 -24.1546,1703.75 L-24.1385,1709.89 Z M10.5471,1709.92 C16.3082,1709.94 22.0856,1709.98 27.8952,1710.04 L27.9489,1703.9 C22.1447,1703.85 16.3513,1703.81 10.574,1703.78 L10.5471,1709.92 Z M45.2434,1710.2 C51.0207,1710.27 56.798,1710.36 62.5915,1710.42 L62.6722,1704.3 C56.884,1704.22 51.0906,1704.13 45.3133,1704.08 L45.2434,1710.2 Z M79.9558,1710.68 C85.7332,1710.78 91.5105,1710.88 97.3039,1710.97 L97.4114,1704.85 C91.6234,1704.74 85.8298,1704.64 80.0525,1704.56 L79.9558,1710.68 Z M114.668,1711.29 C120.446,1711.4 126.239,1711.51 132.027,1711.62 L132.14,1705.48 C126.363,1705.37 120.569,1705.26 114.776,1705.15 L114.668,1711.29 Z M149.391,1711.95 C155.185,1712.06 160.978,1712.17 166.756,1712.28 L166.863,1706.14 C161.086,1706.04 155.308,1705.92 149.504,1705.82 L149.391,1711.95 Z M184.12,1712.61 C189.924,1712.7 195.718,1712.82 201.495,1712.91 L201.602,1706.78 C195.825,1706.68 190.032,1706.58 184.227,1706.48 L184.12,1712.61 Z M218.87,1713.19 C224.674,1713.29 230.468,1713.37 236.245,1713.44 L236.331,1707.31 C230.564,1707.23 224.771,1707.15 218.967,1707.07 L218.87,1713.19 Z M253.625,1713.64 C259.446,1713.71 265.234,1713.75 271,1713.8 L271.043,1707.67 C265.293,1707.63 259.499,1707.57 253.695,1707.52 L253.625,1713.64 Z M288.375,1713.89 C292.202,1713.9 296.028,1713.9 299.823,1713.9 C301.806,1713.9 303.783,1713.9 305.756,1713.9 L305.74,1707.77 C303.773,1707.77 301.806,1707.77 299.823,1707.77 C296.028,1707.77 292.218,1707.77 288.392,1707.76 L288.375,1713.89 Z M323.131,1713.82 C328.978,1713.78 334.771,1713.73 340.522,1713.64 L340.436,1707.51 C334.702,1707.59 328.924,1707.64 323.088,1707.69 L323.131,1713.82 Z M357.897,1713.34 C363.76,1713.23 369.548,1713.08 375.288,1712.91 L375.111,1706.78 C369.398,1706.94 363.604,1707.09 357.773,1707.22 L357.913,1713.34 L357.897,1713.34 Z M392.679,1712.31 C398.537,1712.08 404.347,1711.81 410.054,1711.52 L409.737,1705.4 C404.057,1705.69 398.279,1705.95 392.432,1706.19 L392.679,1712.31 Z M427.429,1710.52 C433.319,1710.15 439.113,1709.72 444.794,1709.27 L444.31,1703.16 C438.645,1703.61 432.895,1704.03 427.031,1704.41 L427.429,1710.52 Z M462.158,1707.71 C468.059,1707.12 473.836,1706.48 479.479,1705.79 L478.732,1699.7 C473.137,1700.39 467.398,1701.03 461.534,1701.6 L462.158,1707.71 Z M496.774,1703.43 C502.685,1702.54 508.425,1701.57 513.998,1700.53 L512.869,1694.5 C507.377,1695.53 501.696,1696.49 495.849,1697.37 L496.774,1703.43 Z M531.083,1697.08 C536.806,1695.88 542.476,1694.66 548.087,1693.43 L546.77,1687.44 C541.181,1688.67 535.527,1689.88 529.82,1691.08 L531.083,1697.08 Z M565.054,1689.61 C570.777,1688.28 576.415,1686.95 581.988,1685.59 L580.542,1679.63 C574.985,1680.98 569.374,1682.31 563.678,1683.62 L565.054,1689.61 Z M598.869,1681.38 C604.565,1679.93 610.181,1678.46 615.712,1676.96 L614.115,1671.05 C608.612,1672.53 603.023,1673.99 597.358,1675.45 L598.869,1681.38 Z M632.479,1672.3 C638.138,1670.69 643.706,1669.05 649.182,1667.39 L647.409,1661.51 C641.959,1663.16 636.429,1664.8 630.792,1666.41 L632.479,1672.3 Z M665.805,1662.19 C671.432,1660.37 676.935,1658.53 682.342,1656.66 L680.332,1650.86 C674.979,1652.72 669.503,1654.55 663.919,1656.36 L665.805,1662.19 Z M698.755,1650.78 C704.312,1648.72 709.734,1646.63 715.017,1644.49 L712.733,1638.81 C707.504,1640.9 702.124,1642.98 696.61,1645.03 L698.755,1650.78 Z M731.113,1637.75 C736.59,1635.36 741.873,1632.92 747.005,1630.46 L744.334,1624.94 C739.287,1627.37 734.058,1629.76 728.663,1632.12 L731.113,1637.75 Z M762.606,1622.55 C767.905,1619.71 772.979,1616.84 777.837,1613.91 L774.672,1608.65 C769.91,1611.53 764.934,1614.35 759.704,1617.15 L762.606,1622.55 Z M792.573,1604.36 C797.566,1600.89 802.258,1597.35 806.616,1593.74 L802.709,1589.02 C798.485,1592.5 793.933,1595.94 789.075,1599.32 L792.573,1604.36 Z " fill="#000000" fill-opacity="1.00" />			<path d="M-487.18,-1530.04 C-487.18,-1530.04 -55.1104,-1478.45 492.329,-1525.92 C498.628,-1552.75 474.427,-1569.68 440.859,-1589.87 C407.303,-1610.03 356.027,-1664.16 341.113,-1684.33 C326.199,-1704.51 319.675,-1726.52 297.291,-1721.94 C274.924,-1717.35 173.301,-1685.25 40.0033,-1688 C-93.3162,-1690.75 -224.76,-1703.59 -254.603,-1713.69 C-284.431,-1723.77 -292.82,-1729.27 -304.009,-1716.44 C-315.193,-1703.59 -345.02,-1649.48 -386.047,-1622.88 C-427.058,-1596.28 -451.302,-1577.93 -469.01,-1564.18 C-486.729,-1550.42 -487.18,-1530.04 -487.18,-1530.04 Z " fill="#5e5e5e" fill-opacity="1.00" />			<path d="M-487.18,-1530.04 L-487.557,-1526.99 C-487.46,-1526.99 -284.651,-1502.78 19.1458,-1502.78 C158.898,-1502.78 320.008,-1507.89 492.587,-1522.86 L494.806,-1523.06 L495.311,-1525.21 C496.043,-1528.3 496.397,-1531.3 496.397,-1534.21 C496.397,-1540.28 494.833,-1545.95 492.055,-1551.18 C487.868,-1559.03 481.048,-1565.94 472.514,-1572.6 C463.985,-1579.27 453.709,-1585.71 442.439,-1592.49 C434.271,-1597.41 424.871,-1604.48 415.187,-1612.64 C400.671,-1624.88 385.494,-1639.54 372.59,-1653.01 C366.136,-1659.74 360.251,-1666.18 355.296,-1671.86 C350.33,-1677.55 346.299,-1682.47 343.574,-1686.16 C336.959,-1695.1 331.95,-1704.61 326.113,-1712.19 C323.2,-1715.97 320.046,-1719.32 316.262,-1721.73 C312.495,-1724.17 308.051,-1725.63 303.004,-1725.61 C300.994,-1725.61 298.887,-1725.39 296.689,-1724.94 C293.895,-1724.36 290.057,-1723.42 285.156,-1722.17 C268.082,-1717.86 238.174,-1710.06 198.851,-1703.3 C159.533,-1696.56 110.815,-1690.91 56.2229,-1690.91 C50.8862,-1690.91 45.5066,-1690.96 40.0571,-1691.07 C-26.5194,-1692.44 -92.6551,-1696.34 -145.828,-1701.14 C-172.409,-1703.55 -195.771,-1706.18 -214.291,-1708.83 C-223.551,-1710.17 -231.612,-1711.5 -238.244,-1712.81 C-244.876,-1714.11 -250.105,-1715.39 -253.609,-1716.59 C-262.305,-1719.52 -269.184,-1722.08 -274.95,-1723.94 C-280.728,-1725.78 -285.409,-1726.98 -289.81,-1726.99 C-292.917,-1727.01 -295.889,-1726.34 -298.629,-1724.89 C-301.365,-1723.44 -303.843,-1721.3 -306.32,-1718.45 C-307.846,-1716.7 -309.566,-1714.39 -311.56,-1711.6 C-315.042,-1706.71 -319.32,-1700.33 -324.367,-1693.1 C-331.923,-1682.29 -341.167,-1669.64 -351.846,-1657.55 C-362.508,-1645.46 -374.584,-1633.96 -387.713,-1625.44 C-428.805,-1598.81 -453.145,-1580.38 -470.891,-1566.6 C-480.334,-1559.26 -485.186,-1550.16 -487.653,-1542.94 C-490.115,-1535.71 -490.238,-1530.33 -490.249,-1530.11 L-490.319,-1527.32 L-487.557,-1526.99 L-487.18,-1530.04 L-484.117,-1529.97 L-484.982,-1529.99 L-484.117,-1529.96 L-484.117,-1529.97 L-484.982,-1529.99 L-484.117,-1529.96 C-484.117,-1530.06 -483.95,-1534.91 -481.736,-1541.25 C-479.506,-1547.61 -475.282,-1555.43 -467.14,-1561.76 C-449.458,-1575.49 -425.328,-1593.76 -384.381,-1620.31 C-363.357,-1633.94 -345.488,-1654.38 -331.402,-1672.96 C-324.356,-1682.26 -318.262,-1691.11 -313.253,-1698.4 C-310.748,-1702.05 -308.507,-1705.31 -306.567,-1708.03 C-304.627,-1710.76 -302.961,-1712.96 -301.698,-1714.42 C-299.538,-1716.89 -297.608,-1718.49 -295.765,-1719.47 C-293.922,-1720.43 -292.105,-1720.86 -289.81,-1720.86 C-286.591,-1720.87 -282.394,-1719.89 -276.837,-1718.11 C-271.274,-1716.32 -264.358,-1713.74 -255.576,-1710.77 C-251.631,-1709.44 -246.225,-1708.13 -239.443,-1706.78 C-215.721,-1702.12 -175.134,-1697.28 -125.798,-1693.27 C-76.4732,-1689.28 -18.4579,-1686.15 39.9334,-1684.93 C45.4098,-1684.82 50.8433,-1684.77 56.2229,-1684.77 C119.097,-1684.77 174.199,-1692.22 216.269,-1700.22 C237.293,-1704.22 255.071,-1708.36 268.92,-1711.78 C275.859,-1713.48 281.803,-1715.01 286.672,-1716.23 C291.53,-1717.47 295.34,-1718.41 297.909,-1718.93 C299.753,-1719.32 301.445,-1719.48 303.004,-1719.48 C306.911,-1719.47 310.017,-1718.45 312.946,-1716.57 C317.337,-1713.78 321.244,-1708.87 325.264,-1702.79 C329.295,-1696.72 333.433,-1689.57 338.652,-1682.51 C342.473,-1677.33 348.53,-1670.11 356,-1661.83 C367.2,-1649.42 381.614,-1634.65 396.404,-1621.04 C411.226,-1607.42 426.387,-1595 439.274,-1587.24 C454.22,-1578.25 467.193,-1569.96 476.217,-1561.37 C480.742,-1557.09 484.267,-1552.76 486.632,-1548.3 C489.013,-1543.83 490.249,-1539.23 490.265,-1534.21 C490.265,-1531.81 489.975,-1529.28 489.341,-1526.62 L492.329,-1525.92 L492.066,-1528.97 C319.691,-1514.03 158.748,-1508.9 19.1458,-1508.9 C-132.581,-1508.9 -259.102,-1514.95 -347.675,-1521 C-391.964,-1524.02 -426.757,-1527.05 -450.474,-1529.31 C-462.335,-1530.44 -471.428,-1531.39 -477.55,-1532.05 C-480.618,-1532.38 -482.929,-1532.65 -484.488,-1532.81 C-486.041,-1532.99 -486.826,-1533.09 -486.826,-1533.09 L-487.18,-1530.04 L-484.117,-1529.97 L-487.18,-1530.04 Z " fill="#000000" fill-opacity="1.00" />			<path d="M-511.714,-1515.28 C-511.698,-1515.28 -505.7,-1514.42 -494.403,-1512.99 L-493.635,-1519.06 C-499.262,-1519.78 -503.567,-1520.36 -506.458,-1520.74 C-507.914,-1520.93 -509.005,-1521.09 -509.747,-1521.2 C-510.478,-1521.29 -510.833,-1521.35 -510.833,-1521.35 L-511.714,-1515.28 Z M-477.125,-1510.86 C-471.912,-1510.25 -466.135,-1509.58 -459.831,-1508.89 L-459.159,-1514.96 C-465.447,-1515.68 -471.197,-1516.34 -476.394,-1516.96 L-477.125,-1510.86 Z M-442.552,-1507 C-437.076,-1506.41 -431.299,-1505.82 -425.242,-1505.21 L-424.624,-1511.3 C-430.681,-1511.91 -436.431,-1512.52 -441.907,-1513.09 L-442.552,-1507 Z M-407.937,-1503.51 C-402.364,-1502.98 -396.586,-1502.45 -390.626,-1501.89 L-390.062,-1508 C-396.022,-1508.55 -401.789,-1509.09 -407.356,-1509.61 L-407.937,-1503.51 Z M-373.305,-1500.37 C-367.678,-1499.88 -361.901,-1499.41 -355.973,-1498.92 L-355.478,-1505.03 C-361.39,-1505.52 -367.157,-1505.99 -372.784,-1506.48 L-373.305,-1500.37 Z M-338.652,-1497.56 C-332.982,-1497.12 -327.204,-1496.7 -321.314,-1496.27 L-320.874,-1502.38 C-326.748,-1502.8 -332.53,-1503.24 -338.184,-1503.67 L-338.652,-1497.56 Z M-303.966,-1495.06 C-298.285,-1494.67 -292.492,-1494.29 -286.618,-1493.91 L-286.231,-1500.04 C-292.105,-1500.41 -297.872,-1500.79 -303.552,-1501.17 L-303.966,-1495.06 Z M-269.27,-1492.85 C-263.573,-1492.51 -257.78,-1492.18 -251.916,-1491.87 L-251.588,-1497.99 C-257.436,-1498.3 -263.213,-1498.64 -268.91,-1498.98 L-269.27,-1492.85 Z M-234.557,-1490.96 C-228.834,-1490.67 -223.056,-1490.38 -217.193,-1490.12 L-216.919,-1496.24 C-222.766,-1496.51 -228.544,-1496.79 -234.251,-1497.08 L-234.557,-1490.96 Z M-199.829,-1489.35 C-194.105,-1489.11 -188.317,-1488.88 -182.47,-1488.66 L-182.234,-1494.78 C-188.07,-1495 -193.858,-1495.24 -199.582,-1495.48 L-199.829,-1489.35 Z M-165.09,-1488.04 C-159.355,-1487.86 -153.562,-1487.67 -147.731,-1487.5 L-147.548,-1493.64 C-153.384,-1493.81 -159.162,-1493.98 -164.896,-1494.18 L-165.09,-1488.04 Z M-130.35,-1487.03 C-124.6,-1486.9 -118.806,-1486.78 -112.975,-1486.65 L-112.852,-1492.79 C-118.672,-1492.91 -124.465,-1493.04 -130.2,-1493.17 L-130.35,-1487.03 Z M-95.6002,-1486.35 C-89.8336,-1486.25 -84.0402,-1486.18 -78.2091,-1486.11 L-78.1392,-1492.25 C-83.9757,-1492.32 -89.753,-1492.39 -95.5035,-1492.48 L-95.6002,-1486.35 Z M-60.8341,-1485.96 C-55.0836,-1485.92 -49.2901,-1485.89 -43.4537,-1485.88 L-43.4429,-1492.02 C-49.2632,-1492.03 -55.0406,-1492.06 -60.7911,-1492.1 L-60.8341,-1485.96 Z M-26.0787,-1485.89 C-25.1597,-1485.89 -24.2353,-1485.89 -23.3163,-1485.89 C-18.415,-1485.92 -13.5459,-1485.94 -8.7144,-1485.96 L-8.74126,-1492.1 C-13.5728,-1492.07 -18.4418,-1492.04 -23.3271,-1492.03 C-24.2515,-1492.03 -25.1704,-1492.03 -26.0948,-1492.03 L-26.0787,-1485.89 Z M8.66059,-1486.07 C14.4916,-1486.11 20.2852,-1486.16 26.0249,-1486.21 L25.9658,-1492.35 C20.2314,-1492.29 14.4379,-1492.24 8.61764,-1492.19 L8.66059,-1486.07 Z M43.3999,-1486.39 C49.231,-1486.46 55.0244,-1486.54 60.7641,-1486.63 L60.6782,-1492.75 C54.9438,-1492.68 49.1665,-1492.6 43.3193,-1492.53 L43.3999,-1486.39 Z M78.123,-1486.88 C83.9703,-1486.97 89.7637,-1487.08 95.5034,-1487.19 L95.3798,-1493.31 C89.6563,-1493.21 83.8627,-1493.1 78.0263,-1493 L78.123,-1486.88 Z M112.862,-1487.53 C118.71,-1487.66 124.503,-1487.78 130.227,-1487.92 L130.087,-1494.05 C124.353,-1493.91 118.575,-1493.78 112.739,-1493.66 L112.862,-1487.53 Z M147.591,-1488.35 C153.438,-1488.5 159.232,-1488.66 164.955,-1488.82 L164.789,-1494.94 C159.065,-1494.78 153.288,-1494.63 147.44,-1494.48 L147.591,-1488.35 Z M182.314,-1489.33 C188.177,-1489.53 193.955,-1489.7 199.678,-1489.9 L199.474,-1496.04 C193.761,-1495.84 187.984,-1495.65 182.121,-1495.47 L182.314,-1489.33 Z M217.043,-1490.52 C222.901,-1490.74 228.678,-1490.96 234.402,-1491.18 L234.154,-1497.3 C228.447,-1497.08 222.67,-1496.86 216.822,-1496.64 L217.043,-1490.52 Z M251.755,-1491.89 C257.629,-1492.14 263.406,-1492.39 269.114,-1492.65 L268.84,-1498.77 C263.132,-1498.52 257.35,-1498.26 251.492,-1498.01 L251.755,-1491.89 Z M286.462,-1493.46 C292.341,-1493.75 298.119,-1494.04 303.816,-1494.33 L303.498,-1500.45 C297.812,-1500.16 292.035,-1499.87 286.161,-1499.58 L286.462,-1493.46 Z M321.164,-1495.25 C327.049,-1495.58 332.831,-1495.91 338.512,-1496.24 L338.152,-1502.36 C332.471,-1502.03 326.705,-1501.7 320.831,-1501.37 L321.164,-1495.25 Z M355.849,-1497.27 C361.75,-1497.63 367.528,-1498 373.181,-1498.37 L372.784,-1504.49 C367.13,-1504.12 361.363,-1503.75 355.473,-1503.39 L355.849,-1497.27 Z M390.519,-1499.54 C396.436,-1499.95 402.213,-1500.36 407.851,-1500.77 L407.399,-1506.89 C401.772,-1506.48 396.006,-1506.06 390.105,-1505.67 L390.519,-1499.54 Z M425.172,-1502.08 C431.116,-1502.53 436.893,-1502.98 442.493,-1503.45 L441.999,-1509.56 C436.399,-1509.11 430.638,-1508.65 424.704,-1508.18 L425.172,-1502.08 Z M459.814,-1504.89 C465.801,-1505.4 471.568,-1505.91 477.125,-1506.42 L476.577,-1512.53 C471.031,-1512.02 465.264,-1511.51 459.293,-1511 L459.814,-1504.89 Z M494.419,-1508.03 C500.498,-1508.62 506.264,-1509.19 511.714,-1509.73 L511.107,-1515.85 C505.646,-1515.28 499.896,-1514.72 493.839,-1514.14 L494.419,-1508.03 Z " fill="#000000" fill-opacity="1.00" />		</g>	</svg>