<?xml version="1.0" encoding="utf-8" ?>	<!-- Generator: Assembly 2.4 - http://assemblyapp.co -->	<svg version="1.1" xmlns="http://www.w3.org/2000/svg" xmlns:xlink="http://www.w3.org/1999/xlink" width="4096.00" height="4096.00" viewBox="0 0 4096.0 4096.0">		<g id="document" transform="scale(1.0 1.0) translate(2048.0 2048.0)">			<path d="M1030.82,-1229.73 L946.914,-935.424 L875.329,-583.618 L832.23,-264.167 L826.068,-122.519 L855.315,-75.562 L925.362,-72.4808 C925.362,-72.4808 1103.95,-112.515 1142.46,-127.144 C1180.93,-141.761 1318.73,-182.568 1337.98,-202.587 C1357.22,-222.585 1369.53,-251.071 1369.53,-259.537 C1369.53,-268.01 1371.85,-283.41 1357.98,-297.267 C1344.13,-311.119 1327.96,-361.929 1314.88,-441.209 C1301.79,-520.5 1277.15,-592.086 1253.3,-729.881 C1229.42,-867.676 1198.64,-976.214 1167.08,-1073.97 C1135.52,-1171.74 1077.01,-1225.63 1077.01,-1225.63 L1030.82,-1229.73 Z " fill="#636363" fill-opacity="1.00" />			<path d="M1030.82,-1229.73 L1030.55,-1226.67 L1076.74,-1222.56 L1077.01,-1225.63 L1074.92,-1223.37 L1074.95,-1223.34 C1076.52,-1221.9 1133.33,-1168.53 1164.16,-1073.04 C1195.67,-975.345 1226.43,-866.975 1250.25,-729.358 C1262.2,-660.368 1274.35,-607.944 1285.14,-562.897 C1295.91,-517.834 1305.32,-480.191 1311.83,-440.712 C1318.4,-400.97 1325.74,-368.34 1333.2,-343.804 C1336.93,-331.538 1340.7,-321.291 1344.46,-313.165 C1348.21,-305.027 1351.92,-299.005 1355.81,-295.082 C1360.64,-290.237 1363.29,-285.315 1364.79,-280.551 C1366.27,-275.801 1366.6,-271.183 1366.6,-267.055 C1366.6,-264.308 1366.47,-261.794 1366.45,-259.537 C1366.47,-258.847 1366.31,-257.66 1365.96,-256.171 C1365.37,-253.569 1364.21,-250.062 1362.54,-246.058 C1357.55,-234.014 1348.02,-217.464 1335.75,-204.713 C1334.77,-203.688 1333.27,-202.457 1331.3,-201.146 C1327.63,-198.659 1322.4,-195.831 1316.05,-192.831 C1304.97,-187.57 1290.44,-181.752 1274.44,-175.811 C1250.46,-166.886 1223.13,-157.702 1198.85,-149.618 C1174.55,-141.54 1153.32,-134.563 1141.34,-130.02 C1136.69,-128.25 1129.73,-126.027 1121.2,-123.556 C1091.34,-114.851 1042.18,-102.818 1000.52,-92.9808 C979.696,-88.0649 960.728,-83.6886 946.984,-80.548 C940.104,-78.9777 934.535,-77.7043 930.682,-76.8355 C926.83,-75.9667 924.698,-75.4972 924.687,-75.4972 L925.362,-72.4808 L925.502,-75.562 L857.068,-78.5731 L829.176,-123.345 L835.295,-263.892 L878.367,-583.106 L949.909,-934.69 L1033.79,-1228.89 L1030.82,-1229.73 L1030.55,-1226.67 L1030.82,-1229.73 L1027.86,-1230.58 L943.93,-936.142 L872.291,-584.142 L829.149,-264.432 L822.944,-121.704 L853.556,-72.5672 L925.637,-69.3888 L926.041,-69.486 C926.053,-69.486 970.7,-79.485 1020.18,-91.3403 C1044.94,-97.2545 1070.88,-103.633 1093.07,-109.449 C1104.15,-112.363 1114.32,-115.126 1122.93,-117.641 C1131.53,-120.14 1138.58,-122.379 1143.54,-124.256 C1153.05,-127.877 1168.88,-133.171 1187.5,-139.356 C1215.44,-148.652 1249.72,-159.979 1278.88,-170.879 C1293.45,-176.34 1306.75,-181.682 1317.38,-186.641 C1322.7,-189.129 1327.35,-191.52 1331.18,-193.797 C1335.02,-196.079 1338.05,-198.232 1340.19,-200.445 C1350.09,-210.746 1358.1,-223.087 1363.71,-233.982 C1366.51,-239.443 1368.69,-244.537 1370.22,-248.875 C1370.98,-251.044 1371.56,-253.019 1371.97,-254.8 C1372.37,-256.569 1372.61,-258.119 1372.61,-259.537 C1372.61,-261.528 1372.76,-264.114 1372.76,-267.055 C1372.76,-271.49 1372.43,-276.778 1370.66,-282.39 C1368.92,-287.997 1365.71,-293.895 1360.16,-299.437 C1357.14,-302.448 1353.61,-307.974 1350.04,-315.733 C1344.67,-327.394 1339.05,-344.084 1333.59,-365.248 C1328.14,-386.406 1322.81,-412.048 1317.92,-441.721 C1311.34,-481.519 1301.89,-519.313 1291.12,-564.322 C1280.35,-609.341 1268.25,-661.598 1256.33,-730.41 C1232.44,-868.367 1201.59,-977.083 1170.01,-1074.91 C1138.2,-1173.43 1079.32,-1227.67 1079.1,-1227.89 L1078.33,-1228.6 L1028.57,-1233.03 L1027.86,-1230.58 L1030.82,-1229.73 Z " fill="#000000" fill-opacity="1.00" />			<path d="M1357.73,-229.012 C1335.66,-205.404 1218.66,-171.02 1094.98,-134.579 C971.294,-98.1502 855.315,-75.562 855.315,-75.562 L888.161,4.48958 C888.161,4.48958 963.599,-13.9813 1076.5,-43.7518 C1189.41,-73.5061 1355.16,-128.417 1355.16,-128.417 L1357.73,-229.012 Z " fill="#5e5e5e" fill-opacity="1.00" />			<path d="M1357.73,-229.012 L1354.65,-229.093 L1352.09,-128.499 L1355.16,-128.417 L1354.2,-131.347 C1354.2,-131.347 1353.54,-131.137 1352.32,-130.722 C1333.72,-124.592 1181.41,-74.5854 1075.72,-46.7197 C1019.27,-31.8426 972.205,-19.7822 939.235,-11.4506 C922.75,-7.27939 909.794,-4.04711 900.966,-1.85088 C896.547,-0.744673 893.163,0.0809375 890.886,0.647529 C888.604,1.21412 887.432,1.50552 887.432,1.50552 L888.161,4.48958 L891.011,3.32941 L858.159,-76.7384 L855.315,-75.562 L855.908,-72.5402 C855.963,-72.551 972.001,-95.1392 1095.84,-131.622 C1157.69,-149.84 1217.87,-167.55 1265.46,-183.684 C1289.23,-191.752 1309.87,-199.436 1326.01,-206.602 C1334.08,-210.196 1341.04,-213.666 1346.74,-217.021 C1352.44,-220.378 1356.89,-223.61 1359.98,-226.912 L1357.73,-229.012 L1354.65,-229.093 L1357.73,-229.012 L1355.48,-231.111 C1353.06,-228.516 1349.01,-225.505 1343.61,-222.326 C1334.15,-216.746 1320.52,-210.595 1303.79,-204.06 C1253.55,-184.472 1175.26,-161.447 1094.1,-137.531 C1032.35,-119.34 972.481,-104.599 928.071,-94.4053 C905.871,-89.3114 887.524,-85.356 874.736,-82.6795 C868.341,-81.3359 863.339,-80.3161 859.929,-79.6254 C858.229,-79.28 856.929,-79.0156 856.043,-78.8536 C855.174,-78.6702 854.732,-78.5893 854.732,-78.5893 L851.041,-77.8716 L886.311,8.11038 L888.895,7.48443 C888.906,7.48443 964.36,-10.9974 1077.29,-40.7678 C1190.34,-70.576 1356.1,-125.487 1356.13,-125.503 L1358.18,-126.178 L1361.01,-237.036 L1355.48,-231.111 L1357.73,-229.012 Z " fill="#000000" fill-opacity="1.00" />			<path d="M-1030.84,-1231.46 L-1077.02,-1227.35 C-1077.02,-1227.35 -1135.53,-1173.46 -1167.09,-1075.7 C-1198.65,-977.941 -1229.44,-869.403 -1253.31,-731.608 C-1277.16,-593.812 -1301.8,-522.227 -1314.89,-442.936 C-1327.98,-363.656 -1344.14,-312.846 -1357.99,-298.994 C-1371.85,-285.137 -1369.54,-269.737 -1369.54,-261.264 C-1369.54,-252.798 -1357.22,-224.312 -1337.98,-204.314 C-1318.74,-184.294 -1180.94,-143.488 -1142.46,-128.87 C-1103.96,-114.242 -925.376,-74.2076 -925.376,-74.2076 L-855.324,-77.2888 L-826.071,-124.246 L-832.233,-265.894 L-875.338,-585.345 L-946.928,-937.151 L-1030.84,-1231.46 Z " fill="#636363" fill-opacity="1.00" />			<path d="M-1030.84,-1231.46 L-1031.11,-1234.53 L-1078.34,-1230.32 L-1079.11,-1229.62 C-1079.34,-1229.4 -1138.2,-1175.16 -1170.02,-1076.64 C-1201.61,-978.809 -1232.45,-870.094 -1256.34,-732.136 C-1268.26,-663.325 -1280.36,-611.068 -1291.13,-566.049 C-1301.9,-521.04 -1311.35,-483.245 -1317.92,-443.448 C-1324.46,-403.895 -1331.74,-371.475 -1339.09,-347.327 C-1342.77,-335.256 -1346.46,-325.241 -1350.05,-317.46 C-1353.61,-309.701 -1357.14,-304.174 -1360.17,-301.163 C-1365.72,-295.622 -1368.93,-289.724 -1370.67,-284.117 C-1372.43,-278.505 -1372.76,-273.217 -1372.76,-268.781 C-1372.76,-265.84 -1372.62,-263.255 -1372.62,-261.264 C-1372.62,-259.846 -1372.38,-258.296 -1371.98,-256.526 C-1371.26,-253.435 -1370,-249.662 -1368.23,-245.421 C-1362.95,-232.698 -1353.18,-215.694 -1340.2,-202.171 C-1338.76,-200.693 -1336.96,-199.257 -1334.76,-197.763 C-1330.65,-195 -1325.21,-192.07 -1318.7,-188.989 C-1307.33,-183.604 -1292.69,-177.732 -1276.6,-171.764 C-1252.46,-162.802 -1225.1,-153.601 -1200.79,-145.506 C-1176.51,-137.424 -1155.26,-130.435 -1143.54,-125.983 C-1138.59,-124.106 -1131.54,-121.867 -1122.94,-119.368 C-1092.83,-110.594 -1043.65,-98.5765 -1001.95,-88.7124 C-960.246,-78.8806 -926.056,-71.2128 -926.05,-71.2128 L-925.652,-71.1156 L-853.57,-74.294 L-822.958,-123.431 L-829.163,-266.159 L-872.3,-585.868 L-943.939,-937.869 L-1028.57,-1234.75 L-1031.11,-1234.53 L-1030.84,-1231.46 L-1033.8,-1230.62 L-949.923,-936.418 L-878.375,-584.832 L-835.299,-265.619 L-829.19,-125.072 L-857.083,-80.2998 L-925.511,-77.2888 L-925.376,-74.2076 L-924.702,-77.224 C-924.707,-77.224 -925.398,-77.3752 -926.714,-77.6611 C-936.584,-79.8897 -981.323,-90.0128 -1028.08,-101.285 C-1051.46,-106.924 -1075.35,-112.849 -1095.62,-118.224 C-1105.76,-120.901 -1114.99,-123.442 -1122.8,-125.735 C-1130.6,-128.029 -1136.99,-130.09 -1141.36,-131.747 C-1151.09,-135.449 -1166.93,-140.736 -1185.56,-146.926 C-1213.52,-156.224 -1247.74,-167.539 -1276.73,-178.38 C-1291.22,-183.798 -1304.4,-189.102 -1314.79,-193.953 C-1319.98,-196.382 -1324.47,-198.691 -1328.05,-200.817 C-1331.62,-202.932 -1334.31,-204.907 -1335.76,-206.439 C-1345.11,-216.148 -1352.87,-228.073 -1358.24,-238.53 C-1360.92,-243.748 -1363.01,-248.61 -1364.41,-252.62 C-1365.11,-254.621 -1365.63,-256.419 -1365.97,-257.898 C-1366.33,-259.387 -1366.47,-260.574 -1366.47,-261.264 C-1366.47,-263.521 -1366.61,-266.035 -1366.61,-268.781 C-1366.61,-272.91 -1366.29,-277.528 -1364.8,-282.277 C-1363.3,-287.042 -1360.66,-291.963 -1355.82,-296.808 C-1351.92,-300.731 -1348.22,-306.754 -1344.46,-314.892 C-1338.83,-327.076 -1333.17,-344.041 -1327.64,-365.436 C-1322.13,-386.822 -1316.76,-412.626 -1311.84,-442.439 C-1305.34,-481.917 -1295.92,-519.561 -1285.15,-564.624 C-1274.36,-609.671 -1262.22,-662.094 -1250.27,-731.084 C-1226.44,-868.701 -1195.69,-977.072 -1164.16,-1074.76 C-1148.5,-1123.26 -1126.14,-1160.89 -1107.72,-1186.39 C-1098.52,-1199.14 -1090.29,-1208.83 -1084.38,-1215.33 C-1081.42,-1218.58 -1079.05,-1221.05 -1077.41,-1222.67 C-1076.61,-1223.49 -1075.98,-1224.1 -1075.56,-1224.49 C-1075.35,-1224.7 -1075.19,-1224.85 -1075.09,-1224.95 L-1074.96,-1225.06 L-1074.93,-1225.09 L-1077.02,-1227.35 L-1076.75,-1224.29 L-1030.56,-1228.4 L-1030.84,-1231.46 L-1033.8,-1230.62 L-1030.84,-1231.46 Z " fill="#000000" fill-opacity="1.00" />			<path d="M-1357.74,-230.739 L-1355.17,-130.144 C-1355.17,-130.144 -1189.42,-75.2329 -1076.51,-45.4786 C-963.608,-15.7081 -888.17,2.76282 -888.17,2.76282 L-855.324,-77.2888 C-855.324,-77.2888 -971.308,-99.877 -1094.99,-136.306 C-1218.67,-172.747 -1335.67,-207.13 -1357.74,-230.739 Z " fill="#5e5e5e" fill-opacity="1.00" />			<path d="M-1357.74,-230.739 L-1360.81,-230.652 L-1358.19,-127.904 L-1356.13,-127.23 C-1356.11,-127.213 -1190.36,-72.3028 -1077.29,-42.4945 C-964.369,-12.724 -888.914,5.75766 -888.904,5.75766 L-886.325,6.38362 L-851.05,-79.5984 L-854.736,-80.3161 C-854.736,-80.3161 -855.183,-80.397 -856.057,-80.5804 C-869.202,-83.1759 -978.323,-105.154 -1094.11,-139.258 C-1155.95,-157.481 -1216.11,-175.175 -1263.48,-191.245 C-1287.16,-199.284 -1307.66,-206.909 -1323.51,-213.951 C-1331.44,-217.475 -1338.22,-220.859 -1343.62,-224.053 C-1349.04,-227.232 -1353.07,-230.242 -1355.49,-232.837 L-1361.02,-238.762 L-1360.81,-230.652 L-1357.74,-230.739 L-1359.99,-228.639 C-1356.9,-225.337 -1352.45,-222.105 -1346.75,-218.748 C-1336.78,-212.877 -1322.94,-206.645 -1306.03,-200.056 C-1255.34,-180.29 -1177.03,-157.276 -1095.86,-133.349 C-972.015,-96.8659 -855.965,-74.2777 -855.911,-74.267 L-855.324,-77.2888 L-858.172,-78.4652 L-891.019,1.60264 L-888.17,2.76281 L-887.436,-0.221246 C-887.441,-0.221246 -888.612,-0.512637 -890.895,-1.07923 C-906.868,-5.01301 -976.958,-22.4048 -1075.73,-48.4465 C-1132.09,-63.3128 -1201.73,-84.4764 -1257.25,-101.906 C-1285.03,-110.637 -1309.26,-118.429 -1326.55,-124.035 C-1335.21,-126.842 -1342.12,-129.092 -1346.87,-130.656 C-1349.25,-131.444 -1351.07,-132.038 -1352.32,-132.448 C-1353.56,-132.863 -1354.21,-133.074 -1354.21,-133.074 L-1355.17,-130.144 L-1352.1,-130.225 L-1354.66,-230.819 L-1357.74,-230.739 L-1359.99,-228.639 L-1357.74,-230.739 Z " fill="#000000" fill-opacity="1.00" />			<path d="M1075.31,-1227.35 C1048.62,-1256.09 955.214,-1319.74 874.39,-1354.37 C802.567,-1385.14 533.857,-1507.08 453.238,-1547.39 L277.508,-1648.33 L175.99,-1654.54 L-240.488,-1648.33 L-422.947,-1565.97 L-428.862,-1566.06 C-428.862,-1566.06 -572.042,-1492.15 -756.79,-1405.17 C-926.148,-1325.12 -1050.08,-1267.37 -1077.02,-1227.35 C-1051.62,-1155.76 -879.957,-744.952 -834.797,-104.49 C-799.899,515.444 -793.742,753.559 -793.742,921.897 C-793.742,1090.23 -799.899,1258.55 -793.742,1344.76 C-787.586,1430.98 -818.376,1489.99 -816.067,1586.22 C-813.758,1682.45 -812.219,1698.61 -812.219,1698.61 C-812.219,1698.61 -710.605,1759.42 -594.626,1784.05 C-478.647,1808.68 -388.315,1819.98 -106.066,1816.9 C176.185,1813.82 360.932,1829.21 523.113,1803.56 C679.115,1777.88 770.466,1724.53 807.419,1695.78 C810.483,1603.42 815.626,1532.59 802.281,1462.79 C788.937,1393 789.957,1237 789.957,1106.63 C789.957,976.284 774.567,889.045 782.774,772.041 C790.992,655.037 807.419,428.194 811.52,283.48 C815.626,138.761 836.153,-81.9025 835.128,-171.198 C834.092,-260.509 863.863,-442.175 896.714,-613.584 C929.55,-784.986 1045.54,-1141.14 1075.31,-1227.35 Z " fill="#636363" fill-opacity="1.00" />			<path d="M1075.31,-1227.35 L1077.56,-1229.44 C1070.66,-1236.86 1059.74,-1246.28 1045.89,-1256.89 C1004.34,-1288.7 936.553,-1331.06 875.593,-1357.19 C839.742,-1372.55 754.607,-1410.74 668.393,-1450.1 C582.179,-1489.46 494.832,-1530.04 454.609,-1550.14 L453.238,-1547.39 L454.77,-1550.06 L278.42,-1651.37 L176.06,-1657.63 L-241.179,-1651.4 L-423.595,-1569.08 L-429.59,-1569.15 L-430.27,-1568.81 C-430.281,-1568.81 -430.837,-1568.51 -431.927,-1567.94 C-448.309,-1559.52 -584.951,-1489.47 -758.101,-1407.95 L-758.107,-1407.95 C-842.783,-1367.93 -916.127,-1333.47 -971.756,-1303.97 C-999.569,-1289.21 -1022.96,-1275.71 -1041.17,-1263.32 C-1050.27,-1257.11 -1058.09,-1251.19 -1064.51,-1245.51 C-1070.94,-1239.83 -1076,-1234.39 -1079.57,-1229.07 L-1080.45,-1227.78 L-1079.92,-1226.32 C-1073.53,-1208.3 -1058.08,-1169.31 -1037.71,-1110.75 C-976.667,-935.171 -871.717,-584.282 -837.867,-104.269 L-834.797,-104.49 L-837.872,-104.313 C-802.976,515.595 -796.824,753.656 -796.824,921.897 C-796.819,1034.07 -799.56,1146.26 -799.56,1234.22 C-799.56,1278.19 -798.874,1316.09 -796.813,1344.98 C-796.258,1352.77 -796.004,1360.33 -796.004,1367.72 C-796.004,1403.07 -801.767,1434.47 -807.59,1467.4 C-813.406,1500.32 -819.272,1534.76 -819.272,1575.88 C-819.272,1579.31 -819.229,1582.78 -819.142,1586.29 C-816.833,1682.56 -815.301,1698.71 -815.284,1698.89 L-815.133,1700.45 L-813.8,1701.25 C-813.724,1701.28 -788.233,1716.53 -748.194,1734.88 C-708.155,1753.23 -653.579,1774.69 -595.262,1787.06 C-543.454,1798.07 -496.648,1806.43 -435.645,1812.04 C-374.642,1817.63 -299.452,1820.47 -190.747,1820.47 C-164.554,1820.47 -136.403,1820.31 -106.039,1819.98 C-78.0485,1819.67 -51.0302,1819.55 -24.8804,1819.55 C86.42,1819.55 181.683,1821.79 266.597,1821.79 C362.799,1821.79 445.727,1818.92 523.582,1806.59 L523.609,1806.59 C601.853,1793.72 663.931,1773.9 711.12,1753.65 C758.309,1733.4 790.594,1712.77 809.297,1698.21 L810.446,1697.33 L810.483,1695.89 C812.033,1649.73 814.078,1608.92 814.078,1570.83 C814.078,1532.74 812.033,1497.38 805.303,1462.22 C802.444,1447.27 800.237,1428.2 798.547,1406.2 C793.464,1340.15 793.022,1247.74 793.022,1159.89 C793.022,1141.86 793.038,1124.02 793.038,1106.63 C793.038,1003.52 783.438,927.438 783.449,842.66 C783.449,820.045 784.129,796.809 785.856,772.251 C794.058,655.241 810.483,428.416 814.601,283.578 C816.592,213.066 822.506,124.408 827.919,41.7337 C833.32,-40.962 838.236,-117.641 838.236,-164.458 C838.236,-166.795 838.225,-169.056 838.209,-171.241 C838.182,-172.73 838.182,-174.236 838.182,-175.784 C838.172,-220.875 845.477,-288.137 856.847,-365.091 C868.201,-442.051 883.591,-528.761 899.736,-613 C916.107,-698.454 953.298,-830.325 990.11,-951.516 C1026.91,-1072.71 1063.34,-1183.29 1078.2,-1226.35 L1078.81,-1228.09 L1077.56,-1229.44 L1075.31,-1227.35 L1072.38,-1228.37 C1057.48,-1185.19 1021.06,-1074.6 984.212,-953.313 C947.367,-832.008 910.155,-700.099 893.686,-614.161 C877.525,-529.868 862.125,-443.087 850.755,-365.993 C839.369,-288.882 832.02,-221.495 832.02,-175.784 C832.02,-174.225 832.036,-172.677 832.047,-171.17 C832.079,-169.018 832.079,-166.762 832.079,-164.458 C832.09,-118.029 827.185,-41.3343 821.772,41.329 C816.355,124.008 810.446,212.694 808.439,283.394 C804.337,427.989 787.912,654.815 779.71,771.82 C777.967,796.534 777.292,819.921 777.292,842.66 C777.292,927.945 786.892,1003.94 786.892,1106.63 C786.892,1124.01 786.865,1141.86 786.865,1159.89 C786.865,1218.49 787.059,1279.11 788.699,1332.69 C789.514,1359.49 790.701,1384.52 792.401,1406.66 C794.117,1428.81 796.324,1448.07 799.254,1463.37 C805.87,1498 807.931,1532.95 807.931,1570.83 C807.931,1608.7 805.87,1649.45 804.337,1695.68 L807.419,1695.78 L805.524,1693.36 C787.28,1707.55 755.421,1727.95 708.691,1747.99 C661.972,1768.03 600.374,1787.72 522.6,1800.51 L522.627,1800.51 C445.295,1812.75 362.686,1815.63 266.597,1815.63 C181.792,1815.63 86.5011,1813.4 -24.8804,1813.4 C-51.0463,1813.4 -78.0917,1813.52 -106.093,1813.82 C-136.446,1814.15 -164.581,1814.31 -190.747,1814.31 C-299.355,1814.31 -374.35,1811.47 -435.078,1805.91 C-495.817,1800.32 -542.289,1792.02 -593.983,1781.04 C-651.652,1768.8 -705.872,1747.51 -745.631,1729.29 C-765.51,1720.19 -781.785,1711.84 -793.074,1705.78 C-798.718,1702.76 -803.115,1700.3 -806.101,1698.59 C-807.595,1697.74 -808.733,1697.07 -809.494,1696.63 C-809.878,1696.41 -810.163,1696.25 -810.352,1696.13 C-810.547,1696.01 -810.638,1695.97 -810.638,1695.97 L-812.219,1698.61 L-809.154,1698.32 L-809.154,1698.28 C-809.235,1697.41 -810.751,1679.32 -812.985,1586.15 C-813.072,1582.68 -813.11,1579.26 -813.11,1575.88 C-813.11,1535.34 -807.342,1501.37 -801.524,1468.48 C-795.717,1435.59 -789.847,1403.75 -789.847,1367.72 C-789.847,1360.19 -790.106,1352.48 -790.672,1344.54 C-792.717,1315.94 -793.403,1278.12 -793.397,1234.22 C-793.397,1146.39 -790.662,1034.15 -790.662,921.897 C-790.662,753.478 -796.824,515.293 -831.72,-104.669 L-831.726,-104.685 L-831.726,-104.712 C-854.325,-425.172 -908.568,-688.179 -960.348,-880.055 C-986.239,-975.982 -1011.51,-1054.14 -1031.9,-1112.78 C-1052.28,-1171.41 -1067.82,-1210.6 -1074.12,-1228.38 L-1077.02,-1227.35 L-1074.47,-1225.63 C-1071.31,-1230.32 -1066.6,-1235.44 -1060.44,-1240.9 C-1049.64,-1250.44 -1034.42,-1260.98 -1015.36,-1272.45 C-958.18,-1306.92 -866.607,-1349.86 -755.478,-1402.39 C-570.678,-1489.39 -427.481,-1563.31 -427.454,-1563.33 L-428.862,-1566.06 L-428.899,-1562.98 L-422.311,-1562.89 L-239.797,-1645.26 L175.91,-1651.46 L276.596,-1645.31 L451.776,-1544.67 L451.857,-1544.63 C492.263,-1524.43 579.583,-1483.88 665.84,-1444.5 C752.082,-1405.13 837.2,-1366.95 873.176,-1351.54 C913.361,-1334.32 956.805,-1309.82 993.467,-1286.07 C1011.8,-1274.18 1028.45,-1262.5 1042.15,-1252 C1055.83,-1241.53 1066.58,-1232.22 1073.04,-1225.25 L1075.31,-1227.35 L1072.38,-1228.37 L1075.31,-1227.35 Z " fill="#000000" fill-opacity="1.00" />			<path d="M-812.219,1621.5 C-812.219,1621.5 -655.181,1706.93 -524.832,1720.28 C-394.478,1733.62 -306.202,1745.93 -77.3309,1738.75 C128.98,1734.65 382.495,1755.18 517.97,1727.47 C653.461,1699.76 756.101,1663.83 807.419,1618.67 L-812.219,1621.5 Z " fill="#636363" fill-opacity="1.00" />			<path d="M-813.687,1624.19 C-813.665,1624.2 -808.042,1627.27 -798.054,1632.31 L-795.281,1626.81 C-800.24,1624.32 -804.114,1622.3 -806.742,1620.92 C-808.058,1620.22 -809.063,1619.68 -809.731,1619.33 C-810.072,1619.15 -810.325,1619.01 -810.492,1618.93 C-810.665,1618.84 -810.746,1618.79 -810.746,1618.79 L-813.687,1624.19 Z M-782.357,1640.07 C-777.544,1642.41 -772.255,1644.94 -766.541,1647.59 L-763.94,1642.01 C-769.622,1639.37 -774.883,1636.86 -779.669,1634.53 L-782.357,1640.07 Z M-750.628,1654.88 C-745.517,1657.18 -740.17,1659.54 -734.607,1661.94 L-732.168,1656.29 C-737.698,1653.9 -743.019,1651.56 -748.103,1649.26 L-750.628,1654.88 Z M-718.489,1668.77 C-713.221,1670.95 -707.809,1673.15 -702.268,1675.35 L-700.002,1669.61 C-705.505,1667.43 -710.891,1665.25 -716.13,1663.08 L-718.489,1668.77 Z M-685.944,1681.65 C-680.554,1683.7 -675.077,1685.72 -669.513,1687.71 L-667.436,1681.91 C-672.961,1679.93 -678.411,1677.93 -683.77,1675.9 L-685.944,1681.65 Z M-652.974,1693.46 C-647.475,1695.31 -641.917,1697.12 -636.316,1698.88 L-634.47,1693 C-640.029,1691.26 -645.549,1689.46 -651.004,1687.62 L-652.974,1693.46 Z M-619.567,1703.94 C-613.965,1705.57 -608.331,1707.14 -602.682,1708.62 L-601.112,1702.67 C-606.708,1701.19 -612.292,1699.65 -617.856,1698.03 L-619.567,1703.94 Z M-585.646,1712.88 C-579.932,1714.21 -574.212,1715.47 -568.508,1716.62 L-567.283,1710.58 C-572.928,1709.46 -578.583,1708.21 -584.238,1706.88 L-585.646,1712.88 Z M-551.246,1719.81 C-545.418,1720.78 -539.618,1721.63 -533.86,1722.36 L-533.094,1716.23 C-538.771,1715.53 -544.485,1714.69 -550.237,1713.73 L-551.246,1719.81 Z M-516.468,1724.23 C-510.618,1724.84 -504.85,1725.45 -499.147,1726.04 L-498.499,1719.91 C-504.214,1719.32 -509.982,1718.72 -515.832,1718.11 L-516.468,1724.23 Z M-481.809,1727.85 C-475.992,1728.46 -470.218,1729.05 -464.471,1729.65 L-463.85,1723.53 C-469.586,1722.94 -475.361,1722.35 -481.172,1721.73 L-481.809,1727.85 Z M-447.138,1731.41 C-441.349,1732 -435.575,1732.56 -429.785,1733.13 L-429.191,1727 C-434.981,1726.44 -440.738,1725.88 -446.513,1725.3 L-447.138,1731.41 Z M-412.42,1734.75 C-406.662,1735.26 -400.888,1735.77 -395.044,1736.25 L-394.531,1730.12 C-400.349,1729.64 -406.122,1729.12 -411.869,1728.61 L-412.42,1734.75 Z M-377.653,1737.65 C-371.917,1738.09 -366.132,1738.5 -360.26,1738.9 L-359.829,1732.76 C-365.689,1732.36 -371.474,1731.95 -377.183,1731.51 L-377.653,1737.65 Z M-342.842,1740.02 C-337.123,1740.35 -331.316,1740.68 -325.418,1740.99 L-325.1,1734.83 C-330.987,1734.54 -336.777,1734.21 -342.48,1733.87 L-342.842,1740.02 Z M-307.989,1741.81 C-302.28,1742.06 -296.479,1742.28 -290.554,1742.48 L-290.348,1736.33 C-296.246,1736.13 -302.032,1735.89 -307.725,1735.66 L-307.989,1741.81 Z M-273.118,1743.02 C-267.415,1743.17 -261.598,1743.31 -255.673,1743.43 L-255.549,1737.28 C-261.463,1737.17 -267.264,1737.03 -272.952,1736.88 L-273.118,1743.02 Z M-238.238,1743.72 C-232.535,1743.79 -226.717,1743.85 -220.792,1743.88 L-220.749,1737.73 C-226.663,1737.69 -232.465,1737.64 -238.157,1737.57 L-238.238,1743.72 Z M-203.347,1743.94 C-202.683,1743.95 -202.019,1743.95 -201.356,1743.95 C-196.283,1743.95 -191.135,1743.94 -185.896,1743.91 L-185.923,1737.76 C-191.146,1737.79 -196.283,1737.8 -201.356,1737.8 C-202.019,1737.8 -202.683,1737.8 -203.347,1737.8 L-203.347,1743.94 Z M-168.45,1743.78 C-162.73,1743.72 -156.913,1743.65 -151.005,1743.57 L-151.085,1737.42 C-156.999,1737.5 -162.8,1737.57 -168.504,1737.64 L-168.45,1743.78 Z M-133.559,1743.27 C-127.839,1743.16 -122.021,1743.04 -116.107,1742.9 L-116.259,1736.75 C-122.162,1736.89 -127.962,1737 -133.666,1737.11 L-133.559,1743.27 Z M-98.6777,1742.46 C-92.9585,1742.3 -87.1412,1742.14 -81.2431,1741.96 L-81.4212,1735.79 C-87.3192,1735.97 -93.1202,1736.15 -98.8404,1736.3 L-98.6777,1742.46 Z M-63.8622,1741.6 C-58.0883,1741.51 -52.2875,1741.44 -46.4435,1741.39 L-46.4974,1735.25 C-52.3414,1735.28 -58.1586,1735.35 -63.9485,1735.45 L-63.8622,1741.6 Z M-29.0247,1741.29 C-24.6593,1741.27 -20.283,1741.26 -15.8851,1741.26 C-14.4661,1741.26 -13.0414,1741.26 -11.6168,1741.26 L-11.6168,1735.11 C-13.0414,1735.11 -14.4661,1735.11 -15.8851,1735.11 C-20.2939,1735.11 -24.6755,1735.12 -29.0517,1735.13 L-29.0247,1741.29 Z M5.78571,1741.32 C11.5758,1741.34 17.3928,1741.39 23.2044,1741.44 L23.2638,1735.28 C17.4305,1735.23 11.6189,1735.2 5.82884,1735.16 L5.78571,1741.32 Z M40.6285,1741.63 C46.4293,1741.69 52.2301,1741.77 58.058,1741.85 L58.1443,1735.69 C52.3112,1735.6 46.5103,1735.53 40.7095,1735.47 L40.6285,1741.63 Z M75.4767,1742.09 C81.2829,1742.19 87.0946,1742.29 92.9116,1742.4 L93.0087,1736.23 C87.1918,1736.13 81.391,1736.03 75.5738,1735.94 L75.4767,1742.09 Z M110.33,1742.7 C116.148,1742.82 121.964,1742.92 127.766,1743.04 L127.889,1736.88 C122.073,1736.77 116.261,1736.66 110.444,1736.53 L110.33,1742.7 Z M145.2,1743.36 C151.012,1743.47 156.828,1743.58 162.63,1743.69 L162.753,1737.55 C156.953,1737.44 151.141,1737.33 145.324,1737.21 L145.2,1743.36 Z M180.081,1744.03 C185.908,1744.14 191.726,1744.24 197.51,1744.34 L197.624,1738.17 C191.823,1738.08 186.022,1737.98 180.189,1737.87 L180.081,1744.03 Z M214.961,1744.63 C220.806,1744.71 226.617,1744.79 232.407,1744.87 L232.488,1738.71 C226.703,1738.62 220.886,1738.54 215.058,1738.46 L214.961,1744.63 Z M249.869,1745.08 C255.713,1745.14 261.524,1745.19 267.304,1745.23 L267.358,1739.08 C261.568,1739.02 255.767,1738.97 249.923,1738.91 L249.869,1745.08 Z M284.75,1745.31 C288.602,1745.33 292.429,1745.33 296.243,1745.33 C298.229,1745.33 300.22,1745.33 302.211,1745.33 L302.195,1739.17 C300.22,1739.17 298.229,1739.17 296.243,1739.17 C292.445,1739.17 288.618,1739.17 284.777,1739.16 L284.75,1745.31 Z M319.657,1745.24 C325.512,1745.2 331.345,1745.15 337.103,1745.07 L337.021,1738.91 C331.275,1738.98 325.457,1739.06 319.614,1739.1 L319.657,1745.24 Z M354.564,1744.78 C360.435,1744.65 366.264,1744.5 372.026,1744.34 L371.832,1738.17 C366.101,1738.35 360.296,1738.48 354.441,1738.61 L354.564,1744.78 Z M389.472,1743.72 C395.37,1743.5 401.187,1743.24 406.935,1742.94 L406.615,1736.79 C400.896,1737.08 395.111,1737.35 389.24,1737.58 L389.472,1743.72 Z M424.38,1741.94 C430.278,1741.56 436.095,1741.14 441.815,1740.67 L441.318,1734.54 C435.642,1735 429.851,1735.41 423.981,1735.79 L424.38,1741.94 Z M459.233,1739.12 C465.158,1738.51 470.965,1737.88 476.641,1737.18 L475.881,1731.07 C470.258,1731.77 464.511,1732.4 458.629,1732.98 L459.233,1739.12 Z M493.99,1734.82 C499.931,1733.91 505.705,1732.95 511.284,1731.92 L510.168,1725.85 C504.641,1726.89 498.949,1727.84 493.078,1728.72 L493.99,1734.82 Z M528.444,1728.43 C534.202,1727.23 539.895,1726 545.518,1724.77 L544.207,1718.75 C538.584,1719.99 532.918,1721.21 527.187,1722.41 L528.444,1728.43 Z M562.564,1720.93 C568.294,1719.61 573.96,1718.26 579.556,1716.9 L578.105,1710.92 C572.535,1712.27 566.887,1713.61 561.166,1714.93 L562.564,1720.93 Z M596.517,1712.69 C602.226,1711.22 607.859,1709.75 613.412,1708.24 L611.808,1702.3 C606.283,1703.79 600.676,1705.25 594.983,1706.71 L596.517,1712.69 Z M630.253,1703.57 C635.946,1701.93 641.542,1700.3 647.035,1698.62 L645.243,1692.74 C639.783,1694.39 634.219,1696.02 628.569,1697.64 L630.253,1703.57 Z M663.725,1693.4 C669.359,1691.58 674.9,1689.73 680.313,1687.86 L678.311,1682.03 C672.925,1683.89 667.443,1685.74 661.831,1687.55 L663.725,1693.4 Z M696.798,1681.94 C702.377,1679.88 707.834,1677.78 713.138,1675.64 L710.844,1669.93 C705.583,1672.04 700.182,1674.13 694.656,1676.17 L696.798,1681.94 Z M729.298,1668.87 C734.787,1666.46 740.102,1664.03 745.239,1661.54 L742.573,1656.01 C737.507,1658.44 732.256,1660.86 726.827,1663.22 L729.298,1668.87 Z M760.904,1653.62 C766.241,1650.76 771.335,1647.87 776.213,1644.92 L773.024,1639.65 C768.253,1642.54 763.241,1645.39 758.007,1648.18 L760.904,1653.62 Z M791.009,1635.34 C796.022,1631.86 800.717,1628.3 805.099,1624.67 L801.186,1619.93 C796.951,1623.43 792.374,1626.88 787.485,1630.28 L791.009,1635.34 Z " fill="#000000" fill-opacity="1.00" />			<path d="M-812.219,1602.38 C-812.219,1602.38 -655.181,1687.84 -524.832,1701.18 C-394.478,1714.53 -306.202,1726.84 -77.3309,1719.65 C128.98,1715.54 382.495,1736.07 517.97,1708.36 C653.461,1680.65 756.101,1644.72 807.419,1599.56 L-812.219,1602.38 Z " fill="#636363" fill-opacity="1.00" />			<path d="M-813.687,1605.08 C-813.665,1605.1 -808.042,1608.15 -798.054,1613.22 L-795.281,1607.71 C-800.24,1605.2 -804.114,1603.19 -806.742,1601.82 C-808.058,1601.13 -809.063,1600.58 -809.731,1600.22 C-810.072,1600.04 -810.325,1599.9 -810.492,1599.81 C-810.665,1599.73 -810.746,1599.68 -810.746,1599.68 L-813.687,1605.08 Z M-782.357,1620.97 C-777.544,1623.31 -772.255,1625.83 -766.541,1628.49 L-763.94,1622.9 C-769.622,1620.25 -774.883,1617.75 -779.669,1615.43 L-782.357,1620.97 Z M-750.628,1635.79 C-745.517,1638.08 -740.17,1640.44 -734.607,1642.85 L-732.168,1637.17 C-737.698,1634.78 -743.019,1632.43 -748.103,1630.16 L-750.628,1635.79 Z M-718.489,1649.66 C-713.221,1651.85 -707.809,1654.04 -702.268,1656.24 L-700.002,1650.51 C-705.505,1648.33 -710.891,1646.15 -716.13,1643.97 L-718.489,1649.66 Z M-685.944,1662.56 C-680.554,1664.58 -675.077,1666.62 -669.513,1668.6 L-667.436,1662.81 C-672.961,1660.83 -678.411,1658.81 -683.77,1656.79 L-685.944,1662.56 Z M-652.974,1674.35 C-647.475,1676.2 -641.917,1678.02 -636.316,1679.76 L-634.47,1673.89 C-640.029,1672.15 -645.549,1670.35 -651.004,1668.51 L-652.974,1674.35 Z M-619.567,1684.84 C-613.965,1686.46 -608.331,1688.03 -602.682,1689.51 L-601.112,1683.57 C-606.708,1682.08 -612.292,1680.54 -617.856,1678.92 L-619.567,1684.84 Z M-585.646,1693.77 C-579.932,1695.12 -574.212,1696.35 -568.508,1697.52 L-567.289,1691.48 C-572.928,1690.33 -578.583,1689.1 -584.238,1687.78 L-585.646,1693.77 Z M-551.246,1700.71 C-545.418,1701.67 -539.618,1702.52 -533.86,1703.25 L-533.094,1697.14 C-538.771,1696.42 -544.485,1695.58 -550.237,1694.63 L-551.246,1700.71 Z M-516.468,1705.13 C-510.618,1705.74 -504.85,1706.33 -499.147,1706.93 L-498.499,1700.81 C-504.214,1700.22 -509.982,1699.61 -515.832,1699.01 L-516.468,1705.13 Z M-481.809,1708.75 C-475.992,1709.35 -470.218,1709.95 -464.471,1710.54 L-463.85,1704.42 C-469.586,1703.83 -475.361,1703.22 -481.172,1702.62 L-481.809,1708.75 Z M-447.138,1712.31 C-441.349,1712.89 -435.575,1713.46 -429.785,1714.01 L-429.191,1707.89 C-434.981,1707.33 -440.738,1706.75 -446.513,1706.17 L-447.138,1712.31 Z M-412.42,1715.64 C-406.662,1716.15 -400.888,1716.66 -395.044,1717.15 L-394.531,1711.01 C-400.349,1710.53 -406.122,1710.02 -411.869,1709.51 L-412.42,1715.64 Z M-377.653,1718.54 C-371.917,1718.98 -366.132,1719.4 -360.26,1719.8 L-359.829,1713.65 C-365.689,1713.25 -371.474,1712.84 -377.183,1712.4 L-377.653,1718.54 Z M-342.842,1720.9 C-337.123,1721.24 -331.316,1721.58 -325.418,1721.88 L-325.1,1715.72 C-330.987,1715.42 -336.777,1715.1 -342.48,1714.76 L-342.842,1720.9 Z M-307.989,1722.7 C-302.28,1722.95 -296.479,1723.17 -290.554,1723.38 L-290.348,1717.22 C-296.246,1717.02 -302.032,1716.78 -307.725,1716.53 L-307.989,1722.7 Z M-273.118,1723.91 C-267.415,1724.06 -261.598,1724.2 -255.673,1724.33 L-255.549,1718.17 C-261.463,1718.05 -267.264,1717.92 -272.952,1717.76 L-273.118,1723.91 Z M-238.238,1724.61 C-232.535,1724.69 -226.717,1724.75 -220.792,1724.79 L-220.749,1718.62 C-226.663,1718.58 -232.465,1718.53 -238.157,1718.46 L-238.238,1724.61 Z M-203.347,1724.84 C-202.683,1724.84 -202.019,1724.84 -201.34,1724.84 C-196.283,1724.84 -191.135,1724.83 -185.896,1724.82 L-185.923,1718.65 C-191.146,1718.68 -196.283,1718.69 -201.34,1718.69 C-202.019,1718.69 -202.683,1718.69 -203.347,1718.68 L-203.347,1724.84 Z M-168.45,1724.68 C-162.73,1724.62 -156.913,1724.55 -151.005,1724.46 L-151.085,1718.31 C-156.999,1718.39 -162.8,1718.46 -168.504,1718.51 L-168.45,1724.68 Z M-133.559,1724.16 C-127.839,1724.05 -122.021,1723.93 -116.107,1723.79 L-116.259,1717.63 C-122.162,1717.77 -127.962,1717.89 -133.666,1718 L-133.559,1724.16 Z M-98.6777,1723.35 C-92.9585,1723.19 -87.1412,1723.03 -81.2431,1722.85 L-81.4212,1716.69 C-87.3192,1716.88 -93.1202,1717.04 -98.8404,1717.2 L-98.6777,1723.35 Z M-63.8622,1722.5 C-58.0883,1722.41 -52.2875,1722.35 -46.4435,1722.29 L-46.4974,1716.13 C-52.3414,1716.18 -58.1586,1716.25 -63.9485,1716.33 L-63.8622,1722.5 Z M-29.0247,1722.19 C-24.6593,1722.16 -20.283,1722.16 -15.8851,1722.16 C-14.4661,1722.16 -13.0414,1722.16 -11.6168,1722.16 L-11.6168,1716 C-13.0414,1716 -14.4661,1716 -15.8851,1716 C-20.2939,1716 -24.6755,1716.01 -29.0517,1716.03 L-29.0247,1722.19 Z M5.78571,1722.22 C11.5758,1722.25 17.3928,1722.29 23.2044,1722.35 L23.2638,1716.18 C17.4305,1716.12 11.6189,1716.08 5.82884,1716.05 L5.78571,1722.22 Z M40.6285,1722.51 C46.4293,1722.58 52.2301,1722.66 58.058,1722.73 L58.1443,1716.58 C52.3112,1716.49 46.5103,1716.41 40.7095,1716.36 L40.6285,1722.51 Z M75.4767,1722.99 C81.2829,1723.09 87.0946,1723.18 92.9116,1723.28 L93.0087,1717.14 C87.1918,1717.03 81.3801,1716.93 75.5738,1716.85 L75.4767,1722.99 Z M110.33,1723.6 C116.148,1723.7 121.964,1723.82 127.766,1723.93 L127.889,1717.77 C122.073,1717.66 116.261,1717.55 110.444,1717.44 L110.33,1723.6 Z M145.2,1724.27 C151.012,1724.38 156.828,1724.48 162.63,1724.6 L162.753,1718.43 C156.953,1718.32 151.141,1718.21 145.324,1718.1 L145.2,1724.27 Z M180.081,1724.92 C185.908,1725.02 191.726,1725.13 197.51,1725.23 L197.624,1719.06 C191.823,1718.97 186.022,1718.87 180.189,1718.76 L180.081,1724.92 Z M214.961,1725.5 C220.806,1725.6 226.617,1725.68 232.407,1725.75 L232.488,1719.61 C226.703,1719.52 220.886,1719.44 215.058,1719.36 L214.961,1725.5 Z M249.869,1725.96 C255.713,1726.03 261.524,1726.07 267.304,1726.11 L267.358,1719.97 C261.568,1719.93 255.767,1719.87 249.923,1719.81 L249.869,1725.96 Z M284.75,1726.2 C288.602,1726.22 292.429,1726.22 296.243,1726.22 C298.229,1726.22 300.22,1726.22 302.211,1726.22 L302.195,1720.06 C300.22,1720.06 298.229,1720.06 296.243,1720.06 C292.445,1720.06 288.618,1720.06 284.777,1720.05 L284.75,1726.2 Z M319.657,1726.14 C325.512,1726.1 331.345,1726.04 337.103,1725.96 L337.021,1719.8 C331.275,1719.88 325.457,1719.94 319.614,1719.98 L319.657,1726.14 Z M354.564,1725.65 C360.435,1725.55 366.264,1725.39 372.026,1725.23 L371.832,1719.06 C366.101,1719.23 360.296,1719.39 354.441,1719.51 L354.564,1725.65 Z M389.472,1724.62 C395.37,1724.39 401.187,1724.12 406.935,1723.83 L406.615,1717.69 C400.896,1717.98 395.111,1718.24 389.24,1718.47 L389.472,1724.62 Z M424.38,1722.82 C430.278,1722.45 436.095,1722.03 441.815,1721.56 L441.318,1715.44 C435.642,1715.89 429.851,1716.3 423.981,1716.69 L424.38,1722.82 Z M459.233,1720.01 C465.158,1719.42 470.965,1718.76 476.641,1718.07 L475.881,1711.97 C470.258,1712.66 464.511,1713.29 458.629,1713.87 L459.233,1720.01 Z M493.99,1715.71 C499.931,1714.81 505.705,1713.84 511.284,1712.8 L510.168,1706.74 C504.641,1707.78 498.949,1708.73 493.078,1709.62 L493.99,1715.71 Z M528.444,1709.32 C534.202,1708.12 539.895,1706.89 545.518,1705.67 L544.207,1699.65 C538.584,1700.89 532.918,1702.11 527.187,1703.3 L528.444,1709.32 Z M562.564,1701.82 C568.294,1700.5 573.96,1699.16 579.556,1697.8 L578.105,1691.81 C572.535,1693.17 566.887,1694.5 561.166,1695.82 L562.564,1701.82 Z M596.517,1693.56 C602.226,1692.11 607.859,1690.64 613.412,1689.13 L611.808,1683.19 C606.283,1684.68 600.676,1686.14 594.983,1687.62 L596.517,1693.56 Z M630.253,1684.45 C635.946,1682.83 641.542,1681.19 647.035,1679.51 L645.243,1673.63 C639.783,1675.28 634.219,1676.91 628.569,1678.54 L630.253,1684.45 Z M663.725,1674.29 C669.359,1672.48 674.9,1670.62 680.313,1668.74 L678.311,1662.93 C672.925,1664.79 667.443,1666.63 661.831,1668.44 L663.725,1674.29 Z M696.798,1662.85 C702.377,1660.77 707.834,1658.67 713.138,1656.53 L710.844,1650.83 C705.583,1652.93 700.182,1655 694.656,1657.07 L696.798,1662.85 Z M729.298,1649.76 C734.787,1647.35 740.102,1644.91 745.239,1642.44 L742.573,1636.89 C737.507,1639.33 732.256,1641.73 726.827,1644.11 L729.298,1649.76 Z M760.904,1634.5 C766.241,1631.65 771.335,1628.76 776.213,1625.83 L773.024,1620.54 C768.253,1623.43 763.241,1626.27 758.007,1629.07 L760.904,1634.5 Z M791.009,1616.24 C796.022,1612.75 800.717,1609.19 805.099,1605.57 L801.186,1600.81 C796.951,1604.33 792.374,1607.78 787.485,1611.18 L791.009,1616.24 Z " fill="#000000" fill-opacity="1.00" />			<path d="M62.3533,-630.862 L62.3533,-1245.86 L-69.4148,-1245.86 L-69.4148,-630.862 L62.3533,-630.862 Z " fill="#5e5e5e" fill-opacity="1.00" />			<path d="M62.3533,-630.862 L62.3533,-635.351 L-64.9845,-635.351 L-64.9845,-1241.35 L57.9232,-1241.35 L57.9232,-630.862 L62.3533,-630.862 L62.3533,-635.351 L62.3533,-630.862 L66.7782,-630.862 L66.7782,-1250.35 L-73.8396,-1250.35 L-73.8396,-626.361 L66.7782,-626.361 L66.7782,-630.862 L62.3533,-630.862 Z " fill="#000000" fill-opacity="1.00" />			<path d="M-67.3049,-688.401 L-52.5357,-688.401 L-52.5357,-694.396 L-67.3049,-694.396 L-67.3049,-688.401 Z M-40.7235,-688.401 L-25.9597,-688.401 L-25.9597,-694.396 L-40.7235,-694.396 L-40.7235,-688.401 Z M-14.1476,-688.401 L0.605389,-688.401 L0.605389,-694.396 L-14.1476,-694.396 L-14.1476,-688.401 Z M12.4176,-688.401 L27.1867,-688.401 L27.1867,-694.396 L12.4176,-694.396 L12.4176,-688.401 Z M38.9935,-688.401 L53.7626,-688.401 L53.7626,-694.396 L38.9935,-694.396 L38.9935,-688.401 Z " fill="#000000" fill-opacity="1.00" />			<path d="M39.0366,-904.133 C39.0366,-927.908 20.7761,-947.177 -1.76892,-947.177 C-24.2978,-947.177 -42.5636,-927.908 -42.5636,-904.133 C-42.5636,-880.357 -24.2978,-861.087 -1.76892,-861.087 C20.7761,-861.087 39.0366,-880.357 39.0366,-904.133 Z " fill="#0e121a" fill-opacity="1.00" />			<path d="M39.0367,-904.133 L35.9987,-904.133 C35.9987,-893.151 31.7843,-883.217 24.9473,-876.008 C18.1105,-868.799 8.68881,-864.337 -1.76892,-864.337 C-12.2103,-864.337 -21.632,-868.799 -28.4743,-876.008 C-35.3112,-883.217 -39.5094,-893.151 -39.5256,-904.133 C-39.5094,-915.13 -35.3112,-925.047 -28.4743,-932.258 C-21.632,-939.472 -12.2103,-943.929 -1.76892,-943.929 C8.68881,-943.929 18.1105,-939.472 24.9473,-932.258 C31.7843,-925.047 35.9987,-915.13 35.9987,-904.133 L42.0747,-904.133 C42.0747,-916.927 37.1589,-928.517 29.232,-936.887 C21.2996,-945.256 10.3185,-950.426 -1.76892,-950.426 C-13.8453,-950.426 -24.8265,-945.256 -32.7534,-936.887 C-40.6858,-928.517 -45.6017,-916.927 -45.6017,-904.133 C-45.6017,-891.355 -40.6858,-879.753 -32.7534,-871.394 C-24.8265,-863.025 -13.8453,-857.844 -1.76892,-857.844 C10.3185,-857.844 21.2996,-863.025 29.232,-871.394 C37.1589,-879.753 42.0747,-891.355 42.0747,-904.133 L39.0367,-904.133 Z " fill="#343333" fill-opacity="1.00" />			<path d="M7.16714,-916.069 C7.16714,-921.276 3.16312,-925.49 -1.76892,-925.49 C-6.68473,-925.49 -10.6941,-921.276 -10.6941,-916.069 C-10.6941,-910.872 -6.68473,-906.663 -1.76892,-906.663 C3.16312,-906.663 7.16714,-910.872 7.16714,-916.069 Z " fill="#0e121a" fill-opacity="1.00" />			<path d="M7.16713,-916.069 L4.81976,-916.069 C4.81976,-914.164 4.08592,-912.464 2.89871,-911.19 C1.69543,-909.933 0.0657131,-909.162 -1.76882,-909.162 C-3.59271,-909.162 -5.22241,-909.933 -6.42578,-911.19 C-7.61289,-912.464 -8.34677,-914.164 -8.34677,-916.069 C-8.34677,-917.974 -7.61289,-919.69 -6.42578,-920.947 C-5.22241,-922.204 -3.59271,-922.992 -1.76882,-922.992 C0.0657131,-922.992 1.69543,-922.204 2.89871,-920.947 C4.08592,-919.69 4.81976,-917.974 4.81976,-916.069 L9.50359,-916.069 C9.51439,-919.371 8.23012,-922.366 6.2012,-924.508 C4.15601,-926.661 1.33932,-927.989 -1.76882,-927.989 C-4.86637,-927.989 -7.68298,-926.661 -9.72816,-924.508 C-11.7571,-922.366 -13.0305,-919.371 -13.0305,-916.069 C-13.0305,-912.783 -11.7571,-909.783 -9.72816,-907.629 C-7.68298,-905.487 -4.86637,-904.149 -1.76882,-904.149 C1.33932,-904.149 4.15601,-905.487 6.2012,-907.629 C8.23012,-909.783 9.51439,-912.783 9.50359,-916.069 L7.16713,-916.069 Z " fill="#343333" fill-opacity="1.00" />			<path d="M7.31819,-887.82 C7.31819,-893.028 3.33044,-897.242 -1.60164,-897.242 C-6.53372,-897.242 -10.5268,-893.028 -10.5268,-887.82 C-10.5268,-882.624 -6.53372,-878.41 -1.60164,-878.41 C3.33044,-878.41 7.31819,-882.624 7.31819,-887.82 Z " fill="#0e121a" fill-opacity="1.00" />			<path d="M7.31826,-887.82 L4.9709,-887.82 C4.9709,-885.91 4.25322,-884.215 3.04984,-882.942 C1.86272,-881.685 0.233151,-880.913 -1.60154,-880.913 C-3.4416,-880.913 -5.0713,-881.685 -6.25841,-882.942 C-7.46178,-884.215 -8.17949,-885.91 -8.17949,-887.82 C-8.17949,-889.725 -7.46178,-891.435 -6.25841,-892.692 C-5.0713,-893.966 -3.4416,-894.738 -1.60154,-894.738 C0.233151,-894.738 1.86272,-893.966 3.04984,-892.692 C4.25322,-891.435 4.9709,-889.725 4.9709,-887.82 L9.67088,-887.82 C9.67088,-891.122 8.39741,-894.117 6.35233,-896.26 C4.32341,-898.413 1.49035,-899.74 -1.60154,-899.74 C-4.69889,-899.74 -7.53197,-898.413 -9.56089,-896.26 C-11.606,-894.117 -12.8741,-891.122 -12.8741,-887.82 C-12.8741,-884.528 -11.606,-881.533 -9.56089,-879.391 C-7.53197,-877.238 -4.69889,-875.894 -1.60154,-875.894 C1.49035,-875.894 4.32341,-877.238 6.35233,-879.391 C8.39741,-881.533 9.67088,-884.528 9.67088,-887.82 L7.31826,-887.82 Z " fill="#343333" fill-opacity="1.00" />			<path d="M-1.76892,-916.069 L-1.97927,-888.662 L-1.76892,-916.069 Z " fill="#10101a" fill-opacity="1.00" />			<path d="M-6.84117,-916.112 L-7.0463,-888.705 C-7.07331,-885.721 -4.82309,-883.276 -2.01713,-883.26 C0.783531,-883.233 3.07686,-885.635 3.09303,-888.619 L3.31431,-916.026 C3.33047,-919.01 1.07491,-921.454 -1.7149,-921.481 C-4.52087,-921.513 -6.81426,-919.106 -6.84117,-916.112 Z " fill="#070712" fill-opacity="1.00" />			<path d="M32.9606,-1183.49 C32.9606,-1205.66 15.925,-1223.64 -5.09831,-1223.64 C-26.1108,-1223.64 -43.141,-1205.66 -43.141,-1183.49 C-43.141,-1161.32 -26.1108,-1143.35 -5.09831,-1143.35 C15.925,-1143.35 32.9606,-1161.32 32.9606,-1183.49 Z " fill="#0e121a" fill-opacity="1.00" />			<path d="M32.9606,-1183.49 L30.1276,-1183.49 C30.1114,-1173.24 26.1884,-1163.99 19.821,-1157.27 C13.4374,-1150.54 4.65253,-1146.37 -5.09831,-1146.37 C-14.8383,-1146.37 -23.6232,-1150.54 -30.0068,-1157.27 C-36.3742,-1163.99 -40.2972,-1173.24 -40.3134,-1183.49 C-40.2972,-1193.75 -36.3742,-1203 -30.0068,-1209.73 C-23.6232,-1216.46 -14.8383,-1220.61 -5.09831,-1220.61 C4.65253,-1220.61 13.4374,-1216.46 19.821,-1209.73 C26.1884,-1203 30.1114,-1193.75 30.1276,-1183.49 L35.7935,-1183.49 C35.7935,-1195.41 31.2069,-1206.24 23.8141,-1214.04 C16.4107,-1221.85 6.18496,-1226.68 -5.09831,-1226.68 C-16.3547,-1226.68 -26.5911,-1221.85 -34,-1214.04 C-41.3873,-1206.24 -45.974,-1195.41 -45.974,-1183.49 C-45.974,-1171.58 -41.3873,-1160.75 -34,-1152.95 C-26.5911,-1145.15 -16.3547,-1140.31 -5.09831,-1140.31 C6.18496,-1140.31 16.4107,-1145.15 23.8141,-1152.95 C31.2069,-1160.75 35.7935,-1171.58 35.7935,-1183.49 L32.9606,-1183.49 Z " fill="#343333" fill-opacity="1.00" />			<path d="M3.23333,-1194.63 C3.23333,-1199.48 -0.500782,-1203.42 -5.09831,-1203.42 C-9.68509,-1203.42 -13.4138,-1199.48 -13.4138,-1194.63 C-13.4138,-1189.78 -9.68509,-1185.84 -5.09831,-1185.84 C-0.500782,-1185.84 3.23333,-1189.78 3.23333,-1194.63 Z " fill="#0e121a" fill-opacity="1.00" />			<path d="M3.23339,-1194.63 L1.04791,-1194.63 C1.04791,-1192.84 0.373359,-1191.26 -0.748988,-1190.08 C-1.84975,-1188.92 -3.38768,-1188.18 -5.09821,-1188.18 C-6.79799,-1188.18 -8.3305,-1188.92 -9.43678,-1190.08 C-10.5538,-1191.26 -11.2337,-1192.84 -11.2337,-1194.63 C-11.2337,-1196.42 -10.5538,-1198 -9.43678,-1199.18 C-8.3305,-1200.35 -6.79799,-1201.09 -5.09821,-1201.09 C-3.38768,-1201.09 -1.84975,-1200.35 -0.748988,-1199.18 C0.373359,-1198 1.04791,-1196.42 1.04791,-1194.63 L5.4134,-1194.63 C5.42955,-1197.7 4.23698,-1200.5 2.33218,-1202.5 C0.438201,-1204.51 -2.19515,-1205.74 -5.09821,-1205.74 C-7.9852,-1205.74 -10.6239,-1204.51 -12.518,-1202.5 C-14.4228,-1200.5 -15.61,-1197.7 -15.5991,-1194.63 C-15.61,-1191.57 -14.4228,-1188.76 -12.518,-1186.76 C-10.6239,-1184.75 -7.9852,-1183.51 -5.09821,-1183.51 C-2.19515,-1183.51 0.438201,-1184.75 2.33218,-1186.76 C4.23698,-1188.76 5.42955,-1191.57 5.4134,-1194.63 L3.23339,-1194.63 Z " fill="#343333" fill-opacity="1.00" />			<path d="M3.38443,-1168.28 C3.38443,-1173.13 -0.344248,-1177.08 -4.9472,-1177.08 C-9.54462,-1177.08 -13.2627,-1173.13 -13.2627,-1168.28 C-13.2627,-1163.44 -9.54462,-1159.5 -4.9472,-1159.5 C-0.344248,-1159.5 3.38443,-1163.44 3.38443,-1168.28 Z " fill="#0e121a" fill-opacity="1.00" />			<path d="M3.38441,-1168.28 L1.18813,-1168.28 C1.18813,-1166.51 0.508225,-1164.92 -0.597976,-1163.73 C-1.7149,-1162.57 -3.23124,-1161.84 -4.9472,-1161.84 C-6.64698,-1161.84 -8.17949,-1162.57 -9.28577,-1163.73 C-10.4028,-1164.92 -11.0827,-1166.51 -11.0827,-1168.28 C-11.0827,-1170.07 -10.4028,-1171.66 -9.28577,-1172.83 C-8.17949,-1174.01 -6.64698,-1174.74 -4.9472,-1174.74 C-3.23124,-1174.74 -1.7149,-1174.01 -0.597976,-1172.83 C0.508225,-1171.66 1.18813,-1170.07 1.18813,-1168.28 L5.56442,-1168.28 C5.56442,-1171.36 4.37731,-1174.16 2.48322,-1176.16 C0.57842,-1178.16 -2.0603,-1179.41 -4.9472,-1179.41 C-7.83419,-1179.41 -10.4729,-1178.16 -12.367,-1176.16 C-14.2718,-1174.16 -15.4589,-1171.36 -15.4589,-1168.28 C-15.4589,-1165.22 -14.2718,-1162.41 -12.367,-1160.41 C-10.4729,-1158.41 -7.83419,-1157.17 -4.9472,-1157.17 C-2.0603,-1157.17 0.57842,-1158.41 2.48322,-1160.41 C4.37731,-1162.41 5.56442,-1165.22 5.56442,-1168.28 L3.38441,-1168.28 Z " fill="#343333" fill-opacity="1.00" />			<path d="M-5.09831,-1194.63 L-5.29259,-1169.08 L-5.09831,-1194.63 Z " fill="#10101a" fill-opacity="1.00" />			<path d="M-9.82526,-1194.67 L-10.0141,-1169.12 C-10.0466,-1166.32 -7.94203,-1164.05 -5.33567,-1164.02 C-2.72399,-1164.01 -0.58171,-1166.24 -0.565444,-1169.04 L-0.360514,-1194.59 C-0.344349,-1197.38 -2.44877,-1199.66 -5.05513,-1199.67 C-7.66691,-1199.7 -9.79282,-1197.46 -9.82526,-1194.67 Z " fill="#070712" fill-opacity="1.00" />			<path d="M-70.262,-1124.58 L61.8838,-1124.58 L61.8838,-1129.07 L-70.262,-1129.07 L-70.262,-1124.58 Z " fill="#000000" fill-opacity="1.00" />			<path d="M-256.595,-1546.31 L-288.368,-1526.97 C-288.368,-1526.97 -106.826,-1244.96 2.70451,-1243 C128.818,-1264.5 289.061,-1518.68 289.061,-1518.68 L269.722,-1553.21 C269.722,-1553.21 -184.762,-1522.83 -256.595,-1546.31 Z " fill="#464646" fill-opacity="1.00" />			<path d="M-256.595,-1546.31 L-258.198,-1548.94 L-292.68,-1527.96 L-290.969,-1525.31 C-290.927,-1525.24 -245.49,-1454.66 -186.268,-1383.75 C-156.654,-1348.28 -123.598,-1312.73 -90.9404,-1285.82 C-74.6113,-1272.35 -58.3798,-1261.06 -42.6608,-1253.02 C-26.9364,-1244.98 -11.7032,-1240.17 2.65056,-1239.91 L2.94194,-1239.91 L3.21716,-1239.95 C35.6263,-1245.51 69.6057,-1265.75 102.598,-1292.77 C152.048,-1333.32 199.253,-1389.34 234.15,-1435.25 C269.057,-1481.17 291.629,-1517 291.657,-1517.04 L292.639,-1518.58 L271.448,-1556.43 L269.511,-1556.29 C269.511,-1556.29 268.588,-1556.22 266.818,-1556.11 C240.297,-1554.38 23.1666,-1540.48 -125.502,-1540.48 C-156.141,-1540.48 -183.851,-1541.07 -206.358,-1542.49 C-217.615,-1543.17 -227.559,-1544.09 -235.891,-1545.2 C-244.222,-1546.33 -250.946,-1547.69 -255.647,-1549.24 L-257,-1549.68 L-258.198,-1548.94 L-256.595,-1546.31 L-257.567,-1543.38 C-252.263,-1541.66 -245.259,-1540.27 -236.706,-1539.12 C-211.106,-1535.65 -171.585,-1534.33 -125.502,-1534.33 C33.43,-1534.33 269.883,-1550.15 269.927,-1550.15 L269.722,-1553.21 L267.023,-1551.72 L286.363,-1517.18 L289.061,-1518.68 L286.449,-1520.32 C286.449,-1520.32 286.298,-1520.09 285.991,-1519.61 C281.28,-1512.22 240.404,-1448.78 185.547,-1384.69 C158.13,-1352.65 127.214,-1320.45 95.6475,-1295.05 C64.08,-1269.63 31.8651,-1251.06 2.18103,-1246.03 L2.7045,-1243 L2.76388,-1246.08 C-10.2786,-1246.3 -24.6755,-1250.75 -39.8548,-1258.51 C-66.4038,-1272.07 -95.2086,-1295.76 -123.305,-1323.65 C-165.482,-1365.49 -206.137,-1416.78 -236.209,-1457.56 C-251.254,-1477.98 -263.659,-1495.75 -272.293,-1508.42 C-276.616,-1514.76 -279.988,-1519.82 -282.276,-1523.28 C-283.425,-1525.02 -284.311,-1526.36 -284.904,-1527.28 C-285.481,-1528.17 -285.789,-1528.64 -285.789,-1528.64 L-288.368,-1526.97 L-286.766,-1524.35 L-254.993,-1543.68 L-256.595,-1546.31 L-257.567,-1543.38 L-256.595,-1546.31 Z " fill="#000000" fill-opacity="1.00" />			<path d="M-277.317,-1531.81 C-277.317,-1531.81 54.2214,-1504.17 289.752,-1544.24 C289.752,-1567.72 283.536,-1589.14 283.536,-1589.14 L-286.296,-1578.08 L-277.317,-1531.81 Z " fill="#313131" fill-opacity="1.00" />			<path d="M-277.317,-1531.81 L-277.581,-1528.74 C-277.527,-1528.74 -166.049,-1519.45 -26.359,-1519.45 C74.9102,-1519.45 190.981,-1524.32 290.259,-1541.2 L292.827,-1541.65 L292.827,-1544.24 C292.816,-1568.24 286.52,-1589.83 286.487,-1589.99 L285.829,-1592.25 L-290.03,-1581.1 L-279.902,-1528.93 L-277.581,-1528.74 L-277.317,-1531.81 L-274.306,-1532.4 L-282.584,-1575.08 L283.589,-1586.06 L283.536,-1589.14 L280.579,-1588.27 L280.589,-1588.23 C280.907,-1587.11 286.681,-1566.48 286.67,-1544.24 L289.752,-1544.24 L289.223,-1547.28 C190.522,-1530.48 74.7051,-1525.6 -26.359,-1525.6 C-96.0661,-1525.6 -158.753,-1527.92 -204.021,-1530.25 C-226.647,-1531.4 -244.913,-1532.57 -257.524,-1533.43 C-263.822,-1533.86 -268.716,-1534.23 -272.029,-1534.49 C-273.686,-1534.61 -274.943,-1534.71 -275.8,-1534.78 C-276.643,-1534.85 -277.068,-1534.87 -277.068,-1534.87 L-277.317,-1531.81 L-274.306,-1532.4 L-277.317,-1531.81 Z " fill="#0a0a0a" fill-opacity="1.00" />			<path d="M-321.398,-1677.87 L-331.51,-1569.43 C-331.51,-1569.43 -314.394,-1559.67 -124.548,-1552.97 C65.3104,-1546.28 326.451,-1570.61 326.451,-1570.61 C326.451,-1570.61 315.238,-1677.84 305.454,-1712.81 C295.688,-1747.78 275.559,-1721.41 229.752,-1712.43 C183.949,-1703.43 49.6346,-1692.89 -65.562,-1696.69 C-180.742,-1700.47 -265.095,-1720.85 -285.416,-1730.59 C-305.706,-1740.34 -321.387,-1677.92 -321.398,-1677.87 Z " fill="#5e5e5e" fill-opacity="1.00" />			<path d="M-321.398,-1677.87 L-318.323,-1677.87 L-321.398,-1677.87 L-318.414,-1677.11 L-318.376,-1677.25 C-317.987,-1678.77 -314.507,-1692.07 -309.009,-1704.81 C-306.273,-1711.17 -303.03,-1717.39 -299.559,-1721.81 C-297.833,-1724.02 -296.063,-1725.77 -294.396,-1726.91 C-292.707,-1728.03 -291.191,-1728.54 -289.739,-1728.54 C-288.8,-1728.54 -287.845,-1728.34 -286.739,-1727.81 C-284.019,-1726.51 -280.388,-1725.09 -275.843,-1723.57 C-259.914,-1718.25 -232.686,-1711.61 -196.742,-1705.86 C-160.809,-1700.12 -116.194,-1695.27 -65.6591,-1693.61 C-49.0713,-1693.06 -32.0898,-1692.81 -15.0433,-1692.81 C35.7612,-1692.81 87.2188,-1695.02 130.9,-1698.2 C152.755,-1699.79 172.644,-1701.62 189.567,-1703.54 C206.479,-1705.45 220.401,-1707.45 230.351,-1709.39 C244.937,-1712.28 256.954,-1716.86 266.738,-1720.67 C271.61,-1722.58 275.948,-1724.28 279.72,-1725.48 C283.493,-1726.68 286.697,-1727.36 289.25,-1727.36 C290.798,-1727.36 292.099,-1727.13 293.259,-1726.66 C294.986,-1725.97 296.545,-1724.76 298.121,-1722.44 C299.681,-1720.13 301.175,-1716.7 302.497,-1711.99 C304.877,-1703.47 307.418,-1690.25 309.82,-1675.35 C313.457,-1652.96 316.851,-1626.68 319.328,-1606.02 C320.569,-1595.67 321.589,-1586.75 322.296,-1580.38 C322.641,-1577.21 322.916,-1574.68 323.094,-1572.95 C323.289,-1571.22 323.386,-1570.29 323.386,-1570.29 L326.451,-1570.61 L326.164,-1573.68 C326.164,-1573.68 325.377,-1573.59 323.855,-1573.45 C301.089,-1571.4 113.341,-1554.89 -53.1293,-1554.89 C-77.5522,-1554.89 -101.522,-1555.25 -124.439,-1556.05 C-219.313,-1559.39 -270.993,-1563.5 -298.869,-1566.77 C-312.796,-1568.39 -320.777,-1569.82 -325.196,-1570.8 C-327.409,-1571.3 -328.721,-1571.69 -329.427,-1571.92 C-329.783,-1572.03 -329.978,-1572.12 -330.064,-1572.16 L-330.102,-1572.17 L-330.96,-1570.4 L-329.978,-1572.1 L-330.102,-1572.17 L-330.96,-1570.4 L-329.978,-1572.1 L-331.51,-1569.43 L-328.446,-1569.15 L-318.323,-1677.73 L-318.323,-1677.87 L-321.398,-1677.87 L-324.468,-1678.15 L-334.759,-1567.73 L-333.032,-1566.76 C-332.546,-1566.5 -331.278,-1565.85 -326.541,-1564.79 C-319.45,-1563.21 -304.632,-1560.76 -273.729,-1558.05 C-242.841,-1555.36 -195.883,-1552.41 -124.66,-1549.9 C-101.646,-1549.09 -77.6115,-1548.72 -53.1293,-1548.72 C124.851,-1548.72 326.688,-1567.54 326.732,-1567.54 L329.839,-1567.83 L329.505,-1570.92 C329.505,-1570.93 326.705,-1597.76 322.684,-1628.98 C320.666,-1644.59 318.346,-1661.31 315.902,-1676.33 C313.468,-1691.36 310.926,-1704.66 308.427,-1713.64 C306.507,-1720.47 304.186,-1725.34 300.965,-1728.68 C299.362,-1730.36 297.527,-1731.59 295.525,-1732.39 C293.534,-1733.19 291.409,-1733.52 289.25,-1733.52 C285.661,-1733.5 281.916,-1732.63 277.854,-1731.34 C271.75,-1729.4 264.854,-1726.44 256.829,-1723.47 C248.806,-1720.5 239.659,-1717.51 229.158,-1715.45 C219.488,-1713.54 205.674,-1711.55 188.865,-1709.67 C138.428,-1703.92 60.9072,-1698.96 -15.0433,-1698.96 C-32.0358,-1698.96 -48.9473,-1699.21 -65.4648,-1699.76 C-122.891,-1701.64 -172.648,-1707.67 -210.529,-1714.45 C-229.47,-1717.81 -245.436,-1721.37 -257.896,-1724.69 C-264.129,-1726.34 -269.488,-1727.94 -273.879,-1729.42 C-278.272,-1730.88 -281.725,-1732.24 -284.073,-1733.36 C-285.924,-1734.26 -287.845,-1734.71 -289.739,-1734.71 C-292.793,-1734.71 -295.609,-1733.56 -298.082,-1731.85 C-300.25,-1730.33 -302.198,-1728.35 -304.023,-1726.08 C-307.211,-1722.11 -310.018,-1717.19 -312.489,-1712.04 C-316.207,-1704.28 -319.148,-1695.98 -321.193,-1689.57 C-323.237,-1683.17 -324.371,-1678.68 -324.382,-1678.61 L-324.479,-1678.24 L-324.479,-1677.87 L-321.398,-1677.87 L-324.468,-1678.15 L-321.398,-1677.87 Z " fill="#000000" fill-opacity="1.00" />			<path d="M10.1512,-1243 C12.7089,-1233.15 25.514,-1235.61 84.4181,-1208.52 C143.323,-1181.41 238.084,-1123.11 266.252,-1117.37 C294.42,-1111.62 395.149,-1285.69 424.185,-1354.65 C453.211,-1423.63 488.205,-1531.18 477.968,-1550.88 C467.716,-1570.58 429.301,-1595.21 396.007,-1619.03 C362.712,-1642.85 331.135,-1684.7 323.439,-1701.13 C315.761,-1717.55 293.577,-1735.62 293.577,-1730.68 C293.577,-1725.77 302.098,-1701.13 302.098,-1671.57 C302.098,-1642.01 305.525,-1599.33 232.958,-1479.44 C153.569,-1349.72 10.1512,-1243 10.1512,-1243 Z " fill="#5e5e5e" fill-opacity="1.00" />			<path d="M10.1512,-1243 L11.9912,-1240.53 C12.0452,-1240.58 47.9888,-1267.32 93.8775,-1310.32 C139.782,-1353.34 195.649,-1412.6 235.585,-1477.85 L235.596,-1477.86 C268.836,-1532.77 286.239,-1571.65 295.359,-1600.62 C299.902,-1615.11 302.373,-1627.13 303.7,-1637.39 C305.028,-1647.66 305.206,-1656.19 305.206,-1663.62 C305.206,-1666.41 305.179,-1669.04 305.179,-1671.57 C305.179,-1686.64 303.01,-1700.39 300.857,-1710.99 C299.777,-1716.27 298.698,-1720.78 297.9,-1724.22 C297.5,-1725.95 297.182,-1727.4 296.961,-1728.53 C296.848,-1729.09 296.766,-1729.58 296.713,-1729.95 C296.67,-1730.33 296.643,-1730.6 296.643,-1730.68 L294.695,-1730.68 L296.534,-1730.07 C296.627,-1730.36 296.643,-1730.56 296.643,-1730.68 L294.695,-1730.68 L296.534,-1730.07 L294.268,-1730.83 L296.146,-1729.35 C296.341,-1729.6 296.464,-1729.85 296.534,-1730.07 L294.268,-1730.83 L296.146,-1729.35 L294.225,-1730.86 L295.111,-1728.58 C295.455,-1728.71 295.871,-1728.98 296.146,-1729.35 L294.225,-1730.86 L295.111,-1728.58 L294.377,-1730.46 L294.377,-1728.43 C294.516,-1728.43 294.775,-1728.44 295.111,-1728.58 L294.377,-1730.46 L294.377,-1728.43 L294.377,-1729.33 L294.209,-1728.44 L294.377,-1728.43 L294.377,-1729.33 L294.209,-1728.44 C294.209,-1728.44 294.377,-1728.41 294.625,-1728.29 C295.111,-1728.09 295.871,-1727.67 296.75,-1727.08 C298.327,-1726.06 300.345,-1724.5 302.497,-1722.58 C305.746,-1719.72 309.366,-1716.04 312.626,-1712.08 C315.885,-1708.1 318.788,-1703.83 320.666,-1699.83 C322.711,-1695.46 326.191,-1689.67 330.805,-1682.97 C344.689,-1662.9 368.794,-1634.73 394.226,-1616.53 C410.911,-1604.59 428.815,-1592.49 443.747,-1580.98 C451.22,-1575.22 457.938,-1569.62 463.367,-1564.3 C468.795,-1558.98 472.923,-1553.94 475.233,-1549.46 C475.643,-1548.67 476.048,-1547.44 476.307,-1545.84 C476.571,-1544.24 476.711,-1542.29 476.711,-1540.02 C476.711,-1531.85 474.872,-1519.87 471.682,-1505.74 C462.093,-1463.28 440.406,-1401.13 421.342,-1355.85 C414.267,-1339.02 402.817,-1315.77 389.181,-1290.39 C368.74,-1252.31 343.335,-1209.45 320.321,-1176.21 C308.811,-1159.6 297.884,-1145.38 288.559,-1135.44 C283.907,-1130.46 279.639,-1126.56 276.002,-1123.99 C274.195,-1122.72 272.538,-1121.75 271.129,-1121.15 C269.705,-1120.56 268.529,-1120.31 267.676,-1120.31 C267.368,-1120.31 267.109,-1120.34 266.861,-1120.39 C263.667,-1121.04 259.22,-1122.52 253.927,-1124.68 C244.635,-1128.46 232.656,-1134.29 219.176,-1141.26 C198.935,-1151.73 175.273,-1164.77 151.832,-1177.43 C128.375,-1190.08 105.15,-1202.37 85.7023,-1211.3 C56.1531,-1224.89 38.0545,-1231.13 27.2138,-1235.1 C21.8121,-1237.08 18.2454,-1238.55 16.2002,-1239.86 C15.1803,-1240.51 14.5436,-1241.09 14.1012,-1241.67 C13.6586,-1242.25 13.3727,-1242.85 13.1244,-1243.77 L10.1512,-1243 L11.9912,-1240.53 L10.1512,-1243 L7.16713,-1242.22 C7.56637,-1240.68 8.23012,-1239.19 9.21221,-1237.92 C10.0702,-1236.8 11.1333,-1235.85 12.3635,-1235 C14.5167,-1233.55 17.1553,-1232.37 20.6358,-1231.01 C25.8593,-1228.98 33.0145,-1226.53 43.1269,-1222.64 C53.2393,-1218.78 66.2763,-1213.46 83.1338,-1205.7 C112.402,-1192.25 150.807,-1170.91 185.396,-1152.22 C202.69,-1142.88 219.046,-1134.19 232.893,-1127.47 C239.811,-1124.09 246.113,-1121.21 251.606,-1118.97 C257.106,-1116.74 261.789,-1115.15 265.631,-1114.35 C266.306,-1114.22 266.997,-1114.16 267.676,-1114.16 C270.288,-1114.16 272.856,-1115.04 275.506,-1116.44 C280.465,-1119.08 285.866,-1123.72 291.85,-1129.95 C302.309,-1140.86 314.434,-1156.76 327.201,-1175.35 C346.33,-1203.25 366.857,-1237.26 384.815,-1269.56 C402.774,-1301.87 418.153,-1332.41 427.019,-1353.46 C439.813,-1383.86 453.735,-1421.65 464.484,-1456.23 C469.858,-1473.52 474.445,-1490.01 477.688,-1504.38 C480.92,-1518.76 482.857,-1530.99 482.868,-1540.02 C482.868,-1542.54 482.718,-1544.81 482.372,-1546.85 C482.043,-1548.87 481.53,-1550.7 480.699,-1552.31 C477.882,-1557.69 473.366,-1563.11 467.673,-1568.68 C459.136,-1577.06 447.907,-1585.78 435.679,-1594.69 C423.468,-1603.59 410.247,-1612.63 397.804,-1621.53 C381.459,-1633.2 365.384,-1649.47 352.482,-1664.83 C346.028,-1672.5 340.378,-1679.97 335.873,-1686.47 C331.382,-1692.99 328.026,-1698.59 326.235,-1702.44 C322.56,-1710.26 316.134,-1718 310.041,-1723.98 C306.987,-1726.96 304.036,-1729.49 301.477,-1731.3 C300.193,-1732.24 299.016,-1732.98 297.927,-1733.54 C297.377,-1733.82 296.837,-1734.06 296.281,-1734.26 C295.714,-1734.43 295.137,-1734.58 294.377,-1734.6 C293.988,-1734.6 293.55,-1734.56 293.065,-1734.39 C292.703,-1734.27 292.304,-1734.06 291.959,-1733.79 C291.419,-1733.39 290.993,-1732.8 290.772,-1732.24 C290.55,-1731.67 290.496,-1731.14 290.496,-1730.68 C290.496,-1730.16 290.534,-1729.67 290.62,-1729.12 C290.895,-1727.13 291.543,-1724.39 292.374,-1720.78 C294.889,-1710.04 299.033,-1691.95 299.033,-1671.57 C299.033,-1669.01 299.043,-1666.37 299.043,-1663.62 C299.043,-1656.28 298.882,-1648.11 297.598,-1638.19 C295.677,-1623.33 291.268,-1604.56 281.129,-1579.23 C270.989,-1553.9 255.131,-1522.03 230.319,-1481.05 L230.335,-1481.07 C190.867,-1416.57 135.336,-1357.61 89.6792,-1314.83 C66.8429,-1293.43 46.4834,-1276.08 31.8382,-1264.07 C24.5211,-1258.08 18.6339,-1253.43 14.5706,-1250.25 C12.5417,-1248.69 10.9822,-1247.48 9.91909,-1246.67 C9.37946,-1246.27 8.98023,-1245.96 8.71581,-1245.77 C8.4406,-1245.57 8.31648,-1245.47 8.31648,-1245.47 L6.64367,-1244.22 L7.16713,-1242.22 L10.1512,-1243 Z " fill="#000000" fill-opacity="1.00" />			<path d="M2.7045,-1243 C2.7045,-1243 -145.781,-1349.72 -227.974,-1479.44 C-303.094,-1599.33 -299.559,-1642.01 -299.559,-1671.57 C-299.559,-1701.13 -290.721,-1725.77 -290.721,-1730.68 C-290.721,-1735.62 -313.703,-1717.55 -321.646,-1701.13 C-329.605,-1684.7 -362.306,-1642.85 -396.782,-1619.03 C-431.252,-1595.21 -471.022,-1570.58 -481.631,-1550.88 C-492.223,-1531.18 -455.988,-1423.63 -425.942,-1354.65 C-395.897,-1285.69 -291.6,-1111.62 -262.44,-1117.37 C-233.279,-1123.11 -135.172,-1181.41 -74.185,-1208.52 C-13.2087,-1235.61 0.0549693,-1233.15 2.7045,-1243 Z " fill="#5e5e5e" fill-opacity="1.00" />			<path d="M2.70453,-1243 L4.50147,-1245.5 C4.50147,-1245.5 4.36654,-1245.59 4.08597,-1245.8 C-0.236411,-1248.93 -37.8096,-1276.49 -84.211,-1318.91 C-130.601,-1361.32 -185.799,-1418.63 -225.363,-1481.09 C-259.612,-1535.73 -277.387,-1574.17 -286.604,-1602.5 C-291.202,-1616.67 -293.673,-1628.3 -295,-1638.2 C-296.327,-1648.11 -296.505,-1656.28 -296.505,-1663.62 C-296.505,-1666.37 -296.479,-1669.01 -296.479,-1671.57 C-296.479,-1686.05 -294.309,-1699.38 -292.129,-1709.74 C-291.039,-1714.91 -289.944,-1719.34 -289.102,-1722.81 C-288.686,-1724.56 -288.341,-1726.06 -288.082,-1727.35 C-287.959,-1727.98 -287.845,-1728.56 -287.775,-1729.1 C-287.693,-1729.65 -287.639,-1730.15 -287.639,-1730.68 C-287.639,-1731.1 -287.693,-1731.57 -287.872,-1732.09 C-288.012,-1732.46 -288.218,-1732.85 -288.509,-1733.2 C-288.934,-1733.74 -289.528,-1734.14 -290.084,-1734.34 C-290.634,-1734.54 -291.131,-1734.6 -291.563,-1734.6 C-292.307,-1734.58 -292.89,-1734.44 -293.468,-1734.27 C-294.52,-1733.91 -295.539,-1733.39 -296.673,-1732.73 C-298.648,-1731.54 -300.925,-1729.87 -303.386,-1727.81 C-307.077,-1724.74 -311.15,-1720.79 -314.907,-1716.42 C-318.668,-1712.07 -322.089,-1707.3 -324.425,-1702.48 C-326.276,-1698.64 -329.746,-1693.02 -334.414,-1686.5 C-348.378,-1666.94 -373.136,-1639.09 -398.524,-1621.55 C-415.722,-1609.69 -434.301,-1597.56 -449.993,-1585.88 C-457.845,-1580.04 -464.968,-1574.31 -470.854,-1568.74 C-476.752,-1563.14 -481.42,-1557.73 -484.339,-1552.35 C-485.193,-1550.73 -485.732,-1548.9 -486.093,-1546.86 C-486.439,-1544.82 -486.59,-1542.54 -486.59,-1540.02 C-486.573,-1530.97 -484.588,-1518.75 -481.231,-1504.35 C-471.146,-1461.26 -448.627,-1399.02 -428.765,-1353.42 C-421.302,-1336.31 -409.398,-1312.93 -395.206,-1287.43 C-373.935,-1249.19 -347.564,-1206.21 -323.53,-1172.67 C-311.507,-1155.91 -300.083,-1141.5 -290.068,-1131.18 C-285.071,-1126.03 -280.414,-1121.88 -276.119,-1118.94 C-273.977,-1117.48 -271.916,-1116.3 -269.902,-1115.48 C-267.884,-1114.65 -265.893,-1114.16 -263.918,-1114.16 C-263.217,-1114.16 -262.526,-1114.22 -261.846,-1114.35 C-257.886,-1115.15 -253.05,-1116.73 -247.358,-1118.95 C-237.413,-1122.87 -224.91,-1128.75 -210.858,-1135.77 C-189.792,-1146.29 -165.271,-1159.35 -141.043,-1171.99 C-116.798,-1184.63 -92.834,-1196.86 -72.9384,-1205.69 C-42.5366,-1219.19 -24.1467,-1225.3 -12.8364,-1229.32 C-7.1704,-1231.33 -3.24741,-1232.8 -0.236411,-1234.63 C1.25836,-1235.55 2.54264,-1236.6 3.54634,-1237.88 C4.57157,-1239.15 5.26227,-1240.65 5.67778,-1242.19 L6.22821,-1244.25 L4.50147,-1245.5 L2.70453,-1243 L-0.26332,-1243.79 C-0.511627,-1242.88 -0.81375,-1242.28 -1.27241,-1241.71 C-1.67173,-1241.2 -2.22758,-1240.69 -3.08013,-1240.11 C-4.57489,-1239.14 -6.96527,-1238.05 -10.4027,-1236.75 C-15.5829,-1234.8 -23.0836,-1232.33 -33.6546,-1228.42 C-44.2202,-1224.49 -57.867,-1219.12 -75.4423,-1211.32 C-106.109,-1197.7 -145.894,-1176.34 -181.671,-1157.66 C-199.558,-1148.34 -216.427,-1139.68 -230.602,-1133.02 C-237.688,-1129.69 -244.109,-1126.86 -249.608,-1124.69 C-255.09,-1122.54 -259.704,-1121.04 -263.034,-1120.39 C-263.298,-1120.34 -263.589,-1120.31 -263.918,-1120.31 C-265.148,-1120.31 -266.945,-1120.77 -269.125,-1121.89 C-273.216,-1123.98 -278.52,-1128.27 -284.461,-1134.25 C-294.865,-1144.75 -307.298,-1160.43 -320.394,-1178.89 C-340.046,-1206.56 -361.226,-1240.44 -379.735,-1272.6 C-398.249,-1304.75 -414.109,-1335.2 -423.126,-1355.88 C-436.276,-1386.06 -450.647,-1423.74 -461.697,-1458.1 C-467.223,-1475.27 -471.918,-1491.6 -475.236,-1505.75 C-478.534,-1519.89 -480.443,-1531.86 -480.427,-1540.02 C-480.427,-1542.28 -480.293,-1544.24 -480.012,-1545.82 C-479.752,-1547.42 -479.338,-1548.63 -478.911,-1549.42 C-476.52,-1553.88 -472.252,-1558.94 -466.629,-1564.26 C-458.19,-1572.26 -446.75,-1580.85 -434.204,-1589.68 C-421.647,-1598.51 -407.985,-1607.54 -395.028,-1616.5 C-377.485,-1628.63 -360.563,-1645.18 -346.954,-1660.83 C-340.144,-1668.65 -334.176,-1676.23 -329.4,-1682.93 C-324.603,-1689.63 -321.014,-1695.42 -318.883,-1699.79 C-315.651,-1706.51 -309.354,-1713.95 -303.429,-1719.54 C-300.472,-1722.35 -297.601,-1724.69 -295.291,-1726.28 C-294.148,-1727.08 -293.15,-1727.69 -292.404,-1728.05 C-292.043,-1728.22 -291.741,-1728.35 -291.573,-1728.41 L-291.423,-1728.44 L-291.477,-1728.75 L-291.45,-1728.43 L-291.423,-1728.44 L-291.477,-1728.75 L-291.45,-1728.43 L-291.563,-1729.53 L-291.563,-1728.43 L-291.45,-1728.43 L-291.563,-1729.53 L-291.563,-1728.43 L-291.563,-1730.34 L-292.14,-1728.53 C-291.865,-1728.44 -291.671,-1728.43 -291.563,-1728.43 L-291.563,-1730.34 L-292.14,-1728.53 L-291.395,-1730.85 L-293.457,-1729.56 C-293.138,-1729.04 -292.545,-1728.64 -292.14,-1728.53 L-291.395,-1730.85 L-293.457,-1729.56 L-291.643,-1730.68 L-293.802,-1730.68 C-293.802,-1730.51 -293.77,-1730.07 -293.457,-1729.56 L-291.643,-1730.68 L-293.802,-1730.68 C-293.802,-1730.6 -293.813,-1730.34 -293.866,-1729.97 C-294.061,-1728.54 -294.725,-1725.78 -295.593,-1722.21 C-298.194,-1711.39 -302.641,-1692.78 -302.641,-1671.57 C-302.641,-1669.04 -302.668,-1666.41 -302.668,-1663.62 C-302.668,-1656.19 -302.473,-1647.66 -301.109,-1637.38 C-299.047,-1621.97 -294.309,-1602.64 -283.646,-1576.91 C-272.984,-1551.17 -256.391,-1519.01 -230.586,-1477.82 L-230.559,-1477.79 L-230.57,-1477.81 C-189.226,-1412.56 -131.389,-1353.31 -83.8819,-1310.3 C-36.358,-1267.27 0.842861,-1240.54 0.913055,-1240.5 L2.70453,-1243 L-0.26332,-1243.79 L2.70453,-1243 Z " fill="#000000" fill-opacity="1.00" />		</g>	</svg>