<?xml version="1.0" encoding="utf-8" ?>	<!-- Generator: Assembly 2.4 - http://assemblyapp.co -->	<svg version="1.1" xmlns="http://www.w3.org/2000/svg" xmlns:xlink="http://www.w3.org/1999/xlink" width="4096.00" height="4096.00" viewBox="0 0 4096.0 4096.0">		<g id="document" transform="scale(1.0 1.0) translate(2048.0 2048.0)">			<path d="M1030.22,-1227.5 L946.648,-934.387 L875.353,-584.006 L832.418,-265.849 L826.281,-124.774 L855.42,-78.0075 L925.189,-74.9388 C925.189,-74.9388 1103.05,-114.811 1141.39,-129.38 C1179.71,-143.939 1316.95,-184.579 1336.12,-204.518 C1355.28,-224.435 1367.55,-252.806 1367.55,-261.238 C1367.55,-269.676 1369.85,-285.014 1356.05,-298.815 C1342.25,-312.611 1326.15,-363.215 1313.11,-442.174 C1300.08,-521.143 1275.55,-592.438 1251.78,-729.676 C1228.02,-866.913 1197.35,-975.011 1165.91,-1072.38 C1134.49,-1169.74 1076.22,-1223.42 1076.22,-1223.42 L1030.22,-1227.5 Z " fill="#636363" fill-opacity="1.00" />			<path d="M1030.22,-1227.5 L1029.94,-1224.45 L1075.95,-1220.36 L1076.22,-1223.42 L1074.15,-1221.16 L1074.17,-1221.13 C1075.72,-1219.7 1132.3,-1166.56 1163,-1071.44 C1194.41,-974.146 1225.02,-866.214 1248.76,-729.154 C1260.67,-660.444 1272.76,-608.233 1283.49,-563.369 C1294.23,-518.488 1303.61,-480.997 1310.1,-441.679 C1316.62,-402.098 1323.93,-369.599 1331.37,-345.163 C1335.08,-332.947 1338.84,-322.741 1342.57,-314.647 C1346.32,-306.543 1350,-300.545 1353.88,-296.638 C1358.7,-291.812 1361.33,-286.911 1362.83,-282.165 C1364.32,-277.436 1364.62,-272.836 1364.62,-268.724 C1364.62,-265.989 1364.49,-263.484 1364.49,-261.238 C1364.49,-260.55 1364.33,-259.368 1364,-257.884 C1363.4,-255.294 1362.24,-251.801 1360.59,-247.813 C1355.62,-235.818 1346.13,-219.335 1333.91,-206.635 C1332.93,-205.614 1331.42,-204.389 1329.48,-203.083 C1325.81,-200.605 1320.61,-197.789 1314.3,-194.801 C1303.23,-189.561 1288.77,-183.768 1272.84,-177.851 C1248.95,-168.962 1221.75,-159.815 1197.56,-151.764 C1173.36,-143.719 1152.22,-136.77 1140.29,-132.245 C1135.65,-130.482 1128.72,-128.268 1120.24,-125.806 C1090.49,-117.138 1041.53,-105.153 1000.03,-95.3557 C979.286,-90.4597 960.406,-86.1012 946.707,-82.9734 C939.866,-81.4095 934.309,-80.1412 930.472,-79.2759 C926.634,-78.4106 924.512,-77.9431 924.512,-77.9431 L925.189,-74.9389 L925.323,-78.0076 L857.167,-81.0064 L829.387,-125.597 L835.471,-265.575 L878.368,-583.485 L949.636,-933.656 L1033.16,-1226.66 L1030.22,-1227.5 L1029.94,-1224.45 L1030.22,-1227.5 L1027.27,-1228.34 L943.666,-935.102 L872.328,-584.527 L829.36,-266.112 L823.185,-123.963 L853.673,-75.0248 L925.447,-71.8594 L925.861,-71.9561 C925.861,-71.9561 970.343,-81.9147 1019.63,-93.7219 C1044.27,-99.6121 1070.12,-105.965 1092.21,-111.758 C1103.26,-114.66 1113.37,-117.412 1121.94,-119.916 C1130.53,-122.404 1137.53,-124.635 1142.47,-126.505 C1151.95,-130.111 1167.71,-135.383 1186.26,-141.542 C1214.09,-150.802 1248.23,-162.083 1277.26,-172.939 C1291.78,-178.377 1305.02,-183.698 1315.61,-188.637 C1320.91,-191.114 1325.53,-193.495 1329.36,-195.763 C1333.19,-198.037 1336.2,-200.181 1338.33,-202.384 C1348.18,-212.644 1356.17,-224.935 1361.75,-235.785 C1364.54,-241.224 1366.73,-246.297 1368.23,-250.618 C1368.99,-252.779 1369.58,-254.746 1369.97,-256.519 C1370.37,-258.282 1370.62,-259.825 1370.62,-261.238 C1370.62,-263.221 1370.76,-265.795 1370.76,-268.724 C1370.76,-273.142 1370.43,-278.409 1368.68,-283.998 C1366.93,-289.582 1363.74,-295.456 1358.23,-300.975 C1355.2,-303.974 1351.69,-309.477 1348.14,-317.206 C1342.78,-328.819 1337.19,-345.442 1331.75,-366.52 C1326.32,-387.592 1321.02,-413.131 1316.14,-442.684 C1309.61,-482.319 1300.19,-519.961 1289.46,-564.788 C1278.73,-609.625 1266.68,-661.67 1254.8,-730.202 C1231.02,-867.601 1200.29,-975.876 1168.83,-1073.31 C1137.14,-1171.44 1078.52,-1225.45 1078.3,-1225.67 L1077.53,-1226.37 L1027.96,-1230.78 L1027.27,-1228.34 L1030.22,-1227.5 Z " fill="#000000" fill-opacity="1.00" />			<path d="M1355.79,-230.836 C1333.82,-207.323 1217.29,-173.078 1094.11,-136.786 C970.935,-100.504 855.42,-78.0075 855.42,-78.0075 L888.122,1.71977 C888.122,1.71977 963.255,-16.6764 1075.7,-46.3262 C1188.15,-75.9599 1353.24,-130.649 1353.24,-130.649 L1355.79,-230.836 Z " fill="#5e5e5e" fill-opacity="1.00" />			<path d="M1355.79,-230.836 L1352.73,-230.916 L1350.18,-130.729 L1353.24,-130.649 L1352.28,-133.567 C1352.27,-133.567 1351.63,-133.357 1350.4,-132.943 C1331.88,-126.838 1180.19,-77.0348 1074.93,-49.2821 C1018.72,-34.4652 971.827,-22.4537 939.001,-14.1558 C922.588,-10.0015 909.684,-6.78234 900.892,-4.59501 C896.49,-3.49328 893.115,-2.67102 890.847,-2.10672 C888.563,-1.54242 887.408,-1.25221 887.392,-1.25221 L888.122,1.71976 L890.971,0.564291 L858.252,-79.1791 L855.42,-78.0076 L855.995,-74.998 C856.054,-75.0087 971.633,-97.5054 1094.98,-133.841 C1156.56,-151.984 1216.52,-169.623 1263.89,-185.692 C1287.58,-193.726 1308.12,-201.379 1324.2,-208.516 C1332.25,-212.096 1339.17,-215.551 1344.85,-218.894 C1350.52,-222.237 1354.95,-225.456 1358.03,-228.745 L1355.79,-230.836 L1352.73,-230.916 L1355.79,-230.836 L1353.56,-232.926 C1351.14,-230.341 1347.12,-227.342 1341.74,-224.177 C1332.31,-218.62 1318.74,-212.493 1302.06,-205.985 C1252.02,-186.476 1174.07,-163.544 1093.24,-139.726 C1031.73,-121.609 972.117,-106.927 927.881,-96.7745 C905.777,-91.7012 887.504,-87.7618 874.762,-85.0962 C868.393,-83.758 863.401,-82.7423 860.015,-82.0544 C858.322,-81.7104 857.016,-81.4471 856.151,-81.2858 C855.28,-81.1031 854.829,-81.0225 854.829,-81.0225 L851.153,-80.3077 L886.295,5.32589 L888.853,4.70248 C888.864,4.70248 964.029,-13.7044 1076.49,-43.3543 C1189.1,-73.0417 1354.18,-127.73 1354.21,-127.746 L1356.26,-128.418 L1359.06,-238.827 L1353.56,-232.926 L1355.79,-230.836 Z " fill="#000000" fill-opacity="1.00" />			<path d="M-1023.09,-1229.22 L-1069.1,-1225.13 C-1069.1,-1225.13 -1127.36,-1171.46 -1158.8,-1074.1 C-1190.22,-976.731 -1220.89,-868.633 -1244.66,-731.395 C-1268.42,-594.158 -1292.96,-522.863 -1306,-443.893 C-1319.03,-364.934 -1335.12,-314.33 -1348.92,-300.535 C-1362.72,-286.733 -1360.42,-271.395 -1360.42,-262.958 C-1360.42,-254.525 -1348.17,-226.155 -1329,-206.238 C-1309.82,-186.299 -1172.6,-145.659 -1134.25,-131.1 C-1095.92,-116.53 -918.057,-76.6586 -918.057,-76.6586 L-848.294,-79.7273 L-819.165,-126.494 L-825.286,-267.569 L-868.227,-585.726 L-939.522,-936.107 L-1023.09,-1229.22 Z " fill="#636363" fill-opacity="1.00" />			<path d="M-1023.09,-1229.22 L-1023.37,-1232.28 L-1070.4,-1228.09 L-1071.18,-1227.39 C-1071.39,-1227.17 -1130.03,-1173.15 -1161.72,-1075.03 C-1193.17,-977.596 -1223.89,-869.321 -1247.68,-731.922 C-1259.55,-663.389 -1271.6,-611.345 -1282.33,-566.507 C-1293.06,-521.68 -1302.47,-484.039 -1309.02,-444.404 C-1315.52,-405.01 -1322.78,-372.722 -1330.1,-348.672 C-1333.76,-336.65 -1337.45,-326.675 -1341.01,-318.925 C-1344.58,-311.197 -1348.08,-305.694 -1351.09,-302.695 C-1356.62,-297.176 -1359.82,-291.302 -1361.55,-285.718 C-1363.32,-280.128 -1363.64,-274.862 -1363.64,-270.444 C-1363.64,-267.515 -1363.49,-264.941 -1363.49,-262.958 C-1363.49,-261.544 -1363.26,-260.002 -1362.85,-258.239 C-1362.14,-255.16 -1360.88,-251.403 -1359.13,-247.179 C-1353.86,-234.506 -1344.13,-217.572 -1331.2,-204.104 C-1329.79,-202.632 -1327.97,-201.202 -1325.78,-199.713 C-1321.7,-196.962 -1316.27,-194.043 -1309.79,-190.975 C-1298.46,-185.611 -1283.89,-179.764 -1267.86,-173.82 C-1243.82,-164.893 -1216.57,-155.73 -1192.37,-147.669 C-1168.17,-139.618 -1147.01,-132.658 -1135.36,-128.225 C-1130.42,-126.354 -1123.4,-124.124 -1114.83,-121.636 C-1084.84,-112.897 -1035.86,-100.929 -994.318,-91.1046 C-952.796,-81.3127 -918.734,-73.6759 -918.734,-73.6759 L-918.331,-73.5791 L-846.542,-76.7446 L-816.053,-125.683 L-822.234,-267.832 L-865.201,-586.247 L-936.55,-936.821 L-1020.85,-1232.5 L-1023.37,-1232.28 L-1023.09,-1229.22 L-1026.05,-1228.38 L-942.505,-935.376 L-871.253,-585.215 L-828.355,-267.295 L-822.261,-127.316 L-850.04,-82.7261 L-918.197,-79.7273 L-918.057,-76.6586 L-917.385,-79.6628 C-917.396,-79.6628 -918.084,-79.8133 -919.395,-80.0981 C-929.23,-82.3177 -973.778,-92.3998 -1020.35,-103.627 C-1043.63,-109.243 -1067.42,-115.144 -1087.62,-120.497 C-1097.71,-123.162 -1106.9,-125.693 -1114.67,-127.978 C-1122.45,-130.262 -1128.82,-132.315 -1133.17,-133.964 C-1142.87,-137.651 -1158.63,-142.918 -1177.19,-149.082 C-1205.03,-158.342 -1239.12,-169.612 -1267.98,-180.409 C-1282.42,-185.805 -1295.56,-191.088 -1305.9,-195.919 C-1311.06,-198.337 -1315.53,-200.638 -1319.11,-202.755 C-1322.67,-204.862 -1325.32,-206.829 -1326.79,-208.355 C-1336.1,-218.023 -1343.83,-229.901 -1349.17,-240.316 C-1351.84,-245.513 -1353.93,-250.355 -1355.32,-254.348 C-1356.01,-256.342 -1356.53,-258.132 -1356.87,-259.604 C-1357.22,-261.087 -1357.37,-262.27 -1357.36,-262.958 C-1357.37,-265.204 -1357.51,-267.709 -1357.51,-270.444 C-1357.51,-274.555 -1357.19,-279.156 -1355.71,-283.885 C-1354.22,-288.631 -1351.58,-293.532 -1346.76,-298.358 C-1342.88,-302.265 -1339.2,-308.263 -1335.44,-316.367 C-1329.84,-328.502 -1324.2,-345.399 -1318.69,-366.708 C-1313.21,-388.006 -1307.87,-413.706 -1302.97,-443.399 C-1296.48,-482.717 -1287.11,-520.208 -1276.38,-565.088 C-1265.63,-609.953 -1253.54,-662.164 -1241.64,-730.874 C-1217.9,-867.934 -1187.28,-975.865 -1155.88,-1073.16 C-1140.28,-1121.47 -1118.02,-1158.95 -1099.66,-1184.33 C-1090.5,-1197.03 -1082.31,-1206.68 -1076.42,-1213.17 C-1073.47,-1216.4 -1071.12,-1218.85 -1069.49,-1220.47 C-1068.68,-1221.28 -1068.05,-1221.89 -1067.64,-1222.29 C-1067.42,-1222.49 -1067.26,-1222.65 -1067.16,-1222.74 L-1067.05,-1222.85 L-1067.02,-1222.88 L-1069.1,-1225.13 L-1068.82,-1222.08 L-1022.83,-1226.17 L-1023.09,-1229.22 L-1026.05,-1228.38 L-1023.09,-1229.22 Z " fill="#000000" fill-opacity="1.00" />			<path d="M-1348.68,-232.555 L-1346.12,-132.368 C-1346.12,-132.368 -1181.03,-77.6797 -1068.59,-48.046 C-956.139,-18.3961 -881.007,1.35003e-13 -881.007,1.35003e-13 L-848.294,-79.7273 C-848.294,-79.7273 -963.803,-102.224 -1086.98,-138.506 C-1210.16,-174.798 -1326.69,-209.043 -1348.68,-232.555 Z " fill="#5e5e5e" fill-opacity="1.00" />			<path d="M-1348.68,-232.555 L-1351.74,-232.469 L-1349.13,-130.138 L-1347.08,-129.466 C-1347.05,-129.45 -1181.97,-74.7615 -1069.37,-45.074 C-956.897,-15.4242 -881.749,2.98271 -881.738,2.98271 L-879.164,3.60613 L-844.037,-82.0275 L-847.713,-82.7423 C-847.713,-82.7423 -848.154,-82.8229 -849.019,-83.0056 C-862.116,-85.5906 -970.795,-107.48 -1086.12,-141.445 C-1147.71,-159.594 -1207.61,-177.217 -1254.79,-193.221 C-1278.39,-201.229 -1298.79,-208.823 -1314.58,-215.836 C-1322.48,-219.345 -1329.23,-222.715 -1334.61,-225.897 C-1339.99,-229.062 -1344.02,-232.061 -1346.43,-234.646 L-1351.95,-240.547 L-1351.74,-232.469 L-1348.68,-232.555 L-1350.92,-230.465 C-1347.84,-227.176 -1343.4,-223.957 -1337.72,-220.614 C-1327.8,-214.767 -1314.02,-208.559 -1297.18,-201.997 C-1246.68,-182.311 -1168.69,-159.39 -1087.85,-135.561 C-964.507,-99.2252 -848.939,-76.7285 -848.885,-76.7177 L-848.294,-79.7273 L-851.126,-80.8989 L-883.845,-1.15547 L-881.007,-6.07191e-06 L-880.281,-2.97198 C-880.281,-2.97198 -881.448,-3.26219 -883.721,-3.82649 C-899.623,-7.74433 -969.43,-25.0656 -1067.8,-51.0018 C-1123.93,-65.808 -1193.29,-86.8858 -1248.6,-104.245 C-1276.25,-112.94 -1300.4,-120.701 -1317.62,-126.285 C-1326.23,-129.079 -1333.11,-131.32 -1337.85,-132.879 C-1340.21,-133.663 -1342.04,-134.255 -1343.28,-134.663 C-1344.51,-135.077 -1345.15,-135.287 -1345.15,-135.287 L-1346.12,-132.368 L-1343.05,-132.449 L-1345.61,-232.636 L-1348.68,-232.555 L-1350.92,-230.465 L-1348.68,-232.555 Z " fill="#000000" fill-opacity="1.00" />			<path d="M-426.317,-1559.72 C-426.317,-1559.72 -568.907,-1486.11 -752.906,-1399.48 C-921.583,-1319.75 -1045.02,-1262.24 -1071.85,-1222.38 C-1046.55,-1151.08 -875.574,-741.934 -830.596,-104.067 C-795.846,513.356 -789.709,750.506 -789.709,918.162 C-789.709,1085.81 -795.846,1253.45 -789.709,1339.31 C-783.571,1425.18 -814.242,1483.95 -811.942,1579.79 C-809.642,1675.63 -808.116,1691.73 -808.116,1691.73 C-808.116,1691.73 -706.913,1752.29 -591.398,1776.82 C-475.884,1801.35 -385.934,1812.61 -104.817,1809.54 C176.289,1806.47 360.294,1821.8 521.801,1796.25 C677.182,1770.68 768.153,1717.54 804.956,1688.91 C808.024,1596.92 813.141,1526.38 799.85,1456.86 C786.559,1387.36 787.581,1231.99 787.581,1102.16 C787.581,972.329 772.253,885.443 780.422,768.913 C788.596,652.383 804.956,426.459 809.04,282.332 C813.141,138.199 833.584,-81.5707 832.552,-170.504 C831.537,-259.454 861.187,-440.384 893.889,-611.098 C926.602,-781.806 1042.12,-1136.52 1071.75,-1222.38 C1045.19,-1251 952.151,-1314.39 871.656,-1348.88 C791.154,-1383.38 462.255,-1532.88 431.589,-1552.04 C400.918,-1571.21 377.158,-1573.52 377.158,-1573.52 L-191.714,-1556.65 L-426.317,-1559.72 Z " fill="#636363" fill-opacity="1.00" />			<path d="M-426.317,-1559.72 L-427.719,-1562.45 C-427.719,-1562.45 -428.268,-1562.16 -429.359,-1561.59 C-445.675,-1553.2 -581.767,-1483.44 -754.212,-1402.25 L-754.228,-1402.25 C-838.55,-1362.39 -911.592,-1328.07 -967.011,-1298.69 C-994.705,-1283.99 -1018,-1270.54 -1036.13,-1258.2 C-1045.2,-1252.02 -1052.98,-1246.12 -1059.38,-1240.46 C-1065.8,-1234.81 -1070.83,-1229.39 -1074.39,-1224.09 L-1075.26,-1222.81 L-1074.74,-1221.35 C-1068.36,-1203.41 -1052.97,-1164.57 -1032.71,-1106.25 C-971.897,-931.383 -867.372,-581.915 -833.665,-103.847 L-830.596,-104.067 L-833.665,-103.89 C-798.915,513.506 -792.778,750.603 -792.778,918.162 C-792.778,1029.88 -795.502,1141.62 -795.502,1229.22 C-795.502,1273.01 -794.825,1310.76 -792.778,1339.53 C-792.213,1347.29 -791.966,1354.82 -791.966,1362.18 C-791.966,1397.39 -797.7,1428.66 -803.51,1461.46 C-809.298,1494.24 -815.134,1528.54 -815.134,1569.5 C-815.134,1572.91 -815.091,1576.36 -815.011,1579.86 C-812.711,1675.74 -811.184,1691.83 -811.174,1692.01 L-811.018,1693.56 L-809.685,1694.36 C-809.615,1694.39 -784.222,1709.58 -744.35,1727.85 C-704.478,1746.13 -650.118,1767.5 -592.032,1779.82 C-540.439,1790.79 -493.812,1799.11 -433.056,1804.7 C-372.3,1810.27 -297.431,1813.1 -189.166,1813.1 C-163.069,1813.1 -135.026,1812.94 -104.79,1812.61 C-76.9139,1812.3 -50.0049,1812.18 -23.9719,1812.18 C86.8777,1812.18 181.766,1814.41 266.335,1814.41 C362.148,1814.41 444.74,1811.55 522.28,1799.27 L522.296,1799.27 C600.233,1786.45 662.064,1766.71 709.063,1746.55 C756.061,1726.38 788.199,1705.83 806.842,1691.33 L807.971,1690.45 L808.024,1689.02 C809.551,1643.05 811.598,1602.4 811.598,1564.45 C811.598,1526.52 809.551,1491.31 802.865,1456.3 C800.017,1441.41 797.813,1422.41 796.12,1400.5 C791.058,1334.72 790.617,1242.69 790.617,1155.17 C790.617,1137.23 790.644,1119.47 790.644,1102.16 C790.644,999.459 781.083,923.681 781.083,839.246 C781.083,816.723 781.771,793.581 783.48,769.123 C791.665,652.587 808.024,426.68 812.109,282.429 C814.103,212.203 819.993,123.904 825.372,41.5646 C830.763,-40.7961 835.664,-117.164 835.664,-163.792 C835.664,-166.119 835.648,-168.371 835.621,-170.547 C835.61,-172.03 835.594,-173.53 835.594,-175.072 C835.594,-219.996 842.871,-286.97 854.184,-363.612 C865.491,-440.26 880.829,-526.619 896.899,-610.517 C913.204,-695.624 950.254,-826.961 986.907,-947.661 C1023.57,-1068.36 1059.85,-1178.51 1074.66,-1221.38 L1075.26,-1223.11 L1074.01,-1224.46 C1067.14,-1231.85 1056.26,-1241.23 1042.46,-1251.8 C1001.09,-1283.48 933.578,-1325.67 872.865,-1351.69 C832.676,-1368.92 730.318,-1414.93 634.215,-1459 C586.158,-1481.04 539.671,-1502.6 503.282,-1519.83 C485.09,-1528.46 469.424,-1536 457.369,-1541.97 C451.329,-1544.97 446.212,-1547.56 442.128,-1549.7 C438.054,-1551.84 434.996,-1553.53 433.212,-1554.64 C402.036,-1574.14 377.792,-1576.53 377.448,-1576.57 L377.255,-1576.59 L-191.741,-1559.72 L-427.042,-1562.79 L-427.719,-1562.45 L-426.317,-1559.72 L-426.354,-1556.65 L-191.687,-1553.58 L377.244,-1570.45 L377.158,-1573.52 L376.857,-1570.46 C377.255,-1570.42 400.289,-1568 429.966,-1549.44 C432.013,-1548.16 435.125,-1546.44 439.279,-1544.27 C454.811,-1536.12 484.735,-1521.73 522.156,-1504.16 C634.398,-1451.46 813.775,-1370.35 870.441,-1346.06 C910.469,-1328.91 953.748,-1304.51 990.266,-1280.86 C1008.52,-1269.02 1025.1,-1257.39 1038.73,-1246.93 C1052.37,-1236.5 1063.09,-1227.23 1069.51,-1220.29 L1071.75,-1222.38 L1068.86,-1223.39 C1054.02,-1180.39 1017.72,-1070.25 981.033,-949.451 C944.353,-828.637 907.287,-697.263 890.874,-611.673 C874.789,-527.721 859.451,-441.292 848.116,-364.51 C836.793,-287.712 829.473,-220.614 829.457,-175.072 C829.457,-173.519 829.473,-171.977 829.484,-170.477 C829.511,-168.333 829.527,-166.086 829.527,-163.792 C829.527,-117.551 824.642,-41.1669 819.251,41.1615 C813.871,123.506 807.981,211.832 805.987,282.246 C801.903,426.255 785.544,652.162 777.369,768.693 C775.639,793.307 774.951,816.599 774.962,839.246 C774.962,924.176 784.512,999.872 784.512,1102.16 C784.512,1119.46 784.496,1137.22 784.496,1155.17 C784.496,1213.54 784.689,1273.92 786.312,1327.29 C787.14,1353.98 788.306,1378.91 790.015,1400.96 C791.708,1423.02 793.922,1442.2 796.835,1457.44 C803.429,1491.93 805.466,1526.74 805.466,1564.45 C805.466,1602.16 803.429,1642.77 801.887,1688.81 L804.956,1688.91 L803.069,1686.5 C784.91,1700.63 753.169,1720.95 706.639,1740.91 C660.097,1760.87 598.75,1780.48 521.302,1793.22 L521.318,1793.22 C444.299,1805.41 362.024,1808.27 266.335,1808.27 C181.879,1808.27 86.9583,1806.05 -23.9719,1806.05 C-50.0318,1806.05 -76.9569,1806.17 -104.855,1806.47 C-135.085,1806.8 -163.096,1806.96 -189.166,1806.96 C-297.318,1806.96 -372.01,1804.13 -432.508,1798.59 C-492.99,1793.03 -539.268,1784.76 -590.764,1773.82 C-648.193,1761.63 -702.194,1740.43 -741.792,1722.28 C-761.601,1713.22 -777.794,1704.91 -789.048,1698.87 C-794.664,1695.86 -799.049,1693.41 -802.021,1691.71 C-803.51,1690.86 -804.639,1690.2 -805.407,1689.76 C-805.778,1689.54 -806.068,1689.38 -806.262,1689.26 C-806.455,1689.14 -806.536,1689.1 -806.536,1689.1 L-808.116,1691.73 L-805.063,1691.44 L-805.063,1691.4 C-805.144,1690.53 -806.659,1672.52 -808.873,1579.72 C-808.954,1576.27 -808.997,1572.86 -808.997,1569.5 C-808.997,1529.12 -803.263,1495.29 -797.469,1462.53 C-791.676,1429.77 -785.829,1398.06 -785.829,1362.18 C-785.829,1354.68 -786.092,1347 -786.656,1339.09 C-788.693,1310.61 -789.365,1272.94 -789.365,1229.22 C-789.365,1141.75 -786.64,1029.96 -786.64,918.162 C-786.64,750.426 -792.778,513.205 -827.544,-104.245 L-827.544,-104.288 C-850.051,-423.45 -904.068,-685.391 -955.645,-876.49 C-981.431,-972.028 -1006.59,-1049.87 -1026.91,-1108.27 C-1047.21,-1166.66 -1062.67,-1205.7 -1068.96,-1223.4 L-1071.85,-1222.38 L-1069.3,-1220.66 C-1066.17,-1225.34 -1061.47,-1230.44 -1055.32,-1235.87 C-1044.58,-1245.37 -1029.42,-1255.87 -1010.43,-1267.3 C-953.484,-1301.63 -862.283,-1344.39 -751.6,-1396.71 C-567.558,-1483.36 -424.925,-1556.98 -424.898,-1557 L-426.317,-1559.72 L-426.354,-1556.65 L-426.317,-1559.72 Z " fill="#000000" fill-opacity="1.00" />			<path d="M-808.116,1614.93 C-808.116,1614.93 -651.714,1700.02 -521.893,1713.31 C-392.072,1726.6 -304.16,1738.86 -76.199,1731.71 C129.265,1727.62 381.753,1748.07 516.696,1720.47 C651.622,1692.87 753.841,1657.09 804.956,1612.11 L-808.116,1614.93 Z " fill="#636363" fill-opacity="1.00" />			<path d="M-809.577,1617.61 C-809.551,1617.62 -803.951,1620.68 -794.014,1625.7 L-791.251,1620.22 C-796.19,1617.74 -800.043,1615.73 -802.655,1614.35 C-803.961,1613.66 -804.966,1613.12 -805.643,1612.77 C-805.971,1612.59 -806.235,1612.45 -806.396,1612.37 C-806.562,1612.28 -806.643,1612.23 -806.643,1612.23 L-809.577,1617.61 Z M-778.374,1633.43 C-773.586,1635.76 -768.314,1638.28 -762.617,1640.92 L-760.032,1635.36 C-765.686,1632.73 -770.931,1630.23 -775.687,1627.91 L-778.374,1633.43 Z M-746.768,1648.18 C-741.679,1650.47 -736.353,1652.82 -730.823,1655.21 L-728.388,1649.58 C-733.892,1647.2 -739.191,1644.87 -744.253,1642.58 L-746.768,1648.18 Z M-714.77,1662.01 C-709.514,1664.18 -704.134,1666.37 -698.604,1668.56 L-696.347,1662.85 C-701.834,1660.68 -707.203,1658.5 -712.416,1656.34 L-714.77,1662.01 Z M-682.352,1674.84 C-676.989,1676.88 -671.528,1678.89 -665.982,1680.87 L-663.919,1675.1 C-669.422,1673.12 -674.844,1671.13 -680.181,1669.11 L-682.352,1674.84 Z M-649.516,1686.6 C-644.039,1688.44 -638.509,1690.24 -632.92,1692 L-631.093,1686.14 C-636.623,1684.41 -642.11,1682.62 -647.559,1680.78 L-649.516,1686.6 Z M-616.249,1697.04 C-610.66,1698.66 -605.049,1700.22 -599.422,1701.7 L-597.863,1695.77 C-603.436,1694.3 -608.994,1692.76 -614.54,1691.15 L-616.249,1697.04 Z M-582.455,1705.94 C-576.775,1707.27 -571.078,1708.52 -565.397,1709.67 L-564.172,1703.65 C-569.799,1702.53 -575.426,1701.29 -581.053,1699.97 L-582.455,1705.94 Z M-548.2,1712.84 C-542.39,1713.81 -536.613,1714.66 -530.878,1715.38 L-530.121,1709.28 C-535.774,1708.58 -541.471,1707.74 -547.195,1706.79 L-548.2,1712.84 Z M-513.557,1717.25 C-507.737,1717.85 -501.986,1718.46 -496.3,1719.05 L-495.672,1712.94 C-501.352,1712.35 -507.103,1711.76 -512.923,1711.15 L-513.557,1717.25 Z M-479.049,1720.85 C-473.256,1721.46 -467.505,1722.05 -461.781,1722.64 L-461.153,1716.55 C-466.876,1715.96 -472.611,1715.37 -478.404,1714.76 L-479.049,1720.85 Z M-444.503,1724.4 C-438.753,1724.98 -432.986,1725.54 -427.225,1726.11 L-426.645,1720 C-432.395,1719.45 -438.145,1718.89 -443.896,1718.31 L-444.503,1724.4 Z M-409.941,1727.72 C-404.207,1728.23 -398.44,1728.74 -392.636,1729.22 L-392.115,1723.11 C-397.919,1722.63 -403.669,1722.12 -409.377,1721.61 L-409.941,1727.72 Z M-375.315,1730.61 C-369.602,1731.05 -363.825,1731.46 -357.977,1731.86 L-357.564,1725.74 C-363.4,1725.34 -369.151,1724.93 -374.847,1724.5 L-375.315,1730.61 Z M-340.645,1732.97 C-334.949,1733.3 -329.171,1733.63 -323.281,1733.94 L-322.98,1727.8 C-328.838,1727.51 -334.605,1727.18 -340.275,1726.85 L-340.645,1732.97 Z M-305.933,1734.75 C-300.247,1735 -294.459,1735.22 -288.569,1735.42 L-288.348,1729.3 C-294.222,1729.1 -300,1728.86 -305.67,1728.63 L-305.933,1734.75 Z M-271.194,1735.96 C-265.508,1736.11 -259.73,1736.25 -253.829,1736.37 L-253.706,1730.24 C-259.596,1730.13 -265.357,1729.99 -271.027,1729.84 L-271.194,1735.96 Z M-236.454,1736.66 C-230.768,1736.73 -224.98,1736.79 -219.074,1736.82 L-219.036,1730.69 C-224.921,1730.65 -230.704,1730.6 -236.368,1730.53 L-236.454,1736.66 Z M-201.699,1736.88 C-201.038,1736.89 -200.377,1736.89 -199.721,1736.89 C-194.669,1736.89 -189.537,1736.88 -184.324,1736.85 L-184.351,1730.72 C-189.564,1730.75 -194.686,1730.76 -199.721,1730.76 C-200.377,1730.76 -201.038,1730.76 -201.699,1730.76 L-201.699,1736.88 Z M-166.949,1736.72 C-161.252,1736.66 -155.475,1736.59 -149.569,1736.51 L-149.665,1730.38 C-155.556,1730.46 -161.333,1730.53 -167.013,1730.6 L-166.949,1736.72 Z M-132.194,1736.21 C-126.513,1736.1 -120.72,1735.98 -114.829,1735.84 L-114.969,1729.71 C-120.859,1729.85 -126.637,1729.96 -132.317,1730.07 L-132.194,1736.21 Z M-97.4542,1735.4 C-91.7576,1735.24 -85.9802,1735.08 -80.09,1734.9 L-80.2834,1728.76 C-86.1576,1728.94 -91.9402,1729.12 -97.6209,1729.27 L-97.4542,1735.4 Z M-62.7848,1734.54 C-57.0343,1734.46 -51.257,1734.39 -45.4475,1734.34 L-45.5066,1728.22 C-51.3216,1728.25 -57.115,1728.32 -62.8816,1728.42 L-62.7848,1734.54 Z M-28.0993,1734.24 C-23.7515,1734.22 -19.393,1734.21 -15.0022,1734.21 C-13.5995,1734.21 -12.1808,1734.21 -10.7673,1734.21 L-10.7512,1728.08 C-12.17,1728.08 -13.5995,1728.08 -15.0022,1728.08 C-19.393,1728.08 -23.7676,1728.09 -28.1154,1728.1 L-28.0993,1734.24 Z M6.58626,1734.27 C12.3474,1734.29 18.1248,1734.34 23.9344,1734.39 L23.9881,1728.25 C18.1839,1728.2 12.3905,1728.17 6.61311,1728.13 L6.58626,1734.27 Z M41.2825,1734.57 C47.0599,1734.63 52.8372,1734.71 58.6306,1734.79 L58.7113,1728.66 C52.9232,1728.57 47.1298,1728.5 41.3524,1728.44 L41.2825,1734.57 Z M75.995,1735.03 C81.7723,1735.13 87.5497,1735.23 93.3431,1735.34 L93.4505,1729.2 C87.6625,1729.1 81.869,1729 76.0916,1728.91 L75.9788,1735.03 L75.995,1735.03 Z M110.707,1735.64 C116.485,1735.76 122.278,1735.86 128.066,1735.98 L128.179,1729.84 C122.402,1729.73 116.608,1729.62 110.815,1729.5 L110.707,1735.64 Z M145.431,1736.3 C151.224,1736.41 157.017,1736.52 162.795,1736.63 L162.902,1730.51 C157.125,1730.4 151.348,1730.29 145.543,1730.17 L145.431,1736.3 Z M180.159,1736.96 C185.963,1737.07 191.757,1737.17 197.534,1737.27 L197.642,1731.13 C191.864,1731.04 186.071,1730.94 180.267,1730.83 L180.159,1736.96 Z M214.909,1737.56 C220.713,1737.64 226.507,1737.72 232.284,1737.8 L232.37,1731.67 C226.604,1731.58 220.81,1731.5 215.006,1731.42 L214.909,1737.56 Z M249.665,1738.01 C255.485,1738.07 261.273,1738.12 267.04,1738.16 L267.083,1732.03 C261.332,1731.98 255.539,1731.93 249.734,1731.87 L249.665,1738.01 Z M284.415,1738.24 C288.241,1738.26 292.067,1738.26 295.862,1738.26 C297.845,1738.26 299.823,1738.26 301.795,1738.26 L301.779,1732.12 C299.812,1732.12 297.845,1732.12 295.862,1732.12 C292.067,1732.12 288.257,1732.12 284.431,1732.11 L284.415,1738.24 Z M319.17,1738.17 C325.017,1738.13 330.811,1738.08 336.561,1738 L336.475,1731.87 C330.741,1731.94 324.963,1732.01 319.127,1732.05 L319.17,1738.17 Z M353.936,1737.71 C359.799,1737.58 365.587,1737.43 371.327,1737.27 L371.15,1731.13 C365.426,1731.31 359.644,1731.44 353.813,1731.57 L353.936,1737.71 Z M388.718,1736.66 C394.576,1736.44 400.386,1736.18 406.093,1735.88 L405.776,1729.75 C400.096,1730.04 394.318,1730.31 388.471,1730.54 L388.718,1736.66 Z M423.468,1734.88 C429.359,1734.5 435.152,1734.09 440.833,1733.62 L440.349,1727.51 C434.685,1727.97 428.934,1728.38 423.071,1728.76 L423.468,1734.88 Z M458.197,1732.07 C464.098,1731.47 469.875,1730.84 475.518,1730.14 L474.771,1724.06 C469.177,1724.75 463.437,1725.38 457.574,1725.96 L458.197,1732.07 Z M492.813,1727.79 C498.724,1726.89 504.464,1725.93 510.037,1724.9 L508.909,1718.86 C503.416,1719.89 497.735,1720.84 491.888,1721.72 L492.813,1727.79 Z M527.122,1721.43 C532.846,1720.23 538.515,1719.01 544.126,1717.78 L542.809,1711.79 C537.22,1713.02 531.567,1714.24 525.859,1715.43 L527.122,1721.43 Z M561.093,1713.96 C566.816,1712.64 572.454,1711.3 578.027,1709.94 L576.581,1703.99 C571.024,1705.33 565.414,1706.67 559.717,1707.98 L561.093,1713.96 Z M594.908,1705.75 C600.604,1704.29 606.22,1702.82 611.751,1701.32 L610.154,1695.4 C604.651,1696.89 599.062,1698.34 593.397,1699.8 L594.908,1705.75 Z M628.518,1696.67 C634.177,1695.04 639.745,1693.41 645.222,1691.74 L643.448,1685.88 C637.999,1687.53 632.468,1689.15 626.831,1690.76 L628.518,1696.67 Z M661.844,1686.54 C667.471,1684.73 672.974,1682.88 678.381,1681.02 L676.371,1675.22 C671.018,1677.07 665.542,1678.91 659.958,1680.71 L661.844,1686.54 Z M694.794,1675.13 C700.351,1673.07 705.774,1670.98 711.056,1668.85 L708.772,1663.16 C703.543,1665.27 698.164,1667.35 692.65,1669.38 L694.794,1675.13 Z M727.152,1662.11 C732.629,1659.71 737.912,1657.29 743.044,1654.81 L740.373,1649.3 C735.327,1651.72 730.097,1654.13 724.702,1656.48 L727.152,1662.11 Z M758.646,1646.92 C763.945,1644.07 769.018,1641.19 773.876,1638.26 L770.711,1633.01 C765.949,1635.89 760.973,1638.72 755.743,1641.5 L758.646,1646.92 Z M788.612,1628.72 C793.605,1625.25 798.297,1621.71 802.655,1618.09 L798.748,1613.37 C794.524,1616.85 789.972,1620.29 785.114,1623.68 L788.612,1628.72 Z " fill="#000000" fill-opacity="1.00" />			<path d="M-808.116,1595.89 C-808.116,1595.89 -651.714,1681 -521.893,1694.29 C-392.072,1707.58 -304.16,1719.84 -76.199,1712.68 C129.265,1708.59 381.753,1729.04 516.696,1701.44 C651.622,1673.84 753.841,1638.06 804.956,1593.08 L-808.116,1595.89 Z " fill="#636363" fill-opacity="1.00" />			<path d="M-809.577,1598.58 C-809.551,1598.6 -803.951,1601.64 -794.014,1606.68 L-791.251,1601.2 C-796.19,1598.7 -800.043,1596.7 -802.655,1595.33 C-803.961,1594.64 -804.966,1594.1 -805.643,1593.74 C-805.971,1593.56 -806.235,1593.42 -806.396,1593.33 C-806.562,1593.25 -806.643,1593.2 -806.643,1593.2 L-809.577,1598.58 Z M-778.374,1614.4 C-773.586,1616.73 -768.314,1619.24 -762.617,1621.89 L-760.032,1616.33 C-765.686,1613.69 -770.931,1611.2 -775.687,1608.89 L-778.374,1614.4 Z M-746.768,1629.16 C-741.679,1631.44 -736.353,1633.79 -730.823,1636.19 L-728.388,1630.54 C-733.892,1628.16 -739.191,1625.82 -744.253,1623.56 L-746.768,1629.16 Z M-714.77,1642.98 C-709.514,1645.16 -704.134,1647.34 -698.604,1649.53 L-696.347,1643.82 C-701.834,1641.65 -707.203,1639.48 -712.416,1637.31 L-714.77,1642.98 Z M-682.352,1655.82 C-676.989,1657.84 -671.528,1659.87 -665.982,1661.84 L-663.919,1656.07 C-669.422,1654.1 -674.844,1652.09 -680.181,1650.08 L-682.352,1655.82 Z M-649.516,1667.57 C-644.039,1669.41 -638.509,1671.22 -632.92,1672.96 L-631.093,1667.11 C-636.623,1665.38 -642.11,1663.58 -647.559,1661.75 L-649.516,1667.57 Z M-616.249,1678.01 C-610.66,1679.63 -605.049,1681.19 -599.422,1682.67 L-597.863,1676.75 C-603.436,1675.27 -608.994,1673.73 -614.54,1672.12 L-616.249,1678.01 Z M-582.455,1686.91 C-576.775,1688.25 -571.078,1689.48 -565.397,1690.64 L-564.172,1684.63 C-569.799,1683.48 -575.426,1682.26 -581.053,1680.94 L-582.455,1686.91 Z M-548.2,1693.82 C-542.39,1694.78 -536.613,1695.62 -530.878,1696.35 L-530.121,1690.26 C-535.774,1689.55 -541.471,1688.71 -547.195,1687.76 L-548.2,1693.82 Z M-513.557,1698.22 C-507.737,1698.83 -501.986,1699.42 -496.3,1700.02 L-495.672,1693.92 C-501.352,1693.33 -507.103,1692.72 -512.923,1692.13 L-513.557,1698.22 Z M-479.049,1701.83 C-473.245,1702.43 -467.505,1703.02 -461.781,1703.61 L-461.153,1697.52 C-466.876,1696.93 -472.611,1696.32 -478.404,1695.72 L-479.049,1701.83 Z M-444.503,1705.37 C-438.753,1705.95 -432.986,1706.52 -427.225,1707.07 L-426.645,1700.97 C-432.395,1700.41 -438.145,1699.84 -443.896,1699.26 L-444.503,1705.37 Z M-409.941,1708.69 C-404.207,1709.2 -398.44,1709.71 -392.636,1710.19 L-392.115,1704.08 C-397.919,1703.6 -403.669,1703.09 -409.377,1702.58 L-409.941,1708.69 Z M-375.315,1711.58 C-369.602,1712.02 -363.825,1712.43 -357.977,1712.83 L-357.564,1706.71 C-363.4,1706.31 -369.151,1705.9 -374.847,1705.46 L-375.315,1711.58 Z M-340.645,1713.93 C-334.949,1714.27 -329.171,1714.61 -323.281,1714.9 L-322.98,1708.77 C-328.838,1708.47 -334.605,1708.15 -340.275,1707.81 L-340.645,1713.93 Z M-305.933,1715.72 C-300.247,1715.97 -294.459,1716.19 -288.569,1716.4 L-288.348,1710.26 C-294.222,1710.06 -300,1709.83 -305.67,1709.58 L-305.933,1715.72 Z M-271.194,1716.93 C-265.508,1717.08 -259.73,1717.22 -253.829,1717.34 L-253.706,1711.21 C-259.596,1711.09 -265.357,1710.96 -271.027,1710.8 L-271.194,1716.93 Z M-236.454,1717.62 C-230.768,1717.7 -224.98,1717.76 -219.074,1717.8 L-219.036,1711.66 C-224.921,1711.62 -230.704,1711.57 -236.368,1711.5 L-236.454,1717.62 Z M-201.699,1717.85 C-201.038,1717.85 -200.377,1717.85 -199.721,1717.85 C-194.669,1717.85 -189.537,1717.84 -184.324,1717.83 L-184.351,1711.69 C-189.564,1711.72 -194.686,1711.73 -199.721,1711.73 C-200.377,1711.73 -201.038,1711.73 -201.699,1711.72 L-201.699,1717.85 Z M-166.949,1717.69 C-161.252,1717.63 -155.475,1717.56 -149.569,1717.47 L-149.665,1711.35 C-155.556,1711.43 -161.333,1711.5 -167.013,1711.55 L-166.949,1717.69 Z M-132.194,1717.18 C-126.513,1717.07 -120.72,1716.95 -114.829,1716.81 L-114.969,1710.67 C-120.859,1710.81 -126.637,1710.93 -132.317,1711.04 L-132.194,1717.18 Z M-97.4542,1716.37 C-91.7576,1716.21 -85.9802,1716.05 -80.09,1715.87 L-80.2834,1709.74 C-86.1576,1709.92 -91.9402,1710.08 -97.6209,1710.24 L-97.4542,1716.37 Z M-62.7848,1715.52 C-57.0343,1715.43 -51.257,1715.37 -45.4475,1715.31 L-45.5066,1709.18 C-51.3216,1709.23 -57.115,1709.3 -62.8816,1709.38 L-62.7848,1715.52 Z M-28.0993,1715.21 C-23.7515,1715.18 -19.393,1715.18 -15.0022,1715.18 C-13.5995,1715.18 -12.1808,1715.18 -10.7673,1715.18 L-10.7512,1709.05 C-12.17,1709.05 -13.5995,1709.05 -15.0022,1709.05 C-19.393,1709.05 -23.7676,1709.06 -28.1154,1709.08 L-28.0993,1715.21 Z M6.58626,1715.24 C12.3474,1715.27 18.1248,1715.31 23.9344,1715.37 L23.9881,1709.23 C18.1839,1709.17 12.3905,1709.13 6.61311,1709.1 L6.58626,1715.24 Z M41.2825,1715.53 C47.0599,1715.6 52.8372,1715.68 58.6306,1715.75 L58.7113,1709.63 C52.9232,1709.54 47.1298,1709.46 41.3524,1709.41 L41.2825,1715.53 Z M75.995,1716.01 C81.7723,1716.11 87.5497,1716.2 93.3431,1716.3 L93.4505,1710.18 C87.6625,1710.07 81.869,1709.97 76.0916,1709.89 L75.995,1716.01 Z M110.707,1716.62 C116.485,1716.72 122.278,1716.84 128.066,1716.95 L128.179,1710.81 C122.402,1710.7 116.608,1710.59 110.815,1710.48 L110.707,1716.62 Z M145.431,1717.28 C151.224,1717.39 157.017,1717.49 162.795,1717.61 L162.902,1711.47 C157.125,1711.36 151.348,1711.25 145.543,1711.14 L145.431,1717.28 Z M180.159,1717.93 C185.963,1718.03 191.757,1718.14 197.534,1718.24 L197.642,1712.1 C191.864,1712.01 186.071,1711.91 180.267,1711.8 L180.159,1717.93 Z M214.909,1718.51 C220.713,1718.61 226.507,1718.69 232.284,1718.76 L232.37,1712.64 C226.604,1712.55 220.81,1712.47 215.006,1712.39 L214.909,1718.51 Z M249.665,1718.97 C255.485,1719.04 261.273,1719.08 267.04,1719.12 L267.083,1713 C261.332,1712.96 255.539,1712.9 249.734,1712.84 L249.665,1718.97 Z M284.415,1719.21 C288.241,1719.23 292.067,1719.23 295.862,1719.23 C297.845,1719.23 299.823,1719.23 301.795,1719.23 L301.779,1713.09 C299.812,1713.09 297.845,1713.09 295.862,1713.09 C292.067,1713.09 288.257,1713.09 284.431,1713.08 L284.415,1719.21 Z M319.17,1719.15 C325.017,1719.11 330.811,1719.05 336.561,1718.97 L336.475,1712.83 C330.741,1712.91 324.963,1712.97 319.127,1713.01 L319.17,1719.15 Z M353.936,1718.66 C359.799,1718.56 365.587,1718.4 371.327,1718.24 L371.15,1712.1 C365.437,1712.27 359.644,1712.42 353.813,1712.54 L353.952,1718.66 L353.936,1718.66 Z M388.718,1717.63 C394.576,1717.4 400.386,1717.14 406.093,1716.85 L405.776,1710.73 C400.096,1711.02 394.318,1711.28 388.471,1711.51 L388.718,1717.63 Z M423.468,1715.84 C429.359,1715.47 435.152,1715.05 440.833,1714.59 L440.349,1708.49 C434.685,1708.94 428.934,1709.35 423.071,1709.74 L423.468,1715.84 Z M458.197,1713.04 C464.098,1712.45 469.875,1711.8 475.518,1711.11 L474.771,1705.03 C469.177,1705.72 463.437,1706.35 457.574,1706.93 L458.197,1713.04 Z M492.813,1708.76 C498.724,1707.86 504.464,1706.9 510.037,1705.86 L508.909,1699.83 C503.416,1700.86 497.735,1701.81 491.888,1702.69 L492.813,1708.76 Z M527.122,1702.4 C532.846,1701.2 538.515,1699.98 544.126,1698.76 L542.809,1692.76 C537.22,1694 531.567,1695.21 525.859,1696.4 L527.122,1702.4 Z M561.093,1694.93 C566.816,1693.61 572.454,1692.28 578.027,1690.92 L576.581,1684.96 C571.024,1686.31 565.414,1687.64 559.717,1688.95 L561.093,1694.93 Z M594.908,1686.7 C600.604,1685.26 606.22,1683.79 611.751,1682.29 L610.154,1676.37 C604.651,1677.86 599.062,1679.31 593.397,1680.78 L594.908,1686.7 Z M628.518,1677.63 C634.177,1676.01 639.745,1674.38 645.222,1672.71 L643.448,1666.84 C637.999,1668.49 632.468,1670.12 626.831,1671.74 L628.518,1677.63 Z M661.844,1667.51 C667.471,1665.7 672.974,1663.85 678.381,1661.98 L676.371,1656.19 C671.018,1658.05 665.542,1659.88 659.958,1661.68 L661.844,1667.51 Z M694.794,1656.11 C700.351,1654.04 705.774,1651.95 711.056,1649.82 L708.772,1644.14 C703.543,1646.23 698.164,1648.3 692.65,1650.36 L694.794,1656.11 Z M727.152,1643.08 C732.629,1640.68 737.912,1638.25 743.044,1635.79 L740.373,1630.27 C735.327,1632.69 730.097,1635.08 724.702,1637.45 L727.152,1643.08 Z M758.646,1627.88 C763.945,1625.04 769.018,1622.16 773.876,1619.24 L770.711,1613.98 C765.949,1616.85 760.973,1619.68 755.743,1622.47 L758.646,1627.88 Z M788.612,1609.69 C793.605,1606.22 798.297,1602.67 802.655,1599.07 L798.748,1594.35 C794.524,1597.83 789.972,1601.27 785.114,1604.65 L788.612,1609.69 Z " fill="#000000" fill-opacity="1.00" />			<path d="M-491.141,-1524.72 C-491.141,-1524.72 -59.0713,-1473.13 488.368,-1520.59 C494.667,-1547.42 470.466,-1564.35 436.899,-1584.54 C403.342,-1604.71 352.066,-1658.83 337.152,-1679 C322.239,-1699.18 315.714,-1721.2 293.33,-1716.62 C270.963,-1712.02 169.34,-1679.92 36.0425,-1682.67 C-97.277,-1685.43 -228.721,-1698.26 -258.564,-1708.36 C-288.391,-1718.44 -296.781,-1723.95 -307.97,-1711.11 C-319.154,-1698.26 -348.981,-1644.15 -390.008,-1617.56 C-431.019,-1590.95 -455.263,-1572.61 -472.971,-1558.85 C-490.69,-1545.09 -491.141,-1524.72 -491.141,-1524.72 Z " fill="#5e5e5e" fill-opacity="1.00" />			<path d="M-491.141,-1524.72 L-491.517,-1521.67 C-491.421,-1521.67 -288.612,-1497.45 15.185,-1497.45 C154.937,-1497.45 316.047,-1502.57 488.626,-1517.54 L490.846,-1517.73 L491.351,-1519.89 C492.082,-1522.97 492.436,-1525.97 492.436,-1528.89 C492.436,-1534.96 490.872,-1540.62 488.094,-1545.85 C483.907,-1553.71 477.087,-1560.61 468.553,-1567.27 C460.024,-1573.95 449.749,-1580.38 438.479,-1587.17 C430.31,-1592.08 420.91,-1599.15 411.226,-1607.31 C396.71,-1619.55 381.533,-1634.22 368.629,-1647.69 C362.175,-1654.42 356.29,-1660.85 351.335,-1666.53 C346.369,-1672.22 342.338,-1677.14 339.614,-1680.83 C332.998,-1689.77 327.989,-1699.28 322.152,-1706.86 C319.24,-1710.65 316.085,-1713.99 312.301,-1716.41 C308.534,-1718.85 304.09,-1720.3 299.043,-1720.29 C297.033,-1720.29 294.926,-1720.07 292.729,-1719.62 C289.934,-1719.04 286.097,-1718.09 281.195,-1716.85 C264.121,-1712.53 234.213,-1704.73 194.89,-1697.97 C155.572,-1691.23 106.854,-1685.58 52.2621,-1685.58 C46.9254,-1685.58 41.5458,-1685.63 36.0962,-1685.74 C-30.4802,-1687.12 -96.6159,-1691.01 -149.789,-1695.81 C-176.37,-1698.22 -199.732,-1700.85 -218.252,-1703.5 C-227.512,-1704.84 -235.573,-1706.18 -242.205,-1707.48 C-248.837,-1708.79 -254.066,-1710.07 -257.57,-1711.26 C-266.266,-1714.19 -273.145,-1716.75 -278.911,-1718.61 C-284.689,-1720.45 -289.37,-1721.65 -293.771,-1721.66 C-296.877,-1721.68 -299.849,-1721.02 -302.59,-1719.56 C-305.326,-1718.12 -307.803,-1715.97 -310.281,-1713.12 C-311.807,-1711.38 -313.527,-1709.06 -315.521,-1706.27 C-319.003,-1701.39 -323.281,-1695 -328.328,-1687.78 C-335.884,-1676.97 -345.128,-1664.31 -355.806,-1652.23 C-366.469,-1640.14 -378.545,-1628.64 -391.674,-1620.12 C-432.766,-1593.48 -457.106,-1575.06 -474.852,-1561.27 C-484.294,-1553.94 -489.147,-1544.83 -491.614,-1537.61 C-494.076,-1530.39 -494.199,-1525.01 -494.21,-1524.79 L-494.28,-1521.99 L-491.517,-1521.67 L-491.141,-1524.72 L-488.078,-1524.65 L-488.943,-1524.66 L-488.078,-1524.64 L-488.078,-1524.65 L-488.943,-1524.66 L-488.078,-1524.64 C-488.078,-1524.73 -487.911,-1529.59 -485.697,-1535.93 C-483.467,-1542.29 -479.243,-1550.1 -471.101,-1556.43 C-453.419,-1570.16 -429.289,-1588.43 -388.342,-1614.98 C-367.318,-1628.62 -349.449,-1649.05 -335.363,-1667.64 C-328.317,-1676.94 -322.222,-1685.79 -317.214,-1693.08 C-314.709,-1696.72 -312.468,-1699.98 -310.528,-1702.71 C-308.588,-1705.43 -306.922,-1707.63 -305.659,-1709.09 C-303.499,-1711.57 -301.569,-1713.16 -299.726,-1714.14 C-297.882,-1715.1 -296.066,-1715.53 -293.771,-1715.53 C-290.552,-1715.54 -286.355,-1714.56 -280.798,-1712.78 C-275.235,-1710.99 -268.319,-1708.42 -259.537,-1705.44 C-255.592,-1704.11 -250.186,-1702.81 -243.403,-1701.46 C-219.681,-1696.79 -179.095,-1691.95 -129.759,-1687.95 C-80.434,-1683.95 -22.4188,-1680.82 35.9726,-1679.6 C41.449,-1679.5 46.8824,-1679.44 52.2621,-1679.44 C115.136,-1679.44 170.238,-1686.9 212.308,-1694.89 C233.332,-1698.9 251.11,-1703.04 264.96,-1706.45 C271.898,-1708.15 277.842,-1709.68 282.711,-1710.9 C287.569,-1712.15 291.38,-1713.08 293.948,-1713.6 C295.792,-1713.99 297.485,-1714.16 299.043,-1714.16 C302.95,-1714.14 306.057,-1713.12 308.986,-1711.25 C313.376,-1708.46 317.283,-1703.55 321.304,-1697.46 C325.334,-1691.4 329.472,-1684.24 334.691,-1677.19 C338.512,-1672 344.569,-1664.79 352.039,-1656.51 C363.239,-1644.1 377.653,-1629.32 392.443,-1615.72 C407.265,-1602.09 422.426,-1589.67 435.313,-1581.91 C450.259,-1572.93 463.233,-1564.63 472.256,-1556.04 C476.781,-1551.77 480.307,-1547.44 482.671,-1542.97 C485.052,-1538.5 486.288,-1533.91 486.304,-1528.89 C486.304,-1526.48 486.014,-1523.95 485.38,-1521.29 L488.368,-1520.59 L488.105,-1523.64 C315.73,-1508.7 154.787,-1503.57 15.185,-1503.57 C-136.541,-1503.57 -263.063,-1509.63 -351.636,-1515.68 C-395.925,-1518.69 -430.718,-1521.72 -454.435,-1523.99 C-466.296,-1525.12 -475.389,-1526.07 -481.51,-1526.73 C-484.579,-1527.06 -486.89,-1527.32 -488.449,-1527.49 C-490.002,-1527.66 -490.786,-1527.76 -490.786,-1527.76 L-491.141,-1524.72 L-488.078,-1524.65 L-491.141,-1524.72 Z " fill="#000000" fill-opacity="1.00" />			<path d="M-515.675,-1509.96 C-515.659,-1509.96 -509.661,-1509.09 -498.364,-1507.66 L-497.596,-1513.74 C-503.223,-1514.45 -507.527,-1515.03 -510.419,-1515.42 C-511.875,-1515.61 -512.966,-1515.76 -513.708,-1515.87 C-514.439,-1515.97 -514.793,-1516.02 -514.793,-1516.02 L-515.675,-1509.96 Z M-481.086,-1505.54 C-475.873,-1504.92 -470.096,-1504.26 -463.791,-1503.56 L-463.12,-1509.64 C-469.408,-1510.35 -475.158,-1511.01 -480.355,-1511.63 L-481.086,-1505.54 Z M-446.513,-1501.67 C-441.037,-1501.08 -435.26,-1500.49 -429.203,-1499.88 L-428.585,-1505.98 C-434.642,-1506.59 -440.392,-1507.19 -445.868,-1507.77 L-446.513,-1501.67 Z M-411.898,-1498.18 C-406.324,-1497.65 -400.547,-1497.12 -394.587,-1496.57 L-394.023,-1502.68 C-399.983,-1503.23 -405.749,-1503.76 -411.317,-1504.29 L-411.898,-1498.18 Z M-377.266,-1495.04 C-371.639,-1494.56 -365.862,-1494.08 -359.934,-1493.6 L-359.439,-1499.71 C-365.351,-1500.19 -371.118,-1500.67 -376.744,-1501.15 L-377.266,-1495.04 Z M-342.612,-1492.24 C-336.943,-1491.8 -331.165,-1491.37 -325.275,-1490.94 L-324.834,-1497.05 C-330.708,-1497.48 -336.491,-1497.92 -342.145,-1498.34 L-342.612,-1492.24 Z M-307.927,-1489.73 C-302.246,-1489.34 -296.453,-1488.96 -290.579,-1488.59 L-290.192,-1494.71 C-296.066,-1495.08 -301.832,-1495.47 -307.513,-1495.84 L-307.927,-1489.73 Z M-273.231,-1487.53 C-267.534,-1487.18 -261.74,-1486.86 -255.877,-1486.54 L-255.549,-1492.66 C-261.397,-1492.98 -267.174,-1493.31 -272.871,-1493.66 L-273.231,-1487.53 Z M-238.518,-1485.63 C-232.795,-1485.34 -227.017,-1485.06 -221.154,-1484.79 L-220.88,-1490.91 C-226.727,-1491.19 -232.504,-1491.46 -238.212,-1491.75 L-238.518,-1485.63 Z M-203.79,-1484.02 C-198.066,-1483.79 -192.278,-1483.55 -186.431,-1483.34 L-186.194,-1489.46 C-192.031,-1489.68 -197.819,-1489.91 -203.542,-1490.16 L-203.79,-1484.02 Z M-169.05,-1482.71 C-163.316,-1482.54 -157.523,-1482.34 -151.692,-1482.18 L-151.509,-1488.31 C-157.345,-1488.48 -163.123,-1488.66 -168.857,-1488.85 L-169.05,-1482.71 Z M-134.311,-1481.71 C-128.561,-1481.57 -122.767,-1481.45 -116.936,-1481.33 L-116.813,-1487.46 C-122.633,-1487.59 -128.426,-1487.71 -134.161,-1487.85 L-134.311,-1481.71 Z M-99.561,-1481.02 C-93.7945,-1480.93 -88.001,-1480.86 -82.17,-1480.79 L-82.1,-1486.93 C-87.9365,-1486.99 -93.7139,-1487.06 -99.4644,-1487.16 L-99.561,-1481.02 Z M-64.795,-1480.64 C-59.0445,-1480.6 -53.2509,-1480.57 -47.4145,-1480.55 L-47.4038,-1486.69 C-53.2241,-1486.71 -59.0014,-1486.73 -64.7519,-1486.78 L-64.795,-1480.64 Z M-30.0396,-1480.57 C-29.1205,-1480.57 -28.1961,-1480.57 -27.2771,-1480.57 C-22.3758,-1480.6 -17.5068,-1480.61 -12.6752,-1480.64 L-12.7021,-1486.78 C-17.5336,-1486.74 -22.4027,-1486.72 -27.2879,-1486.71 C-28.2123,-1486.71 -29.1313,-1486.71 -30.0557,-1486.71 L-30.0396,-1480.57 Z M4.69975,-1480.75 C10.5308,-1480.79 16.3243,-1480.83 22.0641,-1480.89 L22.0049,-1487.02 C16.2705,-1486.96 10.4771,-1486.91 4.6568,-1486.87 L4.69975,-1480.75 Z M39.4391,-1481.06 C45.2701,-1481.13 51.0636,-1481.21 56.8033,-1481.3 L56.7174,-1487.42 C50.983,-1487.35 45.2056,-1487.27 39.3585,-1487.2 L39.4391,-1481.06 Z M74.1622,-1481.56 C80.0094,-1481.64 85.8029,-1481.75 91.5426,-1481.86 L91.419,-1487.99 C85.6954,-1487.89 79.9019,-1487.78 74.0655,-1487.68 L74.1622,-1481.56 Z M108.901,-1482.21 C114.749,-1482.33 120.542,-1482.46 126.266,-1482.59 L126.126,-1488.73 C120.392,-1488.59 114.614,-1488.45 108.778,-1488.33 L108.901,-1482.21 Z M143.63,-1483.02 C149.477,-1483.17 155.271,-1483.34 160.994,-1483.5 L160.828,-1489.62 C155.104,-1489.46 149.327,-1489.31 143.48,-1489.15 L143.63,-1483.02 Z M178.353,-1484.01 C184.217,-1484.2 189.994,-1484.38 195.718,-1484.57 L195.513,-1490.71 C189.8,-1490.52 184.023,-1490.32 178.16,-1490.15 L178.353,-1484.01 Z M213.082,-1485.19 C218.94,-1485.41 224.717,-1485.63 230.441,-1485.85 L230.193,-1491.97 C224.486,-1491.75 218.709,-1491.53 212.861,-1491.31 L213.082,-1485.19 Z M247.794,-1486.57 C253.668,-1486.81 259.446,-1487.06 265.153,-1487.32 L264.879,-1493.45 C259.172,-1493.2 253.389,-1492.93 247.531,-1492.69 L247.794,-1486.57 Z M282.501,-1488.14 C288.381,-1488.43 294.158,-1488.71 299.855,-1489 L299.538,-1495.12 C293.852,-1494.84 288.074,-1494.55 282.2,-1494.26 L282.501,-1488.14 Z M317.203,-1489.93 C323.088,-1490.25 328.87,-1490.59 334.551,-1490.91 L334.191,-1497.04 C328.51,-1496.71 322.744,-1496.37 316.87,-1496.05 L317.203,-1489.93 Z M351.888,-1491.95 C357.789,-1492.31 363.567,-1492.68 369.22,-1493.05 L368.823,-1499.17 C363.169,-1498.8 357.402,-1498.43 351.512,-1498.07 L351.888,-1491.95 Z M386.558,-1494.21 C392.475,-1494.63 398.252,-1495.03 403.89,-1495.44 L403.438,-1501.57 C397.812,-1501.15 392.045,-1500.74 386.144,-1500.34 L386.558,-1494.21 Z M421.211,-1496.75 C427.155,-1497.2 432.932,-1497.65 438.532,-1498.13 L438.038,-1504.23 C432.438,-1503.78 426.677,-1503.32 420.744,-1502.86 L421.211,-1496.75 Z M455.854,-1499.57 C461.841,-1500.08 467.607,-1500.59 473.164,-1501.09 L472.616,-1507.2 C467.07,-1506.69 461.303,-1506.19 455.332,-1505.68 L455.854,-1499.57 Z M490.459,-1502.71 C496.537,-1503.3 502.303,-1503.86 507.753,-1504.41 L507.146,-1510.52 C501.686,-1509.96 495.935,-1509.39 489.878,-1508.82 L490.459,-1502.71 Z " fill="#000000" fill-opacity="1.00" />		</g>	</svg>