<?xml version="1.0" encoding="utf-8" ?>	<!-- Generator: Assembly 2.4 - http://assemblyapp.co -->	<svg version="1.1" xmlns="http://www.w3.org/2000/svg" xmlns:xlink="http://www.w3.org/1999/xlink" width="4096.00" height="4096.00" viewBox="0 0 4096.0 4096.0">		<g id="document" transform="scale(1.0 1.0) translate(2048.0 2048.0)">			<path d="M1016.53,-1224.75 L932.968,-931.635 L861.673,-581.254 L818.749,-263.097 L812.611,-122.023 L841.74,-75.2559 L911.503,-72.1872 C911.503,-72.1872 1089.37,-112.059 1127.72,-126.629 C1166.04,-141.187 1303.28,-181.828 1322.45,-201.766 C1341.61,-221.683 1353.87,-250.054 1353.87,-258.486 C1353.87,-266.924 1356.18,-282.262 1342.37,-296.063 C1328.57,-309.859 1312.47,-360.463 1299.44,-439.422 C1286.41,-518.391 1261.87,-589.687 1238.11,-726.924 C1214.33,-864.161 1183.67,-972.259 1152.24,-1069.62 C1120.81,-1166.99 1062.54,-1220.66 1062.54,-1220.66 L1016.53,-1224.75 Z " fill="#636363" fill-opacity="1.00" />			<path d="M1016.53,-1224.75 L1016.27,-1221.7 L1062.27,-1217.61 L1062.54,-1220.66 L1060.46,-1218.41 L1060.49,-1218.38 C1062.05,-1216.95 1118.63,-1163.8 1149.33,-1068.69 C1180.72,-971.394 1211.35,-863.463 1235.08,-726.403 C1246.98,-657.693 1259.08,-605.481 1269.82,-560.617 C1280.55,-515.736 1289.92,-478.246 1296.41,-438.927 C1302.95,-399.346 1310.26,-366.848 1317.69,-342.411 C1321.4,-330.195 1325.16,-319.989 1328.9,-311.896 C1332.64,-303.791 1336.33,-297.794 1340.21,-293.887 C1345.02,-289.061 1347.66,-284.159 1349.15,-279.414 C1350.63,-274.684 1350.95,-270.084 1350.95,-265.973 C1350.95,-263.237 1350.82,-260.733 1350.8,-258.486 C1350.82,-257.798 1350.66,-256.616 1350.32,-255.133 C1349.73,-252.542 1348.57,-249.049 1346.91,-245.061 C1341.94,-233.066 1332.45,-216.583 1320.23,-203.884 C1319.25,-202.863 1317.76,-201.637 1315.8,-200.331 C1312.14,-197.854 1306.93,-195.038 1300.61,-192.05 C1289.57,-186.81 1275.1,-181.016 1259.17,-175.099 C1235.28,-166.21 1208.06,-157.063 1183.88,-149.012 C1159.68,-140.967 1138.54,-134.018 1126.61,-129.493 C1121.98,-127.73 1115.04,-125.516 1106.55,-123.055 C1076.81,-114.386 1027.85,-102.401 986.361,-92.6041 C965.617,-87.7081 946.726,-83.3496 933.038,-80.2217 C926.186,-78.6578 920.639,-77.3895 916.802,-76.5242 C912.965,-75.659 910.842,-75.1914 910.831,-75.1914 L911.503,-72.1872 L911.643,-75.2559 L843.486,-78.2548 L815.707,-122.845 L821.801,-262.823 L864.699,-580.744 L935.951,-930.904 L1019.49,-1223.91 L1016.53,-1224.75 L1016.27,-1221.7 L1016.53,-1224.75 L1013.59,-1225.59 L929.996,-932.35 L858.647,-581.776 L815.68,-263.361 L809.5,-121.211 L839.988,-72.2732 L911.777,-69.1077 L912.18,-69.2045 C912.191,-69.2045 956.658,-79.163 1005.94,-90.9703 C1030.6,-96.8605 1056.43,-103.213 1078.53,-109.006 C1089.57,-111.908 1099.7,-114.66 1108.27,-117.164 C1116.84,-119.653 1123.86,-121.883 1128.8,-123.753 C1138.27,-127.359 1154.03,-132.632 1172.58,-138.791 C1200.41,-148.05 1234.55,-159.331 1263.59,-170.187 C1278.1,-175.626 1291.35,-180.946 1301.93,-185.885 C1307.23,-188.363 1311.86,-190.744 1315.68,-193.012 C1319.5,-195.285 1322.52,-197.429 1324.65,-199.633 C1334.51,-209.892 1342.49,-222.183 1348.08,-233.034 C1350.86,-238.473 1353.04,-243.546 1354.56,-247.867 C1355.32,-250.027 1355.89,-251.994 1356.3,-253.768 C1356.7,-255.53 1356.94,-257.073 1356.94,-258.486 C1356.94,-260.469 1357.09,-263.044 1357.09,-265.973 C1357.09,-270.39 1356.76,-275.657 1355,-281.246 C1353.26,-286.83 1350.07,-292.704 1344.54,-298.224 C1341.53,-301.223 1338.02,-306.726 1334.46,-314.454 C1329.11,-326.068 1323.52,-342.69 1318.08,-363.768 C1312.65,-384.841 1307.34,-410.379 1302.47,-439.932 C1295.92,-479.568 1286.51,-517.209 1275.78,-562.036 C1265.05,-606.873 1253,-658.918 1241.13,-727.451 C1217.34,-864.849 1186.61,-973.125 1155.16,-1070.56 C1123.48,-1168.68 1064.84,-1222.7 1064.62,-1222.92 L1063.85,-1223.62 L1014.29,-1228.03 L1013.59,-1225.59 L1016.53,-1224.75 Z " fill="#000000" fill-opacity="1.00" />			<path d="M1342.12,-228.084 C1320.14,-204.572 1203.61,-170.327 1080.43,-134.034 C957.249,-97.7526 841.74,-75.2559 841.74,-75.2559 L874.453,4.47139 C874.453,4.47139 949.585,-13.9247 1062.03,-43.5746 C1174.48,-73.2083 1339.56,-127.897 1339.56,-127.897 L1342.12,-228.084 Z " fill="#5e5e5e" fill-opacity="1.00" />			<path d="M1342.12,-228.084 L1339.05,-228.165 L1336.5,-127.978 L1339.56,-127.897 L1338.6,-130.815 C1338.6,-130.815 1337.95,-130.606 1336.73,-130.192 C1318.21,-124.087 1166.51,-74.2832 1061.25,-46.5304 C1005.03,-31.7136 958.157,-19.7021 925.32,-11.4042 C908.902,-7.2499 895.998,-4.03071 887.206,-1.84338 C882.805,-0.741656 879.435,0.0806096 877.167,0.644906 C874.894,1.2092 873.727,1.49942 873.727,1.49942 L874.453,4.47139 L877.291,3.31592 L844.572,-76.4275 L841.74,-75.2559 L842.331,-72.2463 C842.385,-72.2571 957.953,-94.7538 1081.29,-131.089 C1142.89,-149.233 1202.83,-166.871 1250.22,-182.94 C1273.9,-190.975 1294.45,-198.628 1310.53,-205.765 C1318.57,-209.344 1325.5,-212.8 1331.17,-216.142 C1336.85,-219.485 1341.28,-222.704 1344.36,-225.993 L1342.12,-228.084 L1339.05,-228.165 L1342.12,-228.084 L1339.88,-230.175 C1337.47,-227.59 1333.44,-224.591 1328.06,-221.425 C1318.64,-215.868 1305.06,-209.742 1288.4,-203.233 C1238.36,-183.725 1160.39,-160.793 1079.56,-136.974 C1018.06,-118.857 958.431,-104.175 914.201,-94.0229 C892.091,-88.9496 873.819,-85.0102 861.082,-82.3446 C854.713,-81.0064 849.731,-79.9907 846.335,-79.3028 C844.642,-78.9588 843.347,-78.6955 842.465,-78.5342 C841.6,-78.3515 841.159,-78.2709 841.159,-78.2709 L837.483,-77.5561 L872.61,8.07752 L875.184,7.45411 C875.195,7.45411 950.343,-10.9528 1062.82,-40.6026 C1175.41,-70.2901 1340.5,-124.979 1340.53,-124.995 L1342.57,-125.667 L1345.39,-236.076 L1339.88,-230.175 L1342.12,-228.084 Z " fill="#000000" fill-opacity="1.00" />			<path d="M-1036.77,-1226.47 L-1082.77,-1222.38 C-1082.77,-1222.38 -1141.04,-1168.71 -1172.47,-1071.34 C-1203.9,-973.979 -1234.57,-865.881 -1258.34,-728.644 C-1282.1,-591.406 -1306.64,-520.111 -1319.67,-441.142 C-1332.71,-362.183 -1348.8,-311.579 -1362.6,-297.783 C-1376.4,-283.982 -1374.1,-268.644 -1374.1,-260.206 C-1374.1,-251.774 -1361.83,-223.403 -1342.67,-203.486 C-1323.51,-183.547 -1186.27,-142.907 -1147.94,-128.348 C-1109.6,-113.779 -931.737,-73.907 -931.737,-73.907 L-861.969,-76.9757 L-832.835,-123.743 L-838.972,-264.817 L-881.902,-582.974 L-953.202,-933.355 L-1036.77,-1226.47 Z " fill="#636363" fill-opacity="1.00" />			<path d="M-1036.77,-1226.47 L-1037.04,-1229.53 L-1084.08,-1225.34 L-1084.85,-1224.64 C-1085.08,-1224.42 -1143.7,-1170.4 -1175.39,-1072.28 C-1206.85,-974.844 -1237.57,-866.569 -1261.36,-729.17 C-1273.23,-660.638 -1285.28,-608.593 -1296.01,-563.756 C-1306.74,-518.929 -1316.15,-481.287 -1322.69,-441.652 C-1329.2,-402.259 -1336.46,-369.97 -1343.78,-345.92 C-1347.44,-333.898 -1351.12,-323.923 -1354.69,-316.174 C-1358.24,-308.446 -1361.75,-302.942 -1364.77,-299.943 C-1370.3,-294.424 -1373.49,-288.55 -1375.23,-282.966 C-1376.98,-277.377 -1377.31,-272.11 -1377.31,-267.692 C-1377.31,-264.763 -1377.17,-262.189 -1377.17,-260.206 C-1377.17,-258.793 -1376.93,-257.25 -1376.53,-255.487 C-1375.82,-252.408 -1374.56,-248.651 -1372.8,-244.427 C-1367.54,-231.755 -1357.81,-214.82 -1344.88,-201.352 C-1343.45,-199.88 -1341.65,-198.45 -1339.46,-196.962 C-1335.37,-194.21 -1329.95,-191.292 -1323.47,-188.223 C-1312.14,-182.86 -1297.56,-177.012 -1281.54,-171.068 C-1257.5,-162.142 -1230.25,-152.979 -1206.04,-144.917 C-1181.85,-136.867 -1160.69,-129.907 -1149.02,-125.473 C-1144.09,-123.603 -1137.07,-121.373 -1128.5,-118.884 C-1098.51,-110.146 -1049.53,-98.1772 -1008,-88.353 C-966.466,-78.5611 -932.415,-70.9243 -932.409,-70.9243 L-932.012,-70.8275 L-860.222,-73.993 L-829.734,-122.931 L-835.914,-265.081 L-878.876,-583.495 L-950.225,-934.07 L-1034.51,-1229.75 L-1037.04,-1229.53 L-1036.77,-1226.47 L-1039.72,-1225.63 L-956.185,-932.624 L-884.927,-582.463 L-842.025,-264.543 L-835.941,-124.565 L-863.721,-79.9745 L-931.872,-76.9757 L-931.737,-73.907 L-931.066,-76.9112 C-931.071,-76.9112 -931.759,-77.0617 -933.07,-77.3465 C-942.9,-79.5661 -987.458,-89.6482 -1034.03,-100.875 C-1057.31,-106.491 -1081.1,-112.392 -1101.29,-117.745 C-1111.39,-120.411 -1120.58,-122.942 -1128.36,-125.226 C-1136.13,-127.51 -1142.49,-129.563 -1146.85,-131.213 C-1156.54,-134.9 -1172.31,-140.166 -1190.87,-146.331 C-1218.71,-155.591 -1252.8,-166.86 -1281.67,-177.657 C-1296.1,-183.053 -1309.23,-188.336 -1319.57,-193.167 C-1324.74,-195.586 -1329.21,-197.886 -1332.78,-200.003 C-1336.34,-202.11 -1339.01,-204.077 -1340.46,-205.603 C-1349.77,-215.272 -1357.5,-227.149 -1362.85,-237.564 C-1365.52,-242.761 -1367.6,-247.603 -1368.99,-251.597 C-1369.69,-253.59 -1370.21,-255.38 -1370.55,-256.853 C-1370.9,-258.336 -1371.04,-259.518 -1371.04,-260.206 C-1371.04,-262.453 -1371.18,-264.957 -1371.18,-267.692 C-1371.18,-271.804 -1370.87,-276.404 -1369.38,-281.133 C-1367.89,-285.879 -1365.26,-290.78 -1360.44,-295.606 C-1356.55,-299.513 -1352.87,-305.511 -1349.12,-313.616 C-1343.52,-325.751 -1337.88,-342.647 -1332.37,-363.956 C-1326.88,-385.255 -1321.54,-410.954 -1316.64,-440.647 C-1310.16,-479.965 -1300.78,-517.456 -1290.05,-562.337 C-1279.31,-607.201 -1267.22,-659.412 -1255.32,-728.122 C-1231.58,-865.182 -1200.96,-973.114 -1169.55,-1070.41 C-1153.96,-1118.71 -1131.69,-1156.19 -1113.34,-1181.58 C-1104.18,-1194.28 -1095.98,-1203.93 -1090.1,-1210.41 C-1087.15,-1213.64 -1084.79,-1216.1 -1083.16,-1217.72 C-1082.36,-1218.53 -1081.73,-1219.14 -1081.31,-1219.53 C-1081.1,-1219.74 -1080.94,-1219.89 -1080.84,-1219.99 L-1080.72,-1220.1 L-1080.69,-1220.13 L-1082.77,-1222.38 L-1082.5,-1219.33 L-1036.5,-1223.42 L-1036.77,-1226.47 L-1039.72,-1225.63 L-1036.77,-1226.47 Z " fill="#000000" fill-opacity="1.00" />			<path d="M-1362.35,-229.804 L-1359.79,-129.617 C-1359.79,-129.617 -1194.71,-74.9281 -1082.26,-45.2944 C-969.814,-15.6445 -894.682,2.75163 -894.682,2.75163 L-861.969,-76.9757 C-861.969,-76.9757 -977.483,-99.4724 -1100.66,-135.754 C-1223.84,-172.047 -1340.37,-206.291 -1362.35,-229.804 Z " fill="#5e5e5e" fill-opacity="1.00" />			<path d="M-1362.35,-229.804 L-1365.41,-229.718 L-1362.8,-127.386 L-1360.75,-126.715 C-1360.73,-126.698 -1195.65,-72.0099 -1083.04,-42.3224 C-970.572,-12.6725 -895.423,5.73434 -895.413,5.73434 L-892.844,6.35776 L-857.712,-79.2759 L-861.383,-79.9907 C-861.383,-79.9907 -861.829,-80.0713 -862.699,-80.254 C-875.791,-82.839 -984.47,-104.728 -1099.79,-138.694 C-1161.38,-156.843 -1221.29,-174.465 -1268.47,-190.47 C-1292.06,-198.477 -1312.47,-206.071 -1328.26,-213.084 C-1336.16,-216.594 -1342.91,-219.964 -1348.29,-223.145 C-1353.68,-226.311 -1357.7,-229.309 -1360.11,-231.894 L-1365.62,-237.795 L-1365.41,-229.718 L-1362.35,-229.804 L-1364.59,-227.713 C-1361.51,-224.424 -1357.08,-221.205 -1351.4,-217.862 C-1341.47,-212.015 -1327.69,-205.808 -1310.85,-199.246 C-1260.36,-179.56 -1182.37,-156.639 -1101.53,-132.809 C-978.187,-96.4735 -862.608,-73.9768 -862.554,-73.9661 L-861.969,-76.9757 L-864.806,-78.1473 L-897.519,1.59615 L-894.682,2.75162 L-893.951,-0.22035 C-893.956,-0.22035 -895.122,-0.51056 -897.396,-1.07486 C-913.304,-4.9927 -983.11,-22.314 -1081.48,-48.2502 C-1137.61,-63.0563 -1206.97,-84.1342 -1262.27,-101.493 C-1289.93,-110.189 -1314.07,-117.949 -1331.29,-123.533 C-1339.91,-126.328 -1346.79,-128.569 -1351.52,-130.127 C-1353.89,-130.912 -1355.71,-131.503 -1356.95,-131.911 C-1358.19,-132.325 -1358.83,-132.535 -1358.83,-132.535 L-1359.79,-129.617 L-1356.73,-129.697 L-1359.28,-229.884 L-1362.35,-229.804 L-1364.59,-227.713 L-1362.35,-229.804 Z " fill="#000000" fill-opacity="1.00" />			<path d="M1060.84,-1222.38 C1034.26,-1251 941.234,-1314.39 860.738,-1348.88 C789.206,-1379.53 521.584,-1500.97 441.292,-1541.12 L266.274,-1641.65 L165.167,-1647.84 L-249.624,-1641.65 L-431.344,-1559.63 L-437.235,-1559.72 C-437.235,-1559.72 -579.835,-1486.11 -763.834,-1399.48 C-932.506,-1319.75 -1055.94,-1262.24 -1082.77,-1222.38 C-1057.47,-1151.08 -886.502,-741.934 -841.525,-104.067 C-806.769,513.356 -800.637,750.506 -800.637,918.162 C-800.637,1085.81 -806.769,1253.45 -800.637,1339.31 C-794.505,1425.18 -825.171,1483.95 -822.871,1579.79 C-820.571,1675.63 -819.039,1691.73 -819.039,1691.73 C-819.039,1691.73 -717.836,1752.29 -602.327,1776.82 C-486.818,1801.35 -396.852,1812.61 -115.746,1809.54 C165.361,1806.47 349.36,1821.8 510.884,1796.25 C666.254,1770.68 757.235,1717.54 794.038,1688.91 C797.09,1596.92 802.212,1526.38 788.921,1456.86 C775.631,1387.36 776.647,1231.99 776.647,1102.15 C776.647,972.329 761.319,885.443 769.493,768.913 C777.678,652.383 794.038,426.459 798.122,282.332 C802.212,138.199 822.656,-81.5707 821.635,-170.504 C820.603,-259.454 850.253,-440.384 882.971,-611.098 C915.674,-781.806 1031.19,-1136.52 1060.84,-1222.38 Z " fill="#636363" fill-opacity="1.00" />			<path d="M1060.84,-1222.38 L1063.08,-1224.46 C1056.21,-1231.85 1045.34,-1241.23 1031.54,-1251.8 C990.161,-1283.48 922.649,-1325.67 861.936,-1351.69 C826.23,-1366.99 741.44,-1405.02 655.575,-1444.23 C569.71,-1483.43 482.717,-1523.84 442.657,-1543.86 L441.292,-1541.12 L442.818,-1543.78 L267.182,-1644.68 L165.237,-1650.91 L-250.312,-1644.71 L-431.989,-1562.72 L-437.96,-1562.79 L-438.637,-1562.45 C-438.648,-1562.45 -439.202,-1562.16 -440.287,-1561.59 C-456.603,-1553.2 -592.691,-1483.44 -765.14,-1402.25 L-765.146,-1402.25 C-849.479,-1362.39 -922.526,-1328.07 -977.929,-1298.69 C-1005.63,-1283.99 -1028.93,-1270.54 -1047.06,-1258.2 C-1056.13,-1252.02 -1063.91,-1246.12 -1070.31,-1240.46 C-1076.71,-1234.81 -1081.75,-1229.39 -1085.31,-1224.09 L-1086.18,-1222.81 L-1085.66,-1221.35 C-1079.29,-1203.41 -1063.9,-1164.57 -1043.62,-1106.25 C-982.82,-931.383 -878.296,-581.915 -844.583,-103.847 L-841.525,-104.067 L-844.588,-103.89 C-809.833,513.506 -803.706,750.603 -803.706,918.162 C-803.701,1029.88 -806.431,1141.62 -806.431,1229.22 C-806.431,1273.01 -805.748,1310.76 -803.695,1339.53 C-803.142,1347.29 -802.889,1354.82 -802.889,1362.18 C-802.889,1397.39 -808.629,1428.66 -814.428,1461.46 C-820.221,1494.24 -826.063,1528.54 -826.063,1569.5 C-826.063,1572.91 -826.02,1576.37 -825.934,1579.86 C-823.634,1675.74 -822.108,1691.83 -822.091,1692.01 L-821.941,1693.56 L-820.613,1694.36 C-820.538,1694.39 -795.15,1709.58 -755.273,1727.85 C-715.396,1746.13 -661.041,1767.5 -602.961,1779.82 C-551.363,1790.79 -504.746,1799.11 -443.99,1804.7 C-383.234,1810.27 -308.349,1813.1 -200.084,1813.1 C-173.997,1813.1 -145.96,1812.94 -115.719,1812.61 C-87.8424,1812.3 -60.9335,1812.18 -34.8897,1812.18 C75.9599,1812.18 170.837,1814.41 255.407,1814.41 C351.219,1814.41 433.811,1811.55 511.351,1799.27 L511.378,1799.27 C589.305,1786.45 651.131,1766.71 698.129,1746.55 C745.127,1726.38 777.281,1705.83 795.908,1691.33 L797.053,1690.45 L797.09,1689.02 C798.633,1643.05 800.67,1602.4 800.67,1564.47 C800.67,1526.53 798.633,1491.31 791.931,1456.3 C789.083,1441.41 786.885,1422.41 785.202,1400.5 C780.14,1334.72 779.699,1242.69 779.699,1155.19 C779.699,1137.23 779.715,1119.47 779.715,1102.15 C779.715,999.459 770.154,923.681 770.165,839.246 C770.165,816.723 770.842,793.581 772.562,769.123 C780.731,652.587 797.09,426.68 801.191,282.429 C803.174,212.203 809.064,123.904 814.455,41.5646 C819.834,-40.7961 824.73,-117.164 824.73,-163.792 C824.73,-166.119 824.719,-168.371 824.703,-170.547 C824.676,-172.03 824.676,-173.53 824.676,-175.072 C824.666,-219.98 831.942,-286.97 843.266,-363.612 C854.574,-440.26 869.901,-526.619 885.981,-610.517 C902.286,-695.624 939.326,-826.961 975.989,-947.661 C1012.64,-1068.36 1048.92,-1178.5 1063.72,-1221.38 L1064.33,-1223.11 L1063.08,-1224.46 L1060.84,-1222.38 L1057.93,-1223.39 C1043.09,-1180.39 1006.81,-1070.25 970.115,-949.451 C933.419,-828.637 896.358,-697.263 879.956,-611.673 C863.86,-527.721 848.522,-441.292 837.199,-364.51 C825.859,-287.712 818.539,-220.598 818.539,-175.072 C818.539,-173.519 818.555,-171.977 818.566,-170.477 C818.598,-168.333 818.598,-166.086 818.598,-163.792 C818.609,-117.551 813.724,-41.1669 808.333,41.1616 C802.938,123.506 797.053,211.832 795.054,282.246 C790.969,426.255 774.61,652.162 766.441,768.693 C764.705,793.307 764.033,816.599 764.033,839.246 C764.033,924.186 773.594,999.872 773.594,1102.15 C773.594,1119.46 773.567,1137.23 773.567,1155.19 C773.567,1213.55 773.761,1273.93 775.394,1327.29 C776.206,1353.98 777.388,1378.91 779.081,1400.96 C780.79,1423.02 782.988,1442.2 785.906,1457.44 C792.495,1491.93 794.548,1526.74 794.548,1564.47 C794.548,1602.18 792.495,1642.77 790.969,1688.81 L794.038,1688.91 L792.151,1686.5 C773.981,1700.63 742.251,1720.95 695.71,1740.91 C649.18,1760.87 587.832,1780.48 510.373,1793.22 L510.4,1793.22 C433.381,1805.41 351.107,1808.27 255.407,1808.27 C170.945,1808.27 76.0406,1806.05 -34.8897,1806.05 C-60.9496,1806.05 -87.8854,1806.17 -115.773,1806.47 C-146.003,1806.8 -174.024,1806.96 -200.084,1806.96 C-308.252,1806.96 -382.944,1804.13 -443.426,1798.59 C-503.918,1793.03 -550.202,1784.76 -601.687,1773.82 C-659.122,1761.63 -713.123,1740.43 -752.72,1722.28 C-772.519,1713.22 -788.728,1704.91 -799.971,1698.87 C-805.592,1695.86 -809.972,1693.41 -812.945,1691.71 C-814.433,1690.86 -815.567,1690.2 -816.325,1689.76 C-816.707,1689.54 -816.991,1689.38 -817.179,1689.26 C-817.373,1689.14 -817.464,1689.1 -817.464,1689.1 L-819.039,1691.73 L-815.986,1691.44 L-815.986,1691.4 C-816.067,1690.53 -817.577,1672.52 -819.802,1579.72 C-819.888,1576.27 -819.926,1572.86 -819.926,1569.5 C-819.926,1529.12 -814.181,1495.29 -808.387,1462.53 C-802.604,1429.77 -796.757,1398.06 -796.757,1362.18 C-796.757,1354.68 -797.015,1347 -797.579,1339.09 C-799.616,1310.61 -800.299,1272.94 -800.293,1229.22 C-800.293,1141.75 -797.569,1029.96 -797.569,918.162 C-797.569,750.426 -803.706,513.205 -838.461,-104.245 L-838.467,-104.261 L-838.467,-104.288 C-860.974,-423.45 -914.997,-685.391 -966.568,-876.49 C-992.354,-972.028 -1017.52,-1049.87 -1037.83,-1108.27 C-1058.13,-1166.66 -1073.6,-1205.7 -1079.88,-1223.4 L-1082.77,-1222.38 L-1080.23,-1220.66 C-1077.08,-1225.34 -1072.39,-1230.44 -1066.25,-1235.87 C-1055.5,-1245.37 -1040.34,-1255.87 -1021.36,-1267.3 C-964.408,-1301.63 -873.206,-1344.39 -762.528,-1396.71 C-578.476,-1483.36 -435.859,-1556.98 -435.832,-1557 L-437.235,-1559.72 L-437.272,-1556.65 L-430.71,-1556.56 L-248.936,-1638.59 L165.087,-1644.77 L265.365,-1638.64 L439.836,-1538.41 L439.916,-1538.37 C480.159,-1518.25 567.125,-1477.87 653.033,-1438.65 C738.925,-1399.44 823.698,-1361.41 859.529,-1346.06 C899.551,-1328.91 942.819,-1304.51 979.332,-1280.86 C997.588,-1269.02 1014.17,-1257.39 1027.82,-1246.93 C1041.44,-1236.5 1052.15,-1227.23 1058.58,-1220.29 L1060.84,-1222.38 L1057.93,-1223.39 L1060.84,-1222.38 Z " fill="#000000" fill-opacity="1.00" />			<path d="M-819.039,1614.93 C-819.039,1614.93 -662.637,1700.02 -532.816,1713.31 C-402.99,1726.6 -315.072,1738.86 -87.1277,1731.71 C118.347,1727.62 370.835,1748.07 505.762,1720.47 C640.704,1692.87 742.928,1657.09 794.038,1612.11 L-819.039,1614.93 Z " fill="#636363" fill-opacity="1.00" />			<path d="M-820.501,1617.61 C-820.479,1617.62 -814.879,1620.68 -804.931,1625.7 L-802.169,1620.22 C-807.108,1617.74 -810.967,1615.73 -813.584,1614.35 C-814.895,1613.66 -815.895,1613.12 -816.561,1612.77 C-816.9,1612.59 -817.152,1612.45 -817.319,1612.37 C-817.491,1612.28 -817.572,1612.23 -817.572,1612.23 L-820.501,1617.61 Z M-789.298,1633.43 C-784.504,1635.76 -779.237,1638.28 -773.546,1640.92 L-770.955,1635.36 C-776.614,1632.73 -781.854,1630.23 -786.621,1627.91 L-789.298,1633.43 Z M-757.697,1648.18 C-752.607,1650.47 -747.282,1652.82 -741.741,1655.21 L-739.312,1649.58 C-744.82,1647.2 -750.119,1644.87 -755.182,1642.58 L-757.697,1648.18 Z M-725.688,1662.01 C-720.442,1664.18 -715.052,1666.37 -709.533,1668.56 L-707.276,1662.85 C-712.757,1660.68 -718.121,1658.5 -723.339,1656.34 L-725.688,1662.01 Z M-693.275,1674.84 C-687.907,1676.88 -682.452,1678.89 -676.911,1680.87 L-674.842,1675.1 C-680.345,1673.12 -685.773,1671.13 -691.11,1669.11 L-693.275,1674.84 Z M-660.439,1686.6 C-654.962,1688.44 -649.427,1690.24 -643.848,1692 L-642.01,1686.14 C-647.546,1684.41 -653.044,1682.62 -658.477,1680.78 L-660.439,1686.6 Z M-627.167,1697.04 C-621.588,1698.66 -615.977,1700.22 -610.351,1701.7 L-608.787,1695.77 C-614.36,1694.3 -619.922,1692.76 -625.463,1691.15 L-627.167,1697.04 Z M-593.384,1705.94 C-587.693,1707.27 -581.996,1708.52 -576.315,1709.67 L-575.095,1703.65 C-580.717,1702.53 -586.349,1701.29 -591.981,1699.97 L-593.384,1705.94 Z M-559.123,1712.84 C-553.319,1713.81 -547.542,1714.66 -541.807,1715.38 L-541.044,1709.28 C-546.698,1708.58 -552.389,1707.74 -558.118,1706.79 L-559.123,1712.84 Z M-524.486,1717.25 C-518.66,1717.85 -512.915,1718.46 -507.235,1719.05 L-506.59,1712.94 C-512.281,1712.35 -518.026,1711.76 -523.852,1711.15 L-524.486,1717.25 Z M-489.967,1720.85 C-484.174,1721.46 -478.423,1722.05 -472.699,1722.64 L-472.081,1716.55 C-477.794,1715.96 -483.545,1715.37 -489.333,1714.76 L-489.967,1720.85 Z M-455.437,1724.4 C-449.671,1724.98 -443.92,1725.54 -438.154,1726.11 L-437.562,1720 C-443.329,1719.45 -449.063,1718.89 -454.814,1718.31 L-455.437,1724.4 Z M-420.859,1727.72 C-415.125,1728.23 -409.374,1728.74 -403.554,1729.22 L-403.043,1723.11 C-408.837,1722.63 -414.587,1722.12 -420.311,1721.61 L-420.859,1727.72 Z M-386.233,1730.61 C-380.52,1731.05 -374.759,1731.46 -368.911,1731.86 L-368.481,1725.74 C-374.318,1725.34 -380.079,1724.93 -385.765,1724.5 L-386.233,1730.61 Z M-351.563,1732.97 C-345.867,1733.3 -340.084,1733.63 -334.21,1733.94 L-333.893,1727.8 C-339.756,1727.51 -345.523,1727.18 -351.203,1726.85 L-351.563,1732.97 Z M-316.851,1734.75 C-311.165,1735 -305.388,1735.22 -299.487,1735.42 L-299.282,1729.3 C-305.156,1729.1 -310.918,1728.86 -316.588,1728.63 L-316.851,1734.75 Z M-282.122,1735.96 C-276.442,1736.11 -270.648,1736.25 -264.747,1736.37 L-264.624,1730.24 C-270.514,1730.13 -276.291,1729.99 -281.956,1729.84 L-282.122,1735.96 Z M-247.383,1736.66 C-241.703,1736.73 -235.909,1736.79 -230.008,1736.82 L-229.965,1730.69 C-235.855,1730.65 -241.633,1730.6 -247.302,1730.53 L-247.383,1736.66 Z M-212.633,1736.88 C-211.972,1736.89 -211.311,1736.89 -210.65,1736.89 C-205.598,1736.89 -200.471,1736.88 -195.253,1736.85 L-195.28,1730.72 C-200.482,1730.75 -205.598,1730.76 -210.65,1730.76 C-211.311,1730.76 -211.972,1730.76 -212.633,1730.76 L-212.633,1736.88 Z M-177.878,1736.72 C-172.181,1736.66 -166.387,1736.59 -160.503,1736.51 L-160.583,1730.38 C-166.473,1730.46 -172.251,1730.53 -177.931,1730.6 L-177.878,1736.72 Z M-143.128,1736.21 C-137.431,1736.1 -131.637,1735.98 -125.747,1735.84 L-125.898,1729.71 C-131.777,1729.85 -137.554,1729.96 -143.235,1730.07 L-143.128,1736.21 Z M-108.388,1735.4 C-102.692,1735.24 -96.8982,1735.08 -91.024,1734.9 L-91.2014,1728.76 C-97.0755,1728.94 -102.853,1729.12 -108.55,1729.27 L-108.388,1735.4 Z M-73.7135,1734.54 C-67.963,1734.46 -62.1857,1734.39 -56.3654,1734.34 L-56.4191,1728.22 C-62.2394,1728.25 -68.033,1728.32 -73.7995,1728.42 L-73.7135,1734.54 Z M-39.0172,1734.24 C-34.6695,1734.22 -30.3109,1734.21 -25.9308,1734.21 C-24.5175,1734.21 -23.0986,1734.21 -21.6798,1734.21 L-21.6798,1728.08 C-23.0986,1728.08 -24.5175,1728.08 -25.9308,1728.08 C-30.3217,1728.08 -34.6856,1728.09 -39.0441,1728.1 L-39.0172,1734.24 Z M-4.34777,1734.27 C1.41882,1734.29 7.21226,1734.34 13.0004,1734.39 L13.0595,1728.25 C7.24987,1728.2 1.46177,1728.17 -4.30482,1728.13 L-4.34777,1734.27 Z M30.3539,1734.57 C36.1312,1734.63 41.9085,1734.71 47.7128,1734.79 L47.7987,1728.66 C41.9892,1728.57 36.2118,1728.5 30.4345,1728.44 L30.3539,1734.57 Z M65.0609,1735.03 C70.8436,1735.13 76.6317,1735.23 82.4252,1735.34 L82.5219,1729.2 C76.7285,1729.1 70.9512,1729 65.1576,1728.91 L65.0609,1735.03 Z M99.7733,1735.64 C105.567,1735.76 111.36,1735.86 117.138,1735.98 L117.261,1729.84 C111.468,1729.73 105.68,1729.62 99.8862,1729.5 L99.7733,1735.64 Z M134.502,1736.3 C140.29,1736.41 146.083,1736.52 151.861,1736.63 L151.984,1730.51 C146.207,1730.4 140.419,1730.29 134.625,1730.17 L134.502,1736.3 Z M169.241,1736.96 C175.045,1737.07 180.839,1737.17 186.6,1737.27 L186.713,1731.13 C180.936,1731.04 175.158,1730.94 169.349,1730.83 L169.241,1736.96 Z M203.98,1737.56 C209.801,1737.64 215.589,1737.72 221.355,1737.8 L221.436,1731.67 C215.675,1731.58 209.881,1731.5 204.077,1731.42 L203.98,1737.56 Z M238.747,1738.01 C244.567,1738.07 250.355,1738.12 256.111,1738.16 L256.165,1732.03 C250.398,1731.98 244.621,1731.93 238.8,1731.87 L238.747,1738.01 Z M273.486,1738.24 C277.323,1738.26 281.134,1738.26 284.933,1738.26 C286.911,1738.26 288.894,1738.26 290.877,1738.26 L290.861,1732.12 C288.894,1732.12 286.911,1732.12 284.933,1732.12 C281.15,1732.12 277.339,1732.12 273.513,1732.11 L273.486,1738.24 Z M308.252,1738.17 C314.083,1738.13 319.893,1738.08 325.627,1738 L325.546,1731.87 C319.823,1731.94 314.029,1732.01 308.209,1732.05 L308.252,1738.17 Z M343.018,1737.71 C348.865,1737.58 354.67,1737.43 360.409,1737.27 L360.216,1731.13 C354.508,1731.31 348.726,1731.44 342.895,1731.57 L343.018,1737.71 Z M377.784,1736.66 C383.658,1736.44 389.452,1736.18 395.176,1735.88 L394.858,1729.75 C389.162,1730.04 383.4,1730.31 377.553,1730.54 L377.784,1736.66 Z M412.551,1734.88 C418.425,1734.5 424.218,1734.09 429.915,1733.62 L429.42,1727.51 C423.767,1727.97 418,1728.38 412.153,1728.76 L412.551,1734.88 Z M447.263,1732.07 C453.164,1731.47 458.947,1730.84 464.6,1730.14 L463.843,1724.06 C458.243,1724.75 452.519,1725.38 446.661,1725.96 L447.263,1732.07 Z M481.879,1727.79 C487.796,1726.89 493.546,1725.93 499.103,1724.9 L497.991,1718.86 C492.487,1719.89 486.818,1720.84 480.97,1721.72 L481.879,1727.79 Z M516.193,1721.43 C521.928,1720.23 527.598,1719.01 533.198,1717.78 L531.892,1711.79 C526.292,1713.02 520.649,1714.24 514.941,1715.43 L516.193,1721.43 Z M550.175,1713.96 C555.882,1712.64 561.525,1711.3 567.098,1709.94 L565.653,1703.99 C560.106,1705.33 554.48,1706.67 548.783,1707.98 L550.175,1713.96 Z M583.99,1705.75 C589.676,1704.29 595.286,1702.82 600.817,1701.32 L599.22,1695.4 C593.717,1696.89 588.133,1698.34 582.463,1699.8 L583.99,1705.75 Z M617.59,1696.67 C623.26,1695.04 628.833,1693.41 634.304,1691.74 L632.519,1685.88 C627.081,1687.53 621.54,1689.15 615.913,1690.76 L617.59,1696.67 Z M650.926,1686.54 C656.537,1684.73 662.056,1682.88 667.447,1681.02 L665.453,1675.22 C660.089,1677.07 654.629,1678.91 649.04,1680.71 L650.926,1686.54 Z M683.865,1675.13 C689.422,1673.07 694.856,1670.98 700.139,1668.85 L697.854,1663.16 C692.615,1665.27 687.235,1667.35 681.732,1669.38 L683.865,1675.13 Z M716.234,1662.11 C721.7,1659.71 726.994,1657.29 732.11,1654.81 L729.455,1649.3 C724.409,1651.72 719.18,1654.13 713.773,1656.48 L716.234,1662.11 Z M747.712,1646.92 C753.027,1644.07 758.1,1641.19 762.958,1638.26 L759.782,1633.01 C755.031,1635.89 750.039,1638.72 744.826,1641.5 L747.712,1646.92 Z M777.695,1628.72 C782.687,1625.25 787.363,1621.7 791.727,1618.09 L787.83,1613.37 C783.612,1616.85 779.054,1620.29 774.185,1623.68 L777.695,1628.72 Z " fill="#000000" fill-opacity="1.00" />			<path d="M-819.039,1595.89 C-819.039,1595.89 -662.637,1681 -532.816,1694.29 C-402.99,1707.58 -315.072,1719.84 -87.1277,1712.68 C118.347,1708.59 370.835,1729.04 505.762,1701.44 C640.704,1673.84 742.928,1638.06 794.038,1593.08 L-819.039,1595.89 Z " fill="#636363" fill-opacity="1.00" />			<path d="M-820.501,1598.58 C-820.479,1598.6 -814.879,1601.64 -804.931,1606.68 L-802.169,1601.2 C-807.108,1598.7 -810.967,1596.7 -813.584,1595.33 C-814.895,1594.64 -815.895,1594.1 -816.561,1593.74 C-816.9,1593.56 -817.152,1593.42 -817.319,1593.33 C-817.491,1593.25 -817.572,1593.2 -817.572,1593.2 L-820.501,1598.58 Z M-789.298,1614.4 C-784.504,1616.73 -779.237,1619.24 -773.546,1621.89 L-770.955,1616.33 C-776.614,1613.69 -781.854,1611.2 -786.621,1608.89 L-789.298,1614.4 Z M-757.697,1629.16 C-752.607,1631.44 -747.282,1633.79 -741.741,1636.19 L-739.312,1630.54 C-744.82,1628.16 -750.119,1625.82 -755.182,1623.56 L-757.697,1629.16 Z M-725.688,1642.98 C-720.442,1645.16 -715.052,1647.34 -709.533,1649.53 L-707.276,1643.82 C-712.757,1641.65 -718.121,1639.48 -723.339,1637.31 L-725.688,1642.98 Z M-693.275,1655.82 C-687.907,1657.84 -682.452,1659.87 -676.911,1661.84 L-674.842,1656.07 C-680.345,1654.1 -685.773,1652.09 -691.11,1650.08 L-693.275,1655.82 Z M-660.439,1667.57 C-654.962,1669.41 -649.427,1671.22 -643.848,1672.96 L-642.01,1667.11 C-647.546,1665.38 -653.044,1663.58 -658.477,1661.75 L-660.439,1667.57 Z M-627.167,1678.01 C-621.588,1679.63 -615.977,1681.19 -610.351,1682.67 L-608.787,1676.75 C-614.36,1675.27 -619.922,1673.73 -625.463,1672.12 L-627.167,1678.01 Z M-593.384,1686.91 C-587.693,1688.25 -581.996,1689.48 -576.315,1690.64 L-575.101,1684.63 C-580.717,1683.48 -586.349,1682.26 -591.981,1680.94 L-593.384,1686.91 Z M-559.123,1693.82 C-553.319,1694.78 -547.542,1695.62 -541.807,1696.35 L-541.044,1690.26 C-546.698,1689.55 -552.389,1688.71 -558.118,1687.76 L-559.123,1693.82 Z M-524.486,1698.22 C-518.66,1698.83 -512.915,1699.42 -507.235,1700.02 L-506.59,1693.92 C-512.281,1693.33 -518.026,1692.72 -523.852,1692.13 L-524.486,1698.22 Z M-489.967,1701.83 C-484.174,1702.43 -478.423,1703.02 -472.699,1703.61 L-472.081,1697.52 C-477.794,1696.93 -483.545,1696.32 -489.333,1695.72 L-489.967,1701.83 Z M-455.437,1705.37 C-449.671,1705.95 -443.92,1706.52 -438.154,1707.07 L-437.562,1700.97 C-443.329,1700.41 -449.063,1699.84 -454.814,1699.26 L-455.437,1705.37 Z M-420.859,1708.69 C-415.125,1709.2 -409.374,1709.71 -403.554,1710.19 L-403.043,1704.08 C-408.837,1703.6 -414.587,1703.09 -420.311,1702.58 L-420.859,1708.69 Z M-386.233,1711.58 C-380.52,1712.02 -374.759,1712.43 -368.911,1712.83 L-368.481,1706.71 C-374.318,1706.31 -380.079,1705.9 -385.765,1705.46 L-386.233,1711.58 Z M-351.563,1713.93 C-345.867,1714.27 -340.084,1714.61 -334.21,1714.9 L-333.893,1708.77 C-339.756,1708.47 -345.523,1708.15 -351.203,1707.81 L-351.563,1713.93 Z M-316.851,1715.72 C-311.165,1715.97 -305.388,1716.19 -299.487,1716.4 L-299.282,1710.26 C-305.156,1710.06 -310.918,1709.83 -316.588,1709.58 L-316.851,1715.72 Z M-282.122,1716.93 C-276.442,1717.08 -270.648,1717.22 -264.747,1717.34 L-264.624,1711.21 C-270.514,1711.09 -276.291,1710.96 -281.956,1710.8 L-282.122,1716.93 Z M-247.383,1717.62 C-241.703,1717.7 -235.909,1717.76 -230.008,1717.8 L-229.965,1711.66 C-235.855,1711.62 -241.633,1711.57 -247.302,1711.5 L-247.383,1717.62 Z M-212.633,1717.85 C-211.972,1717.85 -211.311,1717.85 -210.634,1717.85 C-205.598,1717.85 -200.471,1717.84 -195.253,1717.83 L-195.28,1711.69 C-200.482,1711.72 -205.598,1711.73 -210.634,1711.73 C-211.311,1711.73 -211.972,1711.73 -212.633,1711.72 L-212.633,1717.85 Z M-177.878,1717.69 C-172.181,1717.63 -166.387,1717.56 -160.503,1717.47 L-160.583,1711.35 C-166.473,1711.43 -172.251,1711.5 -177.931,1711.55 L-177.878,1717.69 Z M-143.128,1717.18 C-137.431,1717.07 -131.637,1716.95 -125.747,1716.81 L-125.898,1710.67 C-131.777,1710.81 -137.554,1710.93 -143.235,1711.04 L-143.128,1717.18 Z M-108.388,1716.37 C-102.692,1716.21 -96.8982,1716.05 -91.024,1715.87 L-91.2014,1709.74 C-97.0755,1709.92 -102.853,1710.08 -108.55,1710.24 L-108.388,1716.37 Z M-73.7135,1715.52 C-67.963,1715.43 -62.1857,1715.37 -56.3654,1715.31 L-56.4191,1709.18 C-62.2394,1709.23 -68.033,1709.3 -73.7995,1709.38 L-73.7135,1715.52 Z M-39.0172,1715.21 C-34.6695,1715.18 -30.3109,1715.18 -25.9308,1715.18 C-24.5175,1715.18 -23.0986,1715.18 -21.6798,1715.18 L-21.6798,1709.05 C-23.0986,1709.05 -24.5175,1709.05 -25.9308,1709.05 C-30.3217,1709.05 -34.6856,1709.06 -39.0441,1709.08 L-39.0172,1715.21 Z M-4.34777,1715.24 C1.41882,1715.27 7.21226,1715.31 13.0004,1715.37 L13.0595,1709.23 C7.24987,1709.17 1.46177,1709.13 -4.30482,1709.1 L-4.34777,1715.24 Z M30.3539,1715.53 C36.1312,1715.6 41.9085,1715.68 47.7128,1715.75 L47.7987,1709.63 C41.9892,1709.54 36.2118,1709.46 30.4345,1709.41 L30.3539,1715.53 Z M65.0609,1716.01 C70.8436,1716.11 76.6317,1716.2 82.4252,1716.3 L82.5219,1710.18 C76.7285,1710.07 70.9404,1709.97 65.1576,1709.89 L65.0609,1716.01 Z M99.7733,1716.62 C105.567,1716.72 111.36,1716.84 117.138,1716.95 L117.261,1710.81 C111.468,1710.7 105.68,1710.59 99.8862,1710.48 L99.7733,1716.62 Z M134.502,1717.28 C140.29,1717.39 146.083,1717.49 151.861,1717.61 L151.984,1711.47 C146.207,1711.36 140.419,1711.25 134.625,1711.14 L134.502,1717.28 Z M169.241,1717.93 C175.045,1718.03 180.839,1718.14 186.6,1718.24 L186.713,1712.1 C180.936,1712.01 175.158,1711.91 169.349,1711.8 L169.241,1717.93 Z M203.98,1718.51 C209.801,1718.61 215.589,1718.69 221.355,1718.76 L221.436,1712.64 C215.675,1712.55 209.881,1712.47 204.077,1712.39 L203.98,1718.51 Z M238.747,1718.97 C244.567,1719.04 250.355,1719.08 256.111,1719.12 L256.165,1713 C250.398,1712.96 244.621,1712.9 238.8,1712.84 L238.747,1718.97 Z M273.486,1719.21 C277.323,1719.23 281.134,1719.23 284.933,1719.23 C286.911,1719.23 288.894,1719.23 290.877,1719.23 L290.861,1713.09 C288.894,1713.09 286.911,1713.09 284.933,1713.09 C281.15,1713.09 277.339,1713.09 273.513,1713.08 L273.486,1719.21 Z M308.252,1719.15 C314.083,1719.11 319.893,1719.05 325.627,1718.97 L325.546,1712.83 C319.823,1712.91 314.029,1712.97 308.209,1713.01 L308.252,1719.15 Z M343.018,1718.66 C348.865,1718.56 354.67,1718.4 360.409,1718.24 L360.216,1712.1 C354.508,1712.27 348.726,1712.42 342.895,1712.54 L343.018,1718.66 Z M377.784,1717.63 C383.658,1717.4 389.452,1717.14 395.176,1716.85 L394.858,1710.73 C389.162,1711.02 383.4,1711.28 377.553,1711.51 L377.784,1717.63 Z M412.551,1715.84 C418.425,1715.47 424.218,1715.05 429.915,1714.59 L429.42,1708.49 C423.767,1708.94 418,1709.35 412.153,1709.74 L412.551,1715.84 Z M447.263,1713.04 C453.164,1712.45 458.947,1711.8 464.6,1711.11 L463.843,1705.03 C458.243,1705.72 452.519,1706.35 446.661,1706.93 L447.263,1713.04 Z M481.879,1708.76 C487.796,1707.86 493.546,1706.9 499.103,1705.86 L497.991,1699.83 C492.487,1700.86 486.818,1701.81 480.97,1702.69 L481.879,1708.76 Z M516.193,1702.4 C521.928,1701.2 527.598,1699.98 533.198,1698.76 L531.892,1692.76 C526.292,1694 520.649,1695.21 514.941,1696.4 L516.193,1702.4 Z M550.175,1694.93 C555.882,1693.61 561.525,1692.28 567.098,1690.92 L565.653,1684.96 C560.106,1686.31 554.48,1687.64 548.783,1688.95 L550.175,1694.93 Z M583.99,1686.7 C589.676,1685.26 595.286,1683.79 600.817,1682.29 L599.22,1676.37 C593.717,1677.86 588.133,1679.31 582.463,1680.78 L583.99,1686.7 Z M617.59,1677.63 C623.26,1676.01 628.833,1674.38 634.304,1672.71 L632.519,1666.85 C627.081,1668.49 621.54,1670.12 615.913,1671.74 L617.59,1677.63 Z M650.926,1667.51 C656.537,1665.7 662.056,1663.85 667.447,1661.98 L665.453,1656.19 C660.089,1658.05 654.629,1659.88 649.04,1661.68 L650.926,1667.51 Z M683.865,1656.11 C689.422,1654.04 694.856,1651.95 700.139,1649.82 L697.854,1644.14 C692.615,1646.23 687.235,1648.3 681.732,1650.36 L683.865,1656.11 Z M716.234,1643.08 C721.7,1640.68 726.994,1638.25 732.11,1635.79 L729.455,1630.26 C724.409,1632.69 719.18,1635.08 713.773,1637.45 L716.234,1643.08 Z M747.712,1627.88 C753.027,1625.04 758.1,1622.16 762.958,1619.24 L759.782,1613.98 C755.031,1616.85 750.039,1619.68 744.826,1622.47 L747.712,1627.88 Z M777.695,1609.69 C782.687,1606.22 787.363,1602.67 791.727,1599.07 L787.83,1594.33 C783.612,1597.83 779.054,1601.27 774.185,1604.65 L777.695,1609.69 Z " fill="#000000" fill-opacity="1.00" />			<path d="M51.9907,-628.306 L51.9907,-1240.81 L-79.2436,-1240.81 L-79.2436,-628.306 L51.9907,-628.306 Z " fill="#5e5e5e" fill-opacity="1.00" />			<path d="M51.9907,-628.306 L51.9907,-632.777 L-74.8313,-632.777 L-74.8313,-1236.32 L47.5785,-1236.32 L47.5785,-628.306 L51.9907,-628.306 L51.9907,-632.777 L51.9907,-628.306 L56.3976,-628.306 L56.3976,-1245.28 L-83.6505,-1245.28 L-83.6505,-623.824 L56.3976,-623.824 L56.3976,-628.306 L51.9907,-628.306 Z " fill="#000000" fill-opacity="1.00" />			<path d="M-77.1423,-685.612 L-62.4329,-685.612 L-62.4329,-691.583 L-77.1423,-691.583 L-77.1423,-685.612 Z M-50.6686,-685.612 L-35.9646,-685.612 L-35.9646,-691.583 L-50.6686,-691.583 L-50.6686,-685.612 Z M-24.2003,-685.612 L-9.50711,-685.612 L-9.50711,-691.583 L-24.2003,-691.583 L-24.2003,-685.612 Z M2.25721,-685.612 L16.9665,-685.612 L16.9665,-691.583 L2.25721,-691.583 L2.25721,-685.612 Z M28.7255,-685.612 L43.4348,-685.612 L43.4348,-691.583 L28.7255,-691.583 L28.7255,-685.612 Z " fill="#000000" fill-opacity="1.00" />			<path d="M28.7684,-900.47 C28.7684,-924.149 10.5819,-943.34 -11.8718,-943.34 C-34.3094,-943.34 -52.5012,-924.149 -52.5012,-900.47 C-52.5012,-876.791 -34.3094,-857.599 -11.8718,-857.599 C10.5819,-857.599 28.7684,-876.791 28.7684,-900.47 Z " fill="#0e121b" fill-opacity="1.00" />			<path d="M28.7685,-900.47 L25.7428,-900.47 C25.7428,-889.533 21.5455,-879.639 14.7362,-872.459 C7.92707,-865.279 -1.45644,-860.835 -11.8718,-860.835 C-22.2709,-860.835 -31.6544,-865.279 -38.469,-872.459 C-45.2782,-879.639 -49.4594,-889.533 -49.4755,-900.47 C-49.4594,-911.423 -45.2782,-921.3 -38.469,-928.481 C-31.6544,-935.666 -22.2709,-940.105 -11.8718,-940.105 C-1.45644,-940.105 7.92707,-935.666 14.7362,-928.481 C21.5455,-921.3 25.7428,-911.423 25.7428,-900.47 L31.7942,-900.47 C31.7942,-913.212 26.8983,-924.756 19.0035,-933.092 C11.1033,-941.427 0.166639,-946.576 -11.8718,-946.576 C-23.8993,-946.576 -34.836,-941.427 -42.7308,-933.092 C-50.631,-924.756 -55.527,-913.212 -55.527,-900.47 C-55.527,-887.744 -50.631,-876.189 -42.7308,-867.864 C-34.836,-859.529 -23.8993,-854.369 -11.8718,-854.369 C0.166639,-854.369 11.1033,-859.529 19.0035,-867.864 C26.8983,-876.189 31.7942,-887.744 31.7942,-900.47 L28.7685,-900.47 Z " fill="#343333" fill-opacity="1.00" />			<path d="M-2.97194,-912.358 C-2.97194,-917.544 -6.95974,-921.741 -11.8718,-921.741 C-16.7677,-921.741 -20.7608,-917.544 -20.7608,-912.358 C-20.7608,-907.182 -16.7677,-902.99 -11.8718,-902.99 C-6.95974,-902.99 -2.97194,-907.182 -2.97194,-912.358 Z " fill="#0e121b" fill-opacity="1.00" />			<path d="M-2.97195,-912.358 L-5.30981,-912.358 C-5.30981,-910.461 -6.04068,-908.768 -7.22308,-907.499 C-8.42148,-906.247 -10.0446,-905.479 -11.8717,-905.479 C-13.6882,-905.479 -15.3113,-906.247 -16.5098,-907.499 C-17.6921,-908.768 -18.423,-910.461 -18.423,-912.358 C-18.423,-914.255 -17.6921,-915.964 -16.5098,-917.216 C-15.3113,-918.468 -13.6882,-919.253 -11.8717,-919.253 C-10.0446,-919.253 -8.42148,-918.468 -7.22308,-917.216 C-6.04068,-915.964 -5.30981,-914.255 -5.30981,-912.358 L-0.644961,-912.358 C-0.634197,-915.647 -1.91327,-918.629 -3.93397,-920.763 C-5.97087,-922.907 -8.77615,-924.23 -11.8717,-924.23 C-14.9567,-924.23 -17.7619,-922.907 -19.7988,-920.763 C-21.8195,-918.629 -23.0878,-915.647 -23.0878,-912.358 C-23.0878,-909.085 -21.8195,-906.097 -19.7988,-903.952 C-17.7619,-901.819 -14.9567,-900.486 -11.8717,-900.486 C-8.77615,-900.486 -5.97087,-901.819 -3.93397,-903.952 C-1.91327,-906.097 -0.634197,-909.085 -0.644961,-912.358 L-2.97195,-912.358 Z " fill="#343333" fill-opacity="1.00" />			<path d="M-2.8215,-884.223 C-2.8215,-889.41 -6.7931,-893.607 -11.7052,-893.607 C-16.6173,-893.607 -20.5942,-889.41 -20.5942,-884.223 C-20.5942,-879.048 -16.6173,-874.851 -11.7052,-874.851 C-6.7931,-874.851 -2.8215,-879.048 -2.8215,-884.223 Z " fill="#0e121b" fill-opacity="1.00" />			<path d="M-2.82143,-884.223 L-5.15928,-884.223 C-5.15928,-882.321 -5.87406,-880.633 -7.07256,-879.365 C-8.25487,-878.113 -9.87784,-877.344 -11.7051,-877.344 C-13.5377,-877.344 -15.1608,-878.113 -16.3431,-879.365 C-17.5416,-880.633 -18.2564,-882.321 -18.2564,-884.223 C-18.2564,-886.121 -17.5416,-887.824 -16.3431,-889.076 C-15.1608,-890.345 -13.5377,-891.113 -11.7051,-891.113 C-9.87784,-891.113 -8.25487,-890.345 -7.07256,-889.076 C-5.87406,-887.824 -5.15928,-886.121 -5.15928,-884.223 L-0.478344,-884.223 C-0.478344,-887.512 -1.74665,-890.495 -3.78345,-892.629 C-5.80415,-894.773 -8.62573,-896.095 -11.7051,-896.095 C-14.7899,-896.095 -17.6115,-894.773 -19.6322,-892.629 C-21.669,-890.495 -22.932,-887.512 -22.932,-884.223 C-22.932,-880.945 -21.669,-877.962 -19.6322,-875.829 C-17.6115,-873.684 -14.7899,-872.346 -11.7051,-872.346 C-8.62573,-872.346 -5.80415,-873.684 -3.78345,-875.829 C-1.74665,-877.962 -0.478344,-880.945 -0.478344,-884.223 L-2.82143,-884.223 Z " fill="#343333" fill-opacity="1.00" />			<path d="M-11.8718,-912.358 L-12.0813,-885.062 L-11.8718,-912.358 Z " fill="#10101b" fill-opacity="1.00" />			<path d="M-16.9235,-912.401 L-17.1278,-885.105 C-17.1547,-882.133 -14.9136,-879.698 -12.119,-879.682 C-9.32969,-879.655 -7.04565,-882.047 -7.02955,-885.019 L-6.80916,-912.315 C-6.79307,-915.287 -9.03949,-917.721 -11.818,-917.748 C-14.6126,-917.78 -16.8967,-915.383 -16.9235,-912.401 Z " fill="#070712" fill-opacity="1.00" />			<path d="M22.717,-1178.7 C22.717,-1200.78 5.75042,-1218.68 -15.1877,-1218.68 C-36.1151,-1218.68 -53.0763,-1200.78 -53.0763,-1178.7 C-53.0763,-1156.62 -36.1151,-1138.72 -15.1877,-1138.72 C5.75042,-1138.72 22.717,-1156.62 22.717,-1178.7 Z " fill="#0e121b" fill-opacity="1.00" />			<path d="M22.717,-1178.7 L19.8955,-1178.7 C19.8794,-1168.49 15.9723,-1159.27 9.63068,-1152.58 C3.27295,-1145.88 -5.47636,-1141.73 -15.1877,-1141.73 C-24.8882,-1141.73 -33.6375,-1145.88 -39.9953,-1152.58 C-46.3369,-1159.27 -50.244,-1168.49 -50.2601,-1178.7 C-50.244,-1188.91 -46.3369,-1198.13 -39.9953,-1204.83 C-33.6375,-1211.53 -24.8882,-1215.67 -15.1877,-1215.67 C-5.47636,-1215.67 3.27295,-1211.53 9.63068,-1204.83 C15.9723,-1198.13 19.8794,-1188.91 19.8955,-1178.7 L25.5385,-1178.7 C25.5385,-1190.57 20.9704,-1201.35 13.6076,-1209.12 C6.23414,-1216.9 -3.95014,-1221.71 -15.1877,-1221.71 C-26.3985,-1221.71 -36.5934,-1216.9 -43.9723,-1209.12 C-51.3297,-1201.35 -55.8978,-1190.57 -55.8978,-1178.7 C-55.8978,-1166.83 -51.3297,-1156.05 -43.9723,-1148.28 C-36.5934,-1140.51 -26.3985,-1135.69 -15.1877,-1135.69 C-3.95014,-1135.69 6.23414,-1140.51 13.6076,-1148.28 C20.9704,-1156.05 25.5385,-1166.83 25.5385,-1178.7 L22.717,-1178.7 Z " fill="#343333" fill-opacity="1.00" />			<path d="M-6.88981,-1189.79 C-6.88981,-1194.62 -10.6088,-1198.54 -15.1877,-1198.54 C-19.7559,-1198.54 -23.4695,-1194.62 -23.4695,-1189.79 C-23.4695,-1184.96 -19.7559,-1181.04 -15.1877,-1181.04 C-10.6088,-1181.04 -6.88981,-1184.96 -6.88981,-1189.79 Z " fill="#0e121b" fill-opacity="1.00" />			<path d="M-6.88976,-1189.79 L-9.06638,-1189.79 C-9.06638,-1188.01 -9.7382,-1186.43 -10.856,-1185.26 C-11.9523,-1184.1 -13.484,-1183.37 -15.1876,-1183.37 C-16.8805,-1183.37 -18.4068,-1184.1 -19.5086,-1185.26 C-20.6211,-1186.43 -21.2982,-1188.01 -21.2982,-1189.79 C-21.2982,-1191.57 -20.6211,-1193.15 -19.5086,-1194.32 C-18.4068,-1195.49 -16.8805,-1196.22 -15.1876,-1196.22 C-13.484,-1196.22 -11.9523,-1195.49 -10.856,-1194.32 C-9.7382,-1193.15 -9.06638,-1191.57 -9.06638,-1189.79 L-4.71858,-1189.79 C-4.70249,-1192.85 -5.89023,-1195.64 -7.78731,-1197.63 C-9.67362,-1199.63 -12.2963,-1200.86 -15.1876,-1200.86 C-18.0629,-1200.86 -20.6909,-1199.63 -22.5773,-1197.63 C-24.4744,-1195.64 -25.6568,-1192.85 -25.646,-1189.79 C-25.6568,-1186.74 -24.4744,-1183.94 -22.5773,-1181.95 C-20.6909,-1179.95 -18.0629,-1178.72 -15.1876,-1178.72 C-12.2963,-1178.72 -9.67362,-1179.95 -7.78731,-1181.95 C-5.89023,-1183.94 -4.70249,-1186.74 -4.71858,-1189.79 L-6.88976,-1189.79 Z " fill="#343333" fill-opacity="1.00" />			<path d="M-6.73933,-1163.55 C-6.73933,-1168.38 -10.4529,-1172.31 -15.0372,-1172.31 C-19.616,-1172.31 -23.319,-1168.38 -23.319,-1163.55 C-23.319,-1158.73 -19.616,-1154.8 -15.0372,-1154.8 C-10.4529,-1154.8 -6.73933,-1158.73 -6.73933,-1163.55 Z " fill="#0e121b" fill-opacity="1.00" />			<path d="M-6.73935,-1163.55 L-8.92673,-1163.55 C-8.92673,-1161.78 -9.60388,-1160.2 -10.7056,-1159.02 C-11.818,-1157.86 -13.3282,-1157.13 -15.0372,-1157.13 C-16.7301,-1157.13 -18.2564,-1157.86 -19.3582,-1159.02 C-20.4707,-1160.2 -21.1478,-1161.78 -21.1478,-1163.55 C-21.1478,-1165.33 -20.4707,-1166.91 -19.3582,-1168.08 C-18.2564,-1169.25 -16.7301,-1169.98 -15.0372,-1169.98 C-13.3282,-1169.98 -11.818,-1169.25 -10.7056,-1168.08 C-9.60388,-1166.91 -8.92673,-1165.33 -8.92673,-1163.55 L-4.56817,-1163.55 C-4.56817,-1166.61 -5.75047,-1169.4 -7.63689,-1171.4 C-9.53397,-1173.39 -12.162,-1174.63 -15.0372,-1174.63 C-17.9125,-1174.63 -20.5405,-1173.39 -22.4269,-1171.4 C-24.324,-1169.4 -25.5063,-1166.61 -25.5063,-1163.55 C-25.5063,-1160.5 -24.324,-1157.7 -22.4269,-1155.71 C-20.5405,-1153.72 -17.9125,-1152.48 -15.0372,-1152.48 C-12.162,-1152.48 -9.53397,-1153.72 -7.63689,-1155.71 C-5.75047,-1157.7 -4.56817,-1160.5 -4.56817,-1163.55 L-6.73935,-1163.55 Z " fill="#343333" fill-opacity="1.00" />			<path d="M-15.1877,-1189.79 L-15.3812,-1164.34 L-15.1877,-1189.79 Z " fill="#10101b" fill-opacity="1.00" />			<path d="M-19.8955,-1189.83 L-20.0836,-1164.38 C-20.1159,-1161.6 -18.0199,-1159.33 -15.4241,-1159.3 C-12.823,-1159.29 -10.6894,-1161.52 -10.6732,-1164.3 L-10.4691,-1189.75 C-10.453,-1192.53 -12.5489,-1194.8 -15.1447,-1194.81 C-17.7459,-1194.84 -19.8632,-1192.61 -19.8955,-1189.83 Z " fill="#070712" fill-opacity="1.00" />			<path d="M-80.0874,-1120.02 L51.5231,-1120.02 L51.5231,-1124.5 L-80.0874,-1124.5 L-80.0874,-1120.02 Z " fill="#000000" fill-opacity="1.00" />			<path d="M-265.666,-1540.05 L-297.31,-1520.78 C-297.31,-1520.78 -116.503,-1239.92 -7.41649,-1237.96 C118.186,-1259.38 277.78,-1512.53 277.78,-1512.53 L258.519,-1546.92 C258.519,-1546.92 -194.124,-1516.66 -265.666,-1540.05 Z " fill="#464646" fill-opacity="1.00" />			<path d="M-265.666,-1540.05 L-267.262,-1542.67 L-301.604,-1521.77 L-299.9,-1519.13 C-299.858,-1519.06 -254.606,-1448.77 -195.623,-1378.14 C-166.129,-1342.82 -133.207,-1307.41 -100.682,-1280.61 C-84.4191,-1267.2 -68.2533,-1255.95 -52.598,-1247.94 C-36.9373,-1239.94 -21.7658,-1235.15 -7.47022,-1234.89 L-7.18002,-1234.89 L-6.90592,-1234.93 C25.3719,-1240.46 59.2137,-1260.62 92.072,-1287.53 C141.322,-1327.92 188.336,-1383.71 223.091,-1429.44 C257.857,-1475.17 280.338,-1510.85 280.365,-1510.89 L281.343,-1512.43 L260.238,-1550.12 L258.309,-1549.99 C258.309,-1549.99 257.39,-1549.92 255.627,-1549.81 C229.213,-1548.08 12.9627,-1534.24 -135.104,-1534.24 C-165.619,-1534.24 -193.216,-1534.83 -215.632,-1536.24 C-226.843,-1536.92 -236.747,-1537.83 -245.045,-1538.94 C-253.343,-1540.07 -260.039,-1541.42 -264.721,-1542.96 L-266.069,-1543.4 L-267.262,-1542.67 L-265.666,-1540.05 L-266.634,-1537.13 C-261.351,-1535.41 -254.375,-1534.03 -245.857,-1532.88 C-220.361,-1529.43 -181,-1528.11 -135.104,-1528.11 C23.1845,-1528.11 258.68,-1543.87 258.723,-1543.87 L258.519,-1546.92 L255.831,-1545.43 L275.093,-1511.03 L277.78,-1512.53 L275.179,-1514.16 C275.179,-1514.16 275.028,-1513.93 274.722,-1513.45 C270.03,-1506.09 229.32,-1442.91 174.685,-1379.08 C147.379,-1347.17 116.589,-1315.1 85.15,-1289.8 C53.7104,-1264.49 21.626,-1245.99 -7.93785,-1240.98 L-7.4165,-1237.96 L-7.35736,-1241.03 C-20.347,-1241.25 -34.6856,-1245.68 -49.8034,-1253.41 C-76.2448,-1266.92 -104.933,-1290.51 -132.916,-1318.29 C-174.922,-1359.96 -215.412,-1411.04 -245.362,-1451.66 C-260.346,-1471.99 -272.701,-1489.69 -281.3,-1502.31 C-285.605,-1508.62 -288.964,-1513.66 -291.243,-1517.11 C-292.387,-1518.84 -293.269,-1520.18 -293.86,-1521.09 C-294.435,-1521.98 -294.741,-1522.45 -294.741,-1522.45 L-297.31,-1520.78 L-295.714,-1518.17 L-264.07,-1537.43 L-265.666,-1540.05 L-266.634,-1537.13 L-265.666,-1540.05 Z " fill="#000000" fill-opacity="1.00" />			<path d="M-286.304,-1525.6 C-286.304,-1525.6 43.8917,-1498.08 278.468,-1537.98 C278.468,-1561.37 272.277,-1582.7 272.277,-1582.7 L-295.246,-1571.69 L-286.304,-1525.6 Z " fill="#313131" fill-opacity="1.00" />			<path d="M-286.304,-1525.6 L-286.567,-1522.55 C-286.513,-1522.55 -175.486,-1513.29 -36.3623,-1513.29 C64.4967,-1513.29 180.097,-1518.14 278.973,-1534.96 L281.531,-1535.4 L281.531,-1537.98 C281.52,-1561.89 275.249,-1583.39 275.216,-1583.55 L274.561,-1585.8 L-298.965,-1574.69 L-288.878,-1522.74 L-286.567,-1522.55 L-286.304,-1525.6 L-283.305,-1526.19 L-291.549,-1568.7 L272.33,-1579.63 L272.277,-1582.7 L269.332,-1581.84 L269.342,-1581.8 C269.659,-1580.68 275.41,-1560.13 275.399,-1537.98 L278.468,-1537.98 L277.941,-1541.01 C179.64,-1524.28 64.2924,-1519.42 -36.3623,-1519.42 C-105.787,-1519.42 -168.22,-1521.73 -213.305,-1524.05 C-235.839,-1525.2 -254.031,-1526.36 -266.591,-1527.22 C-272.863,-1527.65 -277.737,-1528.01 -281.037,-1528.27 C-282.687,-1528.39 -283.939,-1528.49 -284.793,-1528.56 C-285.632,-1528.63 -286.056,-1528.65 -286.056,-1528.65 L-286.304,-1525.6 L-283.305,-1526.19 L-286.304,-1525.6 Z " fill="#0a0a0a" fill-opacity="1.00" />			<path d="M-330.206,-1671.07 L-340.277,-1563.07 C-340.277,-1563.07 -323.23,-1553.35 -134.153,-1546.68 C54.9358,-1540.02 315.018,-1564.25 315.018,-1564.25 C315.018,-1564.25 303.851,-1671.04 294.107,-1705.87 C284.38,-1740.7 264.333,-1714.44 218.711,-1705.49 C173.094,-1696.53 39.3235,-1686.03 -75.4064,-1689.82 C-190.12,-1693.58 -274.131,-1713.88 -294.37,-1723.58 C-314.578,-1733.29 -330.195,-1671.12 -330.206,-1671.07 Z " fill="#5e5e5e" fill-opacity="1.00" />			<path d="M-330.206,-1671.07 L-327.143,-1671.07 L-330.206,-1671.07 L-327.234,-1670.32 L-327.196,-1670.46 C-326.809,-1671.97 -323.343,-1685.22 -317.867,-1697.9 C-315.142,-1704.24 -311.912,-1710.43 -308.456,-1714.83 C-306.737,-1717.04 -304.974,-1718.78 -303.313,-1719.91 C-301.631,-1721.03 -300.121,-1721.54 -298.675,-1721.54 C-297.74,-1721.54 -296.789,-1721.34 -295.687,-1720.81 C-292.978,-1719.52 -289.362,-1718.1 -284.836,-1716.59 C-268.971,-1711.29 -241.853,-1704.68 -206.055,-1698.95 C-170.268,-1693.23 -125.833,-1688.4 -75.5032,-1686.75 C-58.9826,-1686.2 -42.0698,-1685.95 -25.0924,-1685.95 C25.5063,-1685.95 76.7554,-1688.15 120.26,-1691.32 C142.026,-1692.9 161.835,-1694.73 178.689,-1696.64 C195.532,-1698.54 209.398,-1700.53 219.308,-1702.47 C233.835,-1705.34 245.803,-1709.9 255.547,-1713.7 C260.4,-1715.6 264.72,-1717.29 268.477,-1718.49 C272.234,-1719.69 275.426,-1720.36 277.968,-1720.36 C279.51,-1720.36 280.806,-1720.13 281.961,-1719.67 C283.681,-1718.98 285.234,-1717.77 286.803,-1715.46 C288.357,-1713.16 289.845,-1709.75 291.162,-1705.05 C293.532,-1696.57 296.063,-1683.4 298.455,-1668.56 C302.077,-1646.26 305.457,-1620.09 307.924,-1599.51 C309.16,-1589.21 310.176,-1580.32 310.88,-1573.98 C311.224,-1570.82 311.498,-1568.3 311.675,-1566.58 C311.869,-1564.85 311.966,-1563.93 311.966,-1563.93 L315.018,-1564.25 L314.733,-1567.3 C314.733,-1567.3 313.949,-1567.22 312.433,-1567.08 C289.759,-1565.03 102.772,-1548.59 -63.0241,-1548.59 C-87.3481,-1548.59 -111.221,-1548.95 -134.045,-1549.75 C-228.535,-1553.07 -280.005,-1557.17 -307.768,-1560.42 C-321.639,-1562.04 -329.588,-1563.46 -333.989,-1564.44 C-336.193,-1564.93 -337.499,-1565.32 -338.203,-1565.55 C-338.557,-1565.66 -338.751,-1565.75 -338.837,-1565.79 L-338.875,-1565.8 L-339.729,-1564.04 L-338.751,-1565.73 L-338.875,-1565.8 L-339.729,-1564.04 L-338.751,-1565.73 L-340.277,-1563.07 L-337.225,-1562.79 L-327.143,-1670.93 L-327.143,-1671.07 L-330.206,-1671.07 L-333.264,-1671.35 L-343.513,-1561.38 L-341.793,-1560.41 C-341.309,-1560.15 -340.046,-1559.51 -335.328,-1558.45 C-328.266,-1556.88 -313.508,-1554.44 -282.73,-1551.74 C-251.967,-1549.06 -205.2,-1546.12 -134.265,-1543.62 C-111.344,-1542.81 -87.4071,-1542.45 -63.0241,-1542.45 C114.235,-1542.45 315.255,-1561.19 315.298,-1561.19 L318.393,-1561.48 L318.06,-1564.56 C318.06,-1564.57 315.271,-1591.29 311.267,-1622.38 C309.257,-1637.93 306.946,-1654.58 304.512,-1669.54 C302.088,-1684.51 299.556,-1697.75 297.068,-1706.7 C295.155,-1713.5 292.844,-1718.35 289.636,-1721.68 C288.039,-1723.35 286.212,-1724.58 284.218,-1725.37 C282.235,-1726.17 280.118,-1726.5 277.968,-1726.5 C274.394,-1726.48 270.664,-1725.61 266.618,-1724.33 C260.539,-1722.39 253.671,-1719.45 245.679,-1716.49 C237.688,-1713.53 228.578,-1710.55 218.12,-1708.5 C208.489,-1706.6 194.731,-1704.62 177.99,-1702.74 C127.757,-1697.02 50.5504,-1692.08 -25.0924,-1692.08 C-42.0161,-1692.08 -58.8591,-1692.33 -75.3096,-1692.87 C-132.503,-1694.75 -182.059,-1700.75 -219.786,-1707.5 C-238.65,-1710.85 -254.552,-1714.4 -266.961,-1717.7 C-273.169,-1719.35 -278.506,-1720.94 -282.88,-1722.41 C-287.255,-1723.87 -290.694,-1725.22 -293.032,-1726.34 C-294.876,-1727.23 -296.789,-1727.68 -298.675,-1727.68 C-301.717,-1727.68 -304.522,-1726.54 -306.984,-1724.83 C-309.144,-1723.32 -311.084,-1721.35 -312.901,-1719.09 C-316.077,-1715.13 -318.872,-1710.23 -321.333,-1705.1 C-325.036,-1697.38 -327.965,-1689.11 -330.002,-1682.73 C-332.038,-1676.35 -333.167,-1671.88 -333.178,-1671.81 L-333.275,-1671.44 L-333.275,-1671.07 L-330.206,-1671.07 L-333.264,-1671.35 L-330.206,-1671.07 Z " fill="#000000" fill-opacity="1.00" />			<path d="M-2.27374e-13,-1237.96 C2.54738,-1228.15 15.3006,-1230.6 73.9661,-1203.62 C132.632,-1176.62 227.009,-1118.56 255.063,-1112.84 C283.117,-1107.12 383.438,-1280.48 412.357,-1349.16 C441.265,-1417.86 476.117,-1524.98 465.922,-1544.6 C455.711,-1564.22 417.452,-1588.75 384.293,-1612.47 C351.133,-1636.19 319.683,-1677.88 312.019,-1694.24 C304.372,-1710.59 282.278,-1728.59 282.278,-1723.67 C282.278,-1718.78 290.764,-1694.24 290.764,-1664.8 C290.764,-1635.36 294.177,-1592.85 221.904,-1473.45 C142.837,-1344.25 -2.27374e-13,-1237.96 -2.27374e-13,-1237.96 Z " fill="#5e5e5e" fill-opacity="1.00" />			<path d="M1.01979e-05,-1237.96 L1.83261,-1235.5 C1.88633,-1235.55 37.6843,-1262.19 83.3872,-1305.01 C129.106,-1347.86 184.746,-1406.88 224.521,-1471.86 L224.532,-1471.87 C257.637,-1526.56 274.969,-1565.28 284.052,-1594.14 C288.577,-1608.57 291.038,-1620.54 292.36,-1630.76 C293.682,-1640.99 293.86,-1649.48 293.86,-1656.88 C293.86,-1659.66 293.833,-1662.28 293.833,-1664.8 C293.833,-1679.81 291.672,-1693.5 289.528,-1704.06 C288.453,-1709.32 287.378,-1713.81 286.583,-1717.24 C286.185,-1718.96 285.868,-1720.4 285.648,-1721.53 C285.535,-1722.09 285.454,-1722.57 285.401,-1722.94 C285.358,-1723.32 285.331,-1723.59 285.331,-1723.67 L283.391,-1723.67 L285.223,-1723.06 C285.315,-1723.35 285.331,-1723.55 285.331,-1723.67 L283.391,-1723.67 L285.223,-1723.06 L282.966,-1723.82 L284.836,-1722.34 C285.03,-1722.59 285.153,-1722.84 285.223,-1723.06 L282.966,-1723.82 L284.836,-1722.34 L282.923,-1723.85 L283.805,-1721.58 C284.148,-1721.71 284.562,-1721.98 284.836,-1722.34 L282.923,-1723.85 L283.805,-1721.58 L283.074,-1723.45 L283.074,-1721.43 C283.213,-1721.43 283.471,-1721.44 283.805,-1721.58 L283.074,-1723.45 L283.074,-1721.43 L283.074,-1722.32 L282.907,-1721.44 L283.074,-1721.43 L283.074,-1722.32 L282.907,-1721.44 C282.907,-1721.44 283.074,-1721.41 283.321,-1721.29 C283.805,-1721.09 284.562,-1720.67 285.438,-1720.08 C287.008,-1719.07 289.018,-1717.51 291.162,-1715.6 C294.397,-1712.75 298.003,-1709.09 301.249,-1705.14 C304.495,-1701.18 307.387,-1696.93 309.257,-1692.94 C311.294,-1688.59 314.76,-1682.83 319.355,-1676.15 C333.183,-1656.16 357.19,-1628.11 382.519,-1609.98 C399.136,-1598.09 416.968,-1586.04 431.839,-1574.58 C439.282,-1568.84 445.973,-1563.26 451.38,-1557.96 C456.786,-1552.66 460.897,-1547.64 463.198,-1543.18 C463.606,-1542.4 464.009,-1541.17 464.267,-1539.58 C464.53,-1537.98 464.67,-1536.04 464.67,-1533.78 C464.67,-1525.64 462.838,-1513.71 459.661,-1499.64 C450.111,-1457.35 428.512,-1395.45 409.525,-1350.36 C402.479,-1333.6 391.075,-1310.44 377.494,-1285.16 C357.136,-1247.24 331.834,-1204.55 308.913,-1171.45 C297.45,-1154.9 286.567,-1140.74 277.28,-1130.84 C272.647,-1125.88 268.396,-1122 264.774,-1119.44 C262.974,-1118.17 261.324,-1117.21 259.921,-1116.61 C258.502,-1116.02 257.331,-1115.77 256.482,-1115.77 C256.175,-1115.77 255.917,-1115.8 255.67,-1115.85 C252.489,-1116.5 248.06,-1117.97 242.788,-1120.12 C233.534,-1123.89 221.603,-1129.69 208.178,-1136.64 C188.019,-1147.06 164.453,-1160.05 141.107,-1172.66 C117.745,-1185.26 94.614,-1197.5 75.2451,-1206.39 C45.8156,-1219.93 27.7903,-1226.14 16.9935,-1230.1 C11.6137,-1232.07 8.0614,-1233.53 6.0245,-1234.84 C5.00876,-1235.48 4.37466,-1236.06 3.93399,-1236.64 C3.49321,-1237.22 3.20845,-1237.82 2.96121,-1238.73 L1.01979e-05,-1237.96 L1.83261,-1235.5 L1.01979e-05,-1237.96 L-2.97195,-1237.19 C-2.57433,-1235.65 -1.91327,-1234.17 -0.935153,-1232.91 C-0.0806621,-1231.79 0.978123,-1230.84 2.20338,-1230 C4.34781,-1228.55 6.97575,-1227.38 10.4422,-1226.02 C15.6445,-1224 22.7707,-1221.56 32.8421,-1217.69 C42.9136,-1213.84 55.8978,-1208.54 72.687,-1200.82 C101.837,-1187.42 140.086,-1166.17 174.535,-1147.55 C191.759,-1138.25 208.049,-1129.6 221.839,-1122.9 C228.729,-1119.54 235.006,-1116.67 240.477,-1114.44 C245.954,-1112.22 250.618,-1110.63 254.445,-1109.84 C255.117,-1109.71 255.805,-1109.65 256.482,-1109.65 C259.083,-1109.65 261.641,-1110.52 264.28,-1111.92 C269.219,-1114.55 274.598,-1119.17 280.558,-1125.37 C290.974,-1136.24 303.05,-1152.07 315.765,-1170.59 C334.817,-1198.38 355.261,-1232.25 373.146,-1264.42 C391.032,-1296.6 406.349,-1327.01 415.179,-1347.98 C427.921,-1378.25 441.787,-1415.89 452.492,-1450.33 C457.845,-1467.55 462.413,-1483.97 465.643,-1498.29 C468.862,-1512.61 470.791,-1524.79 470.802,-1533.78 C470.802,-1536.29 470.652,-1538.55 470.308,-1540.58 C469.98,-1542.6 469.469,-1544.42 468.642,-1546.02 C465.836,-1551.38 461.338,-1556.78 455.668,-1562.33 C447.166,-1570.67 435.982,-1579.36 423.804,-1588.23 C411.642,-1597.09 398.475,-1606.1 386.082,-1614.96 C369.804,-1626.58 353.794,-1642.79 340.944,-1658.09 C334.516,-1665.72 328.889,-1673.16 324.402,-1679.64 C319.93,-1686.13 316.587,-1691.71 314.803,-1695.54 C311.143,-1703.33 304.743,-1711.04 298.675,-1717 C295.633,-1719.96 292.694,-1722.48 290.146,-1724.29 C288.867,-1725.22 287.695,-1725.96 286.61,-1726.52 C286.062,-1726.8 285.524,-1727.04 284.971,-1727.23 C284.406,-1727.4 283.831,-1727.55 283.074,-1727.57 C282.687,-1727.57 282.251,-1727.53 281.768,-1727.36 C281.407,-1727.24 281.01,-1727.04 280.666,-1726.77 C280.128,-1726.37 279.704,-1725.78 279.484,-1725.22 C279.263,-1724.65 279.209,-1724.13 279.209,-1723.67 C279.209,-1723.15 279.247,-1722.66 279.333,-1722.12 C279.607,-1720.13 280.252,-1717.4 281.08,-1713.81 C283.584,-1703.11 287.712,-1685.1 287.712,-1664.8 C287.712,-1662.25 287.722,-1659.62 287.722,-1656.88 C287.722,-1649.57 287.561,-1641.43 286.282,-1631.55 C284.369,-1616.75 279.978,-1598.06 269.88,-1572.83 C259.781,-1547.61 243.987,-1515.86 219.276,-1475.05 L219.292,-1475.07 C179.984,-1410.83 124.678,-1352.11 79.2059,-1309.5 C56.4621,-1288.19 36.185,-1270.91 21.5992,-1258.95 C14.3117,-1252.98 8.44836,-1248.35 4.40152,-1245.19 C2.38082,-1243.63 0.827644,-1242.43 -0.231141,-1241.62 C-0.76858,-1241.22 -1.1662,-1240.91 -1.42954,-1240.72 C-1.70364,-1240.52 -1.82726,-1240.42 -1.82726,-1240.42 L-3.49329,-1239.18 L-2.97195,-1237.19 L1.01979e-05,-1237.96 Z " fill="#000000" fill-opacity="1.00" />			<path d="M-7.4165,-1237.96 C-7.4165,-1237.96 -155.3,-1344.25 -237.161,-1473.45 C-311.976,-1592.85 -308.456,-1635.36 -308.456,-1664.8 C-308.456,-1694.24 -299.653,-1718.78 -299.653,-1723.67 C-299.653,-1728.59 -322.542,-1710.59 -330.453,-1694.24 C-338.38,-1677.88 -370.948,-1636.19 -405.285,-1612.47 C-439.615,-1588.75 -479.224,-1564.22 -489.79,-1544.6 C-500.339,-1524.98 -464.251,-1417.86 -434.327,-1349.16 C-404.403,-1280.48 -300.529,-1107.12 -271.487,-1112.84 C-242.444,-1118.56 -144.734,-1176.62 -83.9945,-1203.62 C-23.2652,-1230.6 -10.0553,-1228.15 -7.4165,-1237.96 Z " fill="#5e5e5e" fill-opacity="1.00" />			<path d="M-7.41647,-1237.96 L-5.62681,-1240.45 C-5.62681,-1240.45 -5.7612,-1240.54 -6.04063,-1240.75 C-10.3455,-1243.87 -47.7665,-1271.32 -93.9799,-1313.57 C-140.182,-1355.81 -195.156,-1412.88 -234.56,-1475.09 C-268.67,-1529.51 -286.373,-1567.79 -295.553,-1596.01 C-300.132,-1610.12 -302.593,-1621.7 -303.915,-1631.56 C-305.237,-1641.43 -305.414,-1649.57 -305.414,-1656.88 C-305.414,-1659.62 -305.388,-1662.25 -305.388,-1664.8 C-305.388,-1679.22 -303.227,-1692.5 -301.056,-1702.81 C-299.97,-1707.96 -298.879,-1712.37 -298.041,-1715.83 C-297.627,-1717.57 -297.283,-1719.07 -297.025,-1720.35 C-296.902,-1720.98 -296.789,-1721.56 -296.719,-1722.1 C-296.638,-1722.64 -296.584,-1723.14 -296.584,-1723.67 C-296.584,-1724.09 -296.638,-1724.56 -296.816,-1725.07 C-296.955,-1725.44 -297.16,-1725.83 -297.45,-1726.18 C-297.874,-1726.72 -298.465,-1727.11 -299.019,-1727.31 C-299.567,-1727.51 -300.062,-1727.57 -300.492,-1727.57 C-301.233,-1727.55 -301.814,-1727.41 -302.389,-1727.24 C-303.437,-1726.89 -304.452,-1726.37 -305.581,-1725.71 C-307.548,-1724.53 -309.816,-1722.86 -312.267,-1720.81 C-315.943,-1717.75 -320,-1713.82 -323.741,-1709.47 C-327.487,-1705.13 -330.894,-1700.38 -333.221,-1695.58 C-335.064,-1691.76 -338.52,-1686.16 -343.169,-1679.67 C-357.077,-1660.19 -381.734,-1632.45 -407.02,-1614.98 C-424.148,-1603.17 -442.652,-1591.09 -458.28,-1579.46 C-466.1,-1573.64 -473.194,-1567.93 -479.057,-1562.38 C-484.931,-1556.81 -489.58,-1551.42 -492.487,-1546.06 C-493.337,-1544.45 -493.874,-1542.63 -494.234,-1540.59 C-494.578,-1538.56 -494.729,-1536.29 -494.729,-1533.78 C-494.712,-1524.77 -492.735,-1512.6 -489.392,-1498.26 C-479.347,-1455.34 -456.92,-1393.35 -437.138,-1347.94 C-429.705,-1330.9 -417.85,-1307.61 -403.715,-1282.21 C-382.53,-1244.13 -356.266,-1201.32 -332.329,-1167.92 C-320.355,-1151.23 -308.977,-1136.88 -299.003,-1126.6 C-294.026,-1121.47 -289.388,-1117.34 -285.11,-1114.41 C-282.977,-1112.95 -280.924,-1111.78 -278.919,-1110.96 C-276.909,-1110.13 -274.926,-1109.65 -272.959,-1109.65 C-272.261,-1109.65 -271.573,-1109.71 -270.895,-1109.84 C-266.951,-1110.63 -262.135,-1112.21 -256.466,-1114.42 C-246.561,-1118.32 -234.109,-1124.18 -220.114,-1131.17 C-199.133,-1141.65 -174.712,-1154.65 -150.582,-1167.24 C-126.435,-1179.83 -102.568,-1192.01 -82.753,-1200.81 C-52.4743,-1214.25 -34.1589,-1220.34 -22.8944,-1224.34 C-17.2514,-1226.34 -13.3443,-1227.81 -10.3455,-1229.63 C-8.85678,-1230.54 -7.57771,-1231.59 -6.57807,-1232.87 C-5.557,-1234.13 -4.86909,-1235.62 -4.45527,-1237.16 L-3.90707,-1239.21 L-5.62681,-1240.45 L-7.41647,-1237.96 L-10.3723,-1238.75 C-10.6196,-1237.85 -10.9205,-1237.25 -11.3773,-1236.68 C-11.775,-1236.17 -12.3286,-1235.66 -13.1777,-1235.09 C-14.6664,-1234.12 -17.0471,-1233.03 -20.4706,-1231.74 C-25.6298,-1229.8 -33.1001,-1227.34 -43.6283,-1223.44 C-54.1511,-1219.53 -67.7426,-1214.18 -85.2467,-1206.41 C-115.789,-1192.85 -155.413,-1171.57 -191.045,-1152.97 C-208.86,-1143.69 -225.66,-1135.06 -239.778,-1128.43 C-246.835,-1125.11 -253.23,-1122.29 -258.707,-1120.13 C-264.167,-1117.99 -268.762,-1116.5 -272.078,-1115.85 C-272.341,-1115.8 -272.631,-1115.77 -272.959,-1115.77 C-274.184,-1115.77 -275.974,-1116.23 -278.145,-1117.35 C-282.219,-1119.43 -287.502,-1123.7 -293.419,-1129.66 C-303.781,-1140.11 -316.163,-1155.73 -329.206,-1174.11 C-348.779,-1201.67 -369.873,-1235.41 -388.307,-1267.44 C-406.746,-1299.46 -422.541,-1329.79 -431.522,-1350.39 C-444.619,-1380.45 -458.931,-1417.97 -469.937,-1452.19 C-475.44,-1469.29 -480.116,-1485.56 -483.421,-1499.65 C-486.705,-1513.73 -488.607,-1525.65 -488.591,-1533.78 C-488.591,-1536.03 -488.457,-1537.98 -488.177,-1539.56 C-487.919,-1541.15 -487.506,-1542.36 -487.081,-1543.14 C-484.7,-1547.59 -480.449,-1552.62 -474.849,-1557.92 C-466.444,-1565.89 -455.05,-1574.45 -442.555,-1583.24 C-430.049,-1592.03 -416.442,-1601.03 -403.538,-1609.95 C-386.066,-1622.03 -369.212,-1638.52 -355.659,-1654.1 C-348.876,-1661.89 -342.932,-1669.44 -338.176,-1676.11 C-333.398,-1682.79 -329.824,-1688.55 -327.701,-1692.9 C-324.482,-1699.6 -318.211,-1707.01 -312.31,-1712.57 C-309.365,-1715.37 -306.505,-1717.7 -304.205,-1719.29 C-303.066,-1720.08 -302.072,-1720.69 -301.33,-1721.05 C-300.97,-1721.22 -300.669,-1721.35 -300.502,-1721.41 L-300.352,-1721.44 L-300.406,-1721.75 L-300.379,-1721.43 L-300.352,-1721.44 L-300.406,-1721.75 L-300.379,-1721.43 L-300.492,-1722.52 L-300.492,-1721.43 L-300.379,-1721.43 L-300.492,-1722.52 L-300.492,-1721.43 L-300.492,-1723.33 L-301.067,-1721.53 C-300.793,-1721.44 -300.599,-1721.43 -300.492,-1721.43 L-300.492,-1723.33 L-301.067,-1721.53 L-300.325,-1723.84 L-302.378,-1722.55 C-302.061,-1722.04 -301.47,-1721.64 -301.067,-1721.53 L-300.325,-1723.84 L-302.378,-1722.55 L-300.572,-1723.67 L-302.722,-1723.67 C-302.722,-1723.5 -302.69,-1723.06 -302.378,-1722.55 L-300.572,-1723.67 L-302.722,-1723.67 C-302.722,-1723.59 -302.733,-1723.33 -302.786,-1722.96 C-302.98,-1721.54 -303.641,-1718.79 -304.506,-1715.23 C-307.096,-1704.46 -311.525,-1685.92 -311.525,-1664.8 C-311.525,-1662.28 -311.552,-1659.66 -311.552,-1656.88 C-311.552,-1649.48 -311.358,-1640.99 -309.999,-1630.75 C-307.946,-1615.4 -303.227,-1596.15 -292.607,-1570.52 C-281.988,-1544.89 -265.462,-1512.86 -239.762,-1471.83 L-239.735,-1471.8 L-239.746,-1471.82 C-198.569,-1406.84 -140.967,-1347.83 -93.6521,-1304.99 C-46.3208,-1262.14 -9.2706,-1235.51 -9.20069,-1235.47 L-7.41647,-1237.96 L-10.3723,-1238.75 L-7.41647,-1237.96 Z " fill="#000000" fill-opacity="1.00" />		</g>	</svg>